<svg xmlns="http://www.w3.org/2000/svg" width="32" height="32" viewBox="0 0 32 32"><path d="M23.778 17.089l.022-.2.4-.133c.289-.089.6-.2.844-.311.822-.4.978-.956.933-1.356a14.758 14.758 0 0 0-.2-1.2c-.044-.244-.244-.822-1.089-.978-.2-.044-.4-.044-.711-.044h-.867l-.111-.178c-.178-.311-.356-.6-.467-.8l-.111-.178.222-.356c.156-.267.333-.533.444-.8.178-.378.4-1.089-.156-1.644-.2-.2-.822-.711-.933-.778a1.21 1.21 0 0 0-.733-.244c-.6 0-1.067.4-1.644.933l-.311.267-.2-.111a8.378 8.378 0 0 0-.889-.311l-.2-.067-.067-.4c-.044-.311-.089-.622-.178-.889-.267-.956-.867-1.133-1.2-1.156h-1.2c-.333.022-.933.2-1.2 1.156-.067.267-.111.578-.178.889l-.067.422-.178.044c-.289.089-.6.2-.889.311l-.2.067-.311-.267c-.6-.511-1.044-.933-1.644-.933-.267 0-.533.089-.733.244-.089.067-.733.6-.933.778-.244.244-.578.756-.156 1.644.111.244.289.511.444.778l.222.378-.111.178c-.111.2-.311.489-.467.8l-.089.2h-.867c-.311 0-.533.022-.711.044-.822.156-1.044.733-1.089.978-.089.422-.2.978-.2 1.2-.022.4.111.956.933 1.356.267.111.578.222.844.311l.4.133.022.2c.044.222.089.578.156.911l.044.2-.311.244c-.244.2-.489.4-.689.6-.711.711-.556 1.333-.378 1.644.2.378.489.867.6 1.044.222.333.622.511 1.044.511s.889-.178 1.4-.378l.4-.156.156.133c.244.2.489.422.711.6l.156.133-.089.4a7.593 7.593 0 0 0-.156.889c-.089 1 .422 1.378.756 1.511.156.067.889.333 1.133.422.111.022.222.044.333.044.822 0 1.244-.756 1.644-1.511l.2-.311h1.333l.2.356c.4.733.822 1.511 1.644 1.511.111 0 .222-.022.333-.044.244-.067.978-.333 1.133-.422.311-.133.844-.511.756-1.511-.022-.267-.089-.578-.156-.889v-.022l-.067-.378.156-.133c.222-.178.467-.4.711-.6l.156-.133.378.156c.511.2.978.378 1.4.378s.822-.2 1.044-.511c.156-.222.556-.956.6-1.044.156-.311.333-.933-.378-1.644a8.2 8.2 0 0 0-.667-.578l-.022-.022c-.044-.044-.089-.067-.156-.133l-.156-.133.044-.2c.067-.267.111-.6.156-.911zm-.334 1.955c.622.489 1.111.889.889 1.311-.067.133-.444.8-.556.978-.067.089-.2.2-.444.2-.289 0-.689-.156-1.133-.333-.311-.111-.667-.267-.867-.289-.311.311-1.2 1.089-1.6 1.333 0 .178.089.622.133.889.156.778.289 1.4-.156 1.578-.178.067-.867.333-1.067.378-.022 0-.067.022-.133.022-.4 0-.644-.467-1-1.133-.133-.244-.356-.644-.467-.756-.311.022-.867.044-1.044.044s-.733 0-1.044-.044c-.111.133-.333.511-.467.756-.356.644-.622 1.133-1 1.133-.044 0-.089 0-.133-.022a13.955 13.955 0 0 1-1.044-.378c-.444-.178-.311-.8-.156-1.578.044-.267.133-.711.133-.889-.4-.267-1.289-1.044-1.6-1.333-.178.022-.556.156-.867.289-.444.178-.844.333-1.133.333-.244 0-.378-.111-.444-.2-.111-.178-.489-.822-.556-.978-.222-.422.267-.822.889-1.311.222-.178.556-.444.667-.6-.133-.467-.311-1.622-.356-2.067-.133-.089-.578-.244-.844-.333-.733-.244-1.333-.444-1.289-.911.022-.222.178-1 .2-1.111.089-.444.689-.444 1.089-.444h.866c.133 0 .4-.022.467-.022.178-.444.8-1.444 1.044-1.8-.044-.178-.289-.556-.422-.8-.4-.667-.733-1.2-.4-1.533.156-.156.733-.622.867-.733a.446.446 0 0 1 .289-.089c.311 0 .622.267 1.156.733.2.178.533.489.711.556.422-.2 1.511-.6 1.978-.711.067-.156.133-.6.178-.889.111-.778.222-1.4.689-1.422h1.112c.467.022.578.644.689 1.422.044.267.111.711.178.889.444.111 1.556.511 1.978.711.156-.089.489-.378.711-.556.533-.467.867-.733 1.178-.733.111 0 .2.044.289.089.133.111.711.578.867.733.333.333.022.867-.4 1.533-.156.244-.378.622-.422.8.267.356.867 1.378 1.044 1.8.067.022.2.022.467.022h.866c.4 0 1 0 1.089.444.022.133.178.889.2 1.111.044.467-.556.667-1.289.911-.267.089-.689.244-.844.333-.044.422-.222 1.6-.356 2.067.067.133.422.422.622.6z"/><path d="M16 11.067c-2.711 0-4.933 2.222-4.933 4.933s2.222 4.933 4.933 4.933 4.933-2.222 4.933-4.933-2.222-4.933-4.933-4.933zm0 9.222A4.291 4.291 0 0 1 11.711 16 4.291 4.291 0 0 1 16 11.711 4.291 4.291 0 0 1 20.289 16 4.277 4.277 0 0 1 16 20.289z"/><path d="M16.333 13.667h-.667v2h-2v.667h2v2h.667v-2h2v-.667h-2z"/></svg>