<svg xmlns="http://www.w3.org/2000/svg" width="32" height="32" viewBox="0 0 32 32"><path d="M16 6.422c-5.289 0-9.578 4.289-9.578 9.578s4.289 9.578 9.578 9.578 9.578-4.289 9.578-9.578S21.289 6.422 16 6.422zm8.311 7.089l-3.756 3.111-.733-3.689v-.022l-.044-.222-.978-4.911a8.71 8.71 0 0 1 5.511 5.733zm-7.689 6.356l-3.644-1.244-.022-.111v-.022l-.756-3.8 3.022-2.644 3.8 1.289.778 3.933-3.022 2.667-.156-.067zm1.222-12.356l.978 4.844-3.8-1.289-.022.022-4.756-1.6a8.613 8.613 0 0 1 5.733-2.178c.644 0 1.267.067 1.867.2zm-8.288 2.667l4.689 1.578-2.711 2.356-4.089 3.4c-.089-.489-.133-1-.133-1.511a8.64 8.64 0 0 1 2.244-5.822zm-1.889 8.311l3.756-3.133.644 3.333.956 5.489c-2.556-.933-4.556-3.067-5.356-5.689zM14 24.444l-.844-4.822 3.822 1.311 4.689 1.644A8.7 8.7 0 0 1 16 24.688a8.523 8.523 0 0 1-2-.244zm8.378-2.555l-4.644-1.622 3.022-2.644v-.022l3.778-3.156c.089.489.133 1 .133 1.533a8.505 8.505 0 0 1-2.289 5.911z"/></svg>