<svg xmlns="http://www.w3.org/2000/svg" width="32" height="32" viewBox="0 0 32 32"><path d="M12.956 8.778l-6.622-2v16.244l6.622 2.2 6.089-2.022 6.622 2V8.956l-6.622-2.2-6.089 2.022zm-1.067.8l1.067.333L16.312 8.8l.044.222c.467 2.422-.267 4.778-2.222 7.156l-.067.089L11.334 16l.556-6.422zM7.4 8.222l3.444 1.044-.578 6.644-2.844-.244V8.222zm0 14.045v-5.533l5.844.511-.2.289c-1.356 1.889-2 3.733-1.978 5.667v.267l-3.667-1.2zm12.711.155l-1.067-.311-6.089 2.022-.8-.267v-.133c-.178-2.111.578-4.156 2.311-6.267l.067-.089 5.956.511-.378 4.533zM22.356 9l2.244.733v7.444l-2.933-.267.689-7.911zm2.244 9.244v5.533l-3.444-1.044.4-4.756 3.044.267zm-4-1.422l-5.222-.467.2-.289c1.778-2.444 2.378-4.889 1.822-7.444l-.044-.178 1.689-.556 2.267.756-.711 8.178z"/></svg>