<svg xmlns="http://www.w3.org/2000/svg" width="32" height="32" viewBox="0 0 32 32"><path d="M14.533 25.556a8.165 8.165 0 0 0 5.733-2.378h-1.511a7.032 7.032 0 0 1-4.222 1.4c-3.911 0-7.111-3.178-7.111-7.111 0-1.533.489-3 1.4-4.222v-1.511a8.165 8.165 0 0 0-2.378 5.733 8.09 8.09 0 0 0 8.089 8.089z"/><path d="M10.756 6.444v14.8h14.8v-14.8h-14.8zM14.2 20.267h-2.467V17.8H14.2v2.467zm0-3.445h-2.467v-2.489H14.2v2.489zm0-3.466h-2.467v-2.422l.156-.067a7.383 7.383 0 0 1 2.067-.489l.244-.022v3zm3.467 6.911H15.2V17.8h2.467v2.467zm0-3.445H15.2v-2.489h2.467v2.489zm0-3.466H15.2v-2.978l.267.044a6.71 6.71 0 0 1 2.067.6l.133.067v2.267zm3.955 4.688a7.206 7.206 0 0 1-.489 2.067l-.067.156h-2.422V17.8h3l-.022.244zm-.689-3.711l.067.133a6.89 6.89 0 0 1 .6 2.067l.044.267h-3v-2.467h2.289zm-2.289-.977v-1.711l.378.311c.378.311.711.644 1.022 1.022l.311.378h-1.711zm5.934 6.911h-2.444l.089-.311a8.09 8.09 0 0 0-10.2-10.2l-.311.089V7.423h12.844v12.844z"/></svg>