<svg xmlns="http://www.w3.org/2000/svg" width="32" height="32" viewBox="0 0 32 32"><path d="M14.178 18.689h8.267v-4.244h-8.267v4.244zm7.333-3.311v2.356h-6.4v-2.356h6.4z"/><path d="M6.222 7.822v17.467h.956V8.778h17.644v16.511h.956V7.822z"/><path d="M14.178 24.356h8.289v.956h-8.289v-.956zM14.178 21.044h8.289V22h-8.289v-.956zM9.556 24.356h2.333v.956H9.556v-.956zM9.556 21.044h2.333V22H9.556v-.956zM9.556 17.733h2.333v.956H9.556v-.956zM9.556 14.444h2.333v.956H9.556v-.956zM9.556 11.133h12.911v.956H9.556v-.956z"/></svg>