<svg xmlns="http://www.w3.org/2000/svg" width="32" height="32" viewBox="0 0 32 32"><path d="M7.222 16a8.744 8.744 0 0 1 3-6.6l.178-.156v1.444h.778V7.821H8.334v.778h1.622l-.2.178a9.55 9.55 0 0 0-3.311 7.222c0 5.244 4.222 9.511 9.444 9.556v-.778c-4.778-.067-8.667-3.978-8.667-8.778zM22.267 23.2a9.557 9.557 0 0 0 3.289-7.2c0-5.244-4.222-9.511-9.444-9.556v.778c4.8.044 8.667 3.978 8.667 8.778a8.744 8.744 0 0 1-3 6.6l-.178.156v-1.444h-.778v2.867h2.867v-.778h-1.622l.2-.2zM16.422 14.089H15.6v1.489h-1.511v.822H15.6v1.511h.822V16.4h1.489v-.822h-1.489z"/><path d="M16 9.422c-3.622 0-6.578 2.956-6.578 6.578s2.956 6.578 6.578 6.578c3.622 0 6.578-2.956 6.578-6.578S19.622 9.422 16 9.422zm5.244 4.156c.289.6.444 1.244.511 1.911v.111h-2.2v-.089a10.23 10.23 0 0 0-.222-1.867v-.133h1.889l.022.067zM18.4 10.733a5.87 5.87 0 0 1 2.267 1.844l.111.156h-1.644l-.022-.067c-.222-.689-.489-1.289-.822-1.778l-.2-.289.311.133zm-2-.466l.133.067c.689.289 1.311 1.111 1.733 2.267l.044.133h-1.911v-2.467zm-.933.066l.133-.067v2.467h-1.911l.044-.133c.422-1.156 1.044-1.978 1.733-2.267zm-4.134 2.245a5.75 5.75 0 0 1 2.267-1.844l.333-.156-.2.311a6.274 6.274 0 0 0-.822 1.778l-.022.067h-1.644l.089-.156zm-1.089 2.911c.067-.667.222-1.311.511-1.911l.022-.067h1.889l-.022.111c-.111.6-.2 1.222-.222 1.867v.089h-2.2l.022-.089zm.512 2.933c-.289-.6-.444-1.244-.511-1.911V16.4h2.2v.089c.022.644.089 1.267.222 1.867l.022.111H10.8l-.044-.044zm2.844 2.845a5.87 5.87 0 0 1-2.267-1.844l-.111-.156h1.644l.022.067c.222.689.489 1.289.822 1.778l.2.289-.311-.133zm2 .466l-.133-.067c-.689-.289-1.311-1.111-1.733-2.267l-.044-.133h1.911v2.467zm-2.133-3.244l-.022-.089a10.45 10.45 0 0 1-.244-1.911v-1a10.45 10.45 0 0 1 .244-1.911l.089.022h4.911l.089-.022c.133.6.222 1.244.244 1.911v1a10.45 10.45 0 0 1-.244 1.911l-.022.089h-5.044zm3.066 3.178l-.133.067v-2.467h1.911l-.044.133c-.422 1.156-1.044 1.978-1.733 2.267zm4.134-2.245a5.75 5.75 0 0 1-2.267 1.844l-.333.156.2-.289a6.274 6.274 0 0 0 .822-1.778l.022-.067h1.644l-.089.133zm1.089-2.911c-.067.667-.222 1.311-.511 1.911l-.022.067h-1.889l.022-.111c.111-.6.2-1.222.222-1.867v-.089h2.2l-.022.089z"/></svg>