<svg xmlns="http://www.w3.org/2000/svg" width="32" height="32" viewBox="0 0 32 32"><path d="M5.533 25.044h20.933l-2.978-6.267c-.156.267-.356.556-.533.8l2.2 4.622H6.844l2.2-4.622a8.23 8.23 0 0 1-.533-.8l-2.978 6.267z"/><path d="M16 6.067a8.289 8.289 0 1 0 0 16.578c4.578 0 8.289-3.711 8.289-8.289S20.556 6.067 16 6.067zm-6 3.866a7.342 7.342 0 0 1 2.911-2.356l.689-.311-.422.622c-.422.622-.778 1.378-1.044 2.244l-.044.156H9.757l.244-.356zm-1.422 3.778a6.791 6.791 0 0 1 .667-2.467l.067-.133h2.556l-.044.244a16.276 16.276 0 0 0-.289 2.356v.2H8.557l.022-.2zm.644 3.756A7.961 7.961 0 0 1 8.555 15l-.022-.222h2.956v.2c.022.822.133 1.622.289 2.356l.044.244H9.289l-.067-.111zm3.689 3.666A7.566 7.566 0 0 1 10 18.755l-.244-.333h2.333l.044.156c.267.867.622 1.622 1.044 2.244l.422.622-.689-.311zm2.667.645l-.289-.133c-.889-.378-1.711-1.444-2.244-2.933l-.111-.289h2.644v3.356zm0-4.178h-2.889l-.022-.178c-.178-.756-.267-1.578-.311-2.444v-.222H15.6V17.6zm0-3.667h-3.222v-.222c.044-.844.133-1.667.311-2.444l.044-.156H15.6v2.822zm0-3.644h-2.644l.111-.289c.533-1.489 1.356-2.556 2.244-2.933l.289-.133v3.356zm.844-3.356l.289.133c.889.378 1.711 1.444 2.244 2.933l.111.289h-2.644V6.932zm0 4.178h2.867l.044.156c.178.756.267 1.578.311 2.444v.222h-3.222v-2.822zm0 3.667h3.244V15c-.044.844-.133 1.667-.311 2.444l-.044.156h-2.889v-2.822zm.289 6.866l-.289.133v-3.356h2.644l-.111.289c-.533 1.489-1.356 2.556-2.244 2.933zM22 18.756a7.342 7.342 0 0 1-2.911 2.356l-.689.311.422-.622c.422-.622.778-1.378 1.044-2.244l.044-.156h2.333l-.244.356zM23.422 15a6.791 6.791 0 0 1-.667 2.467l-.067.133h-2.556l.044-.267c.156-.756.244-1.556.289-2.356v-.2h2.956v.222zm-.666-3.778c.356.778.578 1.622.667 2.467l.022.222h-2.956v-.2a13.59 13.59 0 0 0-.289-2.378l-.067-.222h2.556l.067.111zm-.512-.933h-2.333l-.044-.156c-.267-.867-.622-1.622-1.044-2.244l-.422-.622.689.311a7.502 7.502 0 0 1 2.911 2.356l.244.356z"/></svg>