<svg xmlns="http://www.w3.org/2000/svg" width="32" height="32" viewBox="0 0 32 32"><path d="M13.356 21.533a6.117 6.117 0 0 1-2.444-2l-.133-.178h1.489l-.467-.844H10.29l-.022-.067a6.21 6.21 0 0 1-.556-2.089v-.111h.889l-.467-.844h-.422v-.111l.067-.533-.6-1.133a7.357 7.357 0 0 0-.356 2.2 7.096 7.096 0 0 0 5.222 6.867l-.6-1.111-.089-.044zM15.533 13.756v1.622h-1.622v.867h1.622v1.644h.867v-1.644h1.644v-.867H16.4v-1.622z"/><path d="M15.4 21.978c-.133-.044-.244-.133-.378-.222l.644 1.178h.333c3.933 0 7.133-3.2 7.133-7.133s-3.222-7.133-7.156-7.133c-2.489 0-4.822 1.333-6.111 3.467l.533.978h1.978l-.022.133a11.982 11.982 0 0 0-.244 2.022v.111h-.489l1.6 2.956c-.133-.667-.2-2.178-.222-2.244v-.889c.022-.667.067-1.356.222-2.022l.022-.089h5.511l.022.089c.156.644.244 1.333.267 2.067.022.244.022.622 0 1.089a10.064 10.064 0 0 1-.267 2.067l-.022.089h-5.489l.467.844h1.822v2.689l-.156-.044zM12.6 12.2l-.022.067h-1.8l.133-.178a6.438 6.438 0 0 1 2.444-2l.356-.156-.222.311c-.356.556-.644 1.2-.889 1.956zm2.933.067h-2.089l.044-.156c.444-1.244 1.133-2.156 1.867-2.467l.156-.067v2.689zm6.711 4.089a6.187 6.187 0 0 1-.556 2.089l-.022.067h-2.044l.022-.133c.133-.644.222-1.333.244-2.022v-.111h2.378l-.022.111zm-.555-3.178a6.21 6.21 0 0 1 .556 2.089v.111h-2.378v-.111a11.713 11.713 0 0 0-.244-2.022l-.022-.133h2.044l.044.067zm-5.289-.911V9.578l.156.067c.733.311 1.422 1.222 1.889 2.467l.044.156H16.4zm2.044-2l-.222-.311.356.156a6.117 6.117 0 0 1 2.444 2l.133.178h-1.8l-.022-.067a6.92 6.92 0 0 0-.889-1.956zm.912 9.177l.022-.067h1.8l-.133.178a6.438 6.438 0 0 1-2.444 2l-.378.133.222-.311c.356-.533.667-1.2.911-1.933zm-2.956-.088h2.089l-.044.156c-.444 1.244-1.133 2.156-1.889 2.467l-.156.067v-2.689zM20.73 6.74l.731.422-.822 1.424-.731-.422.822-1.424zM23.564 8.907l.543.647-1.26 1.057-.543-.647 1.26-1.057zM25.741 12.718l-1.545.563-.289-.794 1.545-.563.289.794zM24.578 15.4h1.644v.844h-1.644V15.4z"/><path d="M22.333 19.489l2.4 4.467h-8.778l-.022-.067L7.2 7.667H16l.444.8c.356.022.689.067 1.044.133l-.978-1.8H5.777l9.667 18.022h10.733l-3.356-6.267c-.156.311-.311.644-.489.933z"/></svg>