<svg xmlns="http://www.w3.org/2000/svg" width="32" height="32" viewBox="0 0 32 32"><path d="M24.156 24.644H7.845V7.355h16.333v17.289zm-15.312-1h14.333V8.355H8.844v15.289z"/><path d="M21.733 20.733H10.044l3.622-4.844h.267c.178 0 .356.089.444.244l.867 1.378 2.444-3.089 4.044 6.311zm-9.689-1h7.867L17.6 16.111l-1.689 2.156c-.156.2-.4.333-.667.333a.887.887 0 0 1-.733-.4l-.6-.956-1.867 2.489zM13.178 15.511a1.959 1.959 0 0 1-1.956-1.956c0-1.089.889-1.956 1.956-1.956s1.956.889 1.956 1.956a1.973 1.973 0 0 1-1.956 1.956zm0-2.933c-.533 0-.956.422-.956.956s.422.956.956.956.956-.422.956-.956a.978.978 0 0 0-.956-.956z"/></svg>