<svg xmlns="http://www.w3.org/2000/svg" width="32" height="32" viewBox="0 0 32 32"><path d="M26.889 25.667h-3.178V8.911h-5.533v16.756h-4.022v-9.511H8.667v9.511h-4v-.889h3.111v-9.511h7.267v9.511h2.244V8.022H24.6v16.756h2.289z"/><path d="M21.844 6.333h.889v1.733h-.889V6.333zM19.333 6.333h.889v1.733h-.889V6.333zM9.578 17.333h3.444v.889H9.578v-.889zM9.578 19.689h3.444v.889H9.578v-.889zM9.578 22.2h3.444v.889H9.578V22.2zM9.578 24.778h3.444v.889H9.578v-.889zM19.311 17.333h3.444v.889h-3.444v-.889zM19.311 19.689h3.444v.889h-3.444v-.889zM19.311 22.2h3.444v.889h-3.444V22.2zM19.311 24.778h3.444v.889h-3.444v-.889zM19.311 9.933h3.444v.889h-3.444v-.889zM19.311 12.467h3.444v.889h-3.444v-.889zM19.311 15.022h3.444v.889h-3.444v-.889z"/></svg>