<svg xmlns="http://www.w3.org/2000/svg" width="32" height="32" viewBox="0 0 32 32"><path d="M5.556 18.511h1.156v4.911H5.556v-4.911zM8.822 18.511h1.156v4.911H8.822v-4.911zM12.067 18.511h1.156v4.911h-1.156v-4.911z"/><path d="M19.444 11.822h5.422v10.444h-4.289v-6.844h-4.111v-.244c0-2.711-2.022-5.044-4.711-5.4h-.156V8.422h-1.156v1.356l-.156.022c-2.711.356-4.733 2.689-4.733 5.4v1.378h7.667v-1.156H6.71v-.244a4.315 4.315 0 0 1 4.311-4.311c2.378.022 4.311 1.956 4.311 4.333v1.378h4.111v5.711h-2.978v-3.778h-1.133v4.911h9.533v2.067h1.156V6.511h-6.578v5.311zm1.156-1.333V7.645h4.267v3.022h-4.289v-.178z"/></svg>