<svg xmlns="http://www.w3.org/2000/svg" width="32" height="32" viewBox="0 0 32 32"><path d="M25.444 16.111c0-1.8-1.2-3.422-2.911-3.956l-.156-.044-.022-.156a3.478 3.478 0 0 0-3.422-2.822c-.156 0-.333.022-.556.044l-.178.022-.089-.156a4.89 4.89 0 0 0-4.2-2.333c-2.711 0-4.933 2.222-4.933 4.933 0 .178 0 .333.022.511l.022.2-.178.089c-1.4.711-2.289 2.111-2.289 3.689a4.127 4.127 0 0 0 3.6 4.089v-.889c-1.533-.267-2.711-1.622-2.711-3.2 0-1.111.556-2.133 1.489-2.733a2.983 2.983 0 0 1 1.111-.444 3.462 3.462 0 0 1-.2-1.178v-.044-.089a4.07 4.07 0 0 1 4.067-4.067c1.289 0 2.511.622 3.267 1.667.244.311.422.667.556 1.044.378-.2.778-.289 1.2-.289h.022c1.044 0 1.978.644 2.378 1.6.133.311.2.667.2 1 0 .089 0 .156-.022.244.422.022.822.133 1.2.311a3.263 3.263 0 0 1 1.867 2.933c0 1.6-1.178 2.956-2.733 3.222v.889c2.044-.244 3.6-2 3.6-4.089z"/><path d="M21.178 22.667l-.622-.6-1.578 1.556v-9.044h-.867v9.044l-1.556-1.556-.622.6 2.622 2.622zM16.067 16.044l-2.622-2.622-2.6 2.622.6.622 1.578-1.578v9.067h.867v-9.044l1.556 1.556z"/></svg>