<svg xmlns="http://www.w3.org/2000/svg" width="32" height="32" viewBox="0 0 32 32"><path d="M24.333 7.422a1.49 1.49 0 0 0-2.978 0c0 .133.022.289.067.422l-10.156 4.511a1.542 1.542 0 0 0-.933-.333 1.49 1.49 0 0 0-1.489 1.489c0 .644.422 1.2 1 1.4l-1.067 8.2a1.507 1.507 0 0 0-1.089 1.444 1.49 1.49 0 0 0 1.489 1.489c.711 0 1.311-.511 1.467-1.178l9.978-3.711c.222.133.489.222.778.222a1.49 1.49 0 0 0 1.489-1.489c0-.511-.267-.956-.644-1.222l1-9.844c.622-.133 1.089-.711 1.089-1.4zm-3.289 11.045l-1.578-4.111c.311-.267.489-.667.489-1.111 0-.333-.111-.644-.289-.889l2.644-3.111-.956 9.2c-.089-.022-.2 0-.311.022zm-9.866-3.711l1.911 2.4c-.111.222-.2.467-.2.733 0 .311.111.622.267.867L9.734 23.2c-.022-.022-.067-.022-.089-.022l1.067-8.2c.178-.044.333-.133.467-.222zm4.689 3.466c.022-.111.044-.222.044-.333 0-.222-.044-.444-.133-.622l2.378-2.556c.111.022.222.044.333.044.067 0 .133 0 .178-.022l1.6 4.2c-.111.133-.2.289-.267.444l-4.133-1.156zm-4.111-4.266l5.289-.244c.067.2.178.378.311.533l-2.2 2.378a1.481 1.481 0 0 0-.756-.2c-.244 0-.467.067-.667.156l-2-2.533c.022-.044.022-.067.022-.089zm6.711-.112c-.333 0-.6-.267-.6-.6s.267-.6.6-.6.6.267.6.6-.267.6-.6.6zM13.8 17.889c0-.333.267-.6.6-.6s.6.267.6.6c0 .333-.267.6-.6.6s-.6-.267-.6-.6zm5.156-6.067c-.156-.044-.311-.089-.467-.089-.667 0-1.244.444-1.444 1.067l-5.156.244 9.667-4.311-2.6 3.089zm-8.534 11.956l3.467-4.489c.156.067.333.089.511.089.378 0 .711-.133.978-.378l4.556 1.267.067.2-9.444 3.511-.133-.2zM22.844 6.8c.333 0 .6.267.6.6s-.267.6-.6.6-.6-.267-.6-.6.267-.6.6-.6zm-12.511 6.111c.333 0 .6.267.6.6s-.267.6-.6.6c-.333 0-.6-.267-.6-.6s.267-.6.6-.6zM9.156 25.2c-.333 0-.6-.267-.6-.6s.267-.6.6-.6c.333 0 .6.267.6.6.022.311-.267.6-.6.6zm12.222-4.667c-.333 0-.6-.267-.6-.6s.267-.6.6-.6c.333 0 .6.267.6.6s-.267.6-.6.6z"/></svg>