<svg xmlns="http://www.w3.org/2000/svg" width="32" height="32" viewBox="0 0 32 32"><path d="M14.756 19.822l2.044 5.556.133-.067v.178h8.622v-8.711l-9.978-2.844v-2.111h2.4l1.578-5.333h-4.867l-.244.889H18.4l-1.067 3.6h-1.756V9.135H12.11l.778-2.622H8.021l-1.578 5.333h3.933v7.378l-.889 1.556h1l.578-1h1.489v1h.867v-1h1.311l.022.044zm9.933 4.8h-6.911v-6.911h6.911v6.911zm-2.045-7.778h-5.733V23.2l-3.289-8.911 9.022 2.556zm-11.977-5.866H7.6l1.067-3.6h3.067l-1.067 3.6zm.577 7.911l.022-6.867.6-2.022h2.867v3.689l-1.511-.422-.622.689 1.8 4.933h-3.156z"/></svg>