<svg xmlns="http://www.w3.org/2000/svg" width="32" height="32" viewBox="0 0 32 32"><path d="M27.222 13.889a1.757 1.757 0 0 0-1.556-1.644l-7.644-.756c-.044-.6-.111-1.756-.289-2.933-.333-2.422-.756-3.533-1.489-3.689-.089-.044-.178-.089-.289-.089-.333 0-.578.267-.844.644-.467.689-.889 4.556-1.044 5.978l-7.956 1.133a1.634 1.634 0 0 0-1.4 1.733l.022.356a1.606 1.606 0 0 0 1.6 1.511l7.467-.111c.4 0 .733.311.733.711l.111 3.733c-2.267.444-3.533.911-3.778 1.422-.333.711-.178 1.311-.133 1.4.044.178.311.689 1.356.689.778 0 2.044-.022 2.689-.022.2.6.756 1.044 1.422 1.044a1.5 1.5 0 0 0 1.444-1.111l2.978-.067c.111 0 .511 0 .778-.311.133-.133.267-.378.244-.756-.044-.622-.156-1.022-.644-1.467-.089-.089-.356-.333-3.444-.889l-.022-3.489c0-.222.089-.444.244-.622a.872.872 0 0 1 .622-.244l7.2.022c.444 0 .867-.178 1.178-.489s.467-.756.444-1.2v-.489zm-1.111 1.044a.654.654 0 0 1-.489.2l-7.178-.022c-.489 0-.956.2-1.289.533-.333.356-.533.8-.533 1.289l.022 4.289.4.067c1.4.244 3.067.6 3.378.756.222.2.267.333.311.8v.022h-.066l-3.933.089.044.511v.067c0 .289-.244.511-.533.511s-.511-.222-.533-.511l.022-.556h-.511c-.2 0-2.067.022-3.111.044-.244 0-.4-.044-.444-.067-.022-.089-.022-.333.089-.622.311-.267 2.044-.733 3.489-1l.4-.067-.133-4.556a1.679 1.679 0 0 0-1.689-1.644l-7.467.111a.652.652 0 0 1-.644-.6v-.356a.68.68 0 0 1 .578-.711l8.711-1.244.044-.378c.267-2.844.689-5.533.911-5.911.044-.067.089-.111.111-.156.444.444.911 3.178 1.044 6.133l.022.422 8.467.844a.783.783 0 0 1 .689.733l.022.511a.68.68 0 0 1-.2.467z"/></svg>