<svg xmlns="http://www.w3.org/2000/svg" width="32" height="32" viewBox="0 0 32 32"><path d="M26.511 25.067l-2.778-2.822c.333-.6.533-1.311.533-2.067a4.255 4.255 0 0 0-1.422-3.156 8.49 8.49 0 0 0 .378-2.511c0-4.711-3.844-8.556-8.556-8.556S6.11 9.799 6.11 14.511s3.844 8.556 8.556 8.556c.733 0 1.422-.089 2.089-.267a4.23 4.23 0 0 0 3.289 1.578c.756 0 1.467-.2 2.089-.556l2.8 2.822 1.578-1.578zM8.444 9.933a7.691 7.691 0 0 1 2.978-2.422l.8-.378-.489.733c-.422.644-.778 1.4-1.067 2.289l-.044.178H8.155l.289-.4zm-1.488 3.911a7.786 7.786 0 0 1 .689-2.556l.067-.133h2.689l-.067.289a16.82 16.82 0 0 0-.289 2.422v.244H6.934l.022-.267zm.688 3.912c-.378-.8-.6-1.667-.689-2.556l-.022-.267h3.111v.244c.022.844.133 1.667.289 2.422l.067.289H7.711l-.067-.133zm3.8 3.777a7.602 7.602 0 0 1-3-2.422l-.289-.4h2.467l.044.178c.289.867.644 1.644 1.067 2.289l.489.733-.778-.378zm2.823.711l-.356-.156c-.911-.4-1.756-1.511-2.311-3.044l-.111-.333h2.778v3.533zm0-4.355h-3.022l-.044-.2a12.69 12.69 0 0 1-.311-2.511v-.267h3.378v2.978zm0-3.778h-3.4v-.267c.044-.889.156-1.733.311-2.511l.044-.2h3.022v2.978zm0-3.8h-2.8l.111-.333c.556-1.533 1.4-2.644 2.311-3.044l.356-.156v3.533zm7.422.978c.378.8.6 1.667.689 2.556l.022.267h-3.111v-.244A13.83 13.83 0 0 0 19 11.446l-.067-.289h2.689l.067.133zm.711 3.644l-.022.267a8.464 8.464 0 0 1-.222 1.311 4.186 4.186 0 0 0-2.933-.467l.067-.867v-.244h3.111zm-4.511-7.444a7.691 7.691 0 0 1 2.978 2.422l.289.4h-2.444l-.044-.156c-.289-.867-.644-1.644-1.067-2.289l-.489-.733.778.356zm-2.8-.689l.356.156c.911.4 1.756 1.511 2.311 3.044l.111.333h-2.778V6.8zm0 4.333h3l.044.2c.178.778.289 1.622.311 2.511v.267h-3.356v-2.978zm0 3.8h3.378v.267c-.022.378-.044.756-.089 1.133-.756.333-1.4.889-1.844 1.578h-1.422v-2.978zm.333 7.156l-.356.156v-3.533h1.022c-.178.444-.267.956-.267 1.467s.089 1.022.267 1.467c-.2.2-.422.333-.667.444zm4.622 1.622c-1.956 0-3.533-1.578-3.533-3.533s1.578-3.533 3.533-3.533a3.528 3.528 0 0 1 3.155 5.111l-.467.578c-.156.2-.333.378-.533.533l-.556.467a3.473 3.473 0 0 1-1.6.378zm3.245-.667l1.978 2-.333.356-1.978-2c.111-.111.222-.222.333-.356z"/></svg>