<svg xmlns="http://www.w3.org/2000/svg" width="32" height="32" viewBox="0 0 32 32"><path d="M6 25.644h20v-.911h-6l.089-.378c.022-.067.022-.111.022-.156 0-.378-.311-.689-.689-.689s-.689.311-.689.689c0 .044 0 .111.022.156l.089.378h-5.711l.089-.378c.022-.067.022-.111.022-.156 0-.378-.311-.689-.689-.689s-.689.311-.689.689c0 .044 0 .089.022.156l.089.378H5.999v.911zM21.689 16.533l.311-.489a7.213 7.213 0 0 0 1.044-5.133c-.6-3.422-3.556-5.889-7.044-5.889-.422 0-.844.044-1.244.111a7.113 7.113 0 0 0-4.622 2.933 7.185 7.185 0 0 0-1.267 4.778h.911c-.089-.889 0-1.8.289-2.644l.111-.311.311.111a8.19 8.19 0 0 0 1.733.444l.267.044.022.267c.022.667.111 1.333.222 2.022a13.27 13.27 0 0 0 1.022 3.333l.2.444h-3.511l-.289-1.533H7.911v.911H9.4l.044.244 1.178 6.289h10.556L23 16.554h-1.311zm.555-4.489a6.351 6.351 0 0 1-1.689 4.4l-.089.089h-1.178l.067-.378c.156-.844.2-1.778.156-2.778l-.022-.222.2-.089a9.354 9.354 0 0 0 2.044-1.267l.489-.422.022.667zm-1.555-4.022l.2.244a5.97 5.97 0 0 1 1 1.844l.067.178-.111.156c-.489.578-1.178 1.111-2.044 1.578l-.4.2-.067-.444c-.022-.089-.022-.133-.044-.2a13.985 13.985 0 0 0-.489-1.956l-.089-.244.222-.133a7.921 7.921 0 0 0 1.489-1l.267-.222zm-2.956-1.866c.733.2 1.4.533 2 1l.311.244-.311.244c-.311.267-.667.489-1.022.711l-.289.178-.133-.311a7.988 7.988 0 0 0-.889-1.556l-.533-.733.867.222zm.889 7.777a9.803 9.803 0 0 1-.222 2.356l-.044.244h-3.422l-.089-.156a10.141 10.141 0 0 1-.711-1.644l-.133-.4.422-.022c.644-.022 1.289-.089 1.933-.2s1.267-.267 1.867-.467l.4-.133v.422zM13.4 9.289c.044-.489.111-.933.2-1.333.267-1.111.756-1.844 1.311-1.956.778-.133 1.778.867 2.556 2.556l.133.311-.311.111c-.556.2-1.156.356-1.756.467s-1.222.156-1.822.156h-.333l.022-.311zm-.6-1.822c-.022.089-.044.2-.067.289-.111.422-.178.933-.222 1.467l-.044.333-.333-.067c-.4-.067-.8-.178-1.2-.311l-.378-.133.244-.356c.022-.044.044-.089.089-.111.4-.556.867-1.044 1.422-1.467l.733-.533-.244.889zm.956 5.955l-.044-.244c-.044-.2-.089-.378-.111-.578a11.505 11.505 0 0 1-.2-1.733l-.022-.333h.333c.644 0 1.333-.067 1.978-.178a10.495 10.495 0 0 0 1.911-.511l.311-.111.089.311c.156.533.289 1.111.4 1.689.044.2.067.4.089.578l.044.244-.244.111c-.667.244-1.378.422-2.111.556s-1.467.2-2.178.2h-.244zm6.777 8.111H11.4l-.778-4.089H21.8l-1.267 4.089z"/></svg>