<svg xmlns="http://www.w3.org/2000/svg" width="32" height="32" viewBox="0 0 32 32"><path d="M16 10.733c1.333 0 2.4-1.067 2.4-2.4s-1.067-2.4-2.4-2.4-2.4 1.067-2.4 2.4 1.067 2.4 2.4 2.4zm0-3.911c.822 0 1.511.667 1.511 1.511S16.844 9.844 16 9.844s-1.511-.667-1.511-1.511.689-1.511 1.511-1.511zM16.356 11.089h-.689a2.485 2.485 0 0 0-2.489 2.489v3.2h5.667v-3.2c-.022-1.356-1.133-2.489-2.489-2.489zm1.577 4.8h-3.867v-2.311c0-.889.711-1.6 1.6-1.6h.689c.889 0 1.6.711 1.6 1.6v2.311zM22.956 18.689c1.333 0 2.4-1.067 2.4-2.4s-1.067-2.4-2.4-2.4-2.4 1.067-2.4 2.4 1.067 2.4 2.4 2.4zm0-3.911c.822 0 1.511.667 1.511 1.511 0 .822-.667 1.511-1.511 1.511s-1.511-.667-1.511-1.511c0-.844.667-1.511 1.511-1.511zM23.289 19.044H22.6a2.485 2.485 0 0 0-2.489 2.489v3.2h5.667v-3.2a2.485 2.485 0 0 0-2.489-2.489zm1.6 4.8H21v-2.311c0-.889.711-1.6 1.6-1.6h.689c.889 0 1.6.711 1.6 1.6v2.311zM9.044 18.689c1.333 0 2.4-1.067 2.4-2.4s-1.067-2.4-2.4-2.4-2.4 1.067-2.4 2.4 1.089 2.4 2.4 2.4zm0-3.911c.822 0 1.511.667 1.511 1.511 0 .822-.667 1.511-1.511 1.511s-1.511-.667-1.511-1.511c0-.844.689-1.511 1.511-1.511zM9.4 19.044h-.689a2.485 2.485 0 0 0-2.489 2.489v3.2h5.667v-3.2A2.485 2.485 0 0 0 9.4 19.044zm1.6 4.8H7.111v-2.311c0-.889.711-1.6 1.6-1.6H9.4c.889 0 1.6.711 1.6 1.6v2.311zM16.444 17.933h-.889v2.378l-2.333 1.4.467.778 2.289-1.4 2.2 1.378.467-.733-2.2-1.422z"/></svg>