<svg xmlns="http://www.w3.org/2000/svg" width="32" height="32" viewBox="0 0 32 32"><path d="M23.444 6.067H8.555c-1.378 0-2.511 1.111-2.511 2.489v14.889a2.49 2.49 0 0 0 2.511 2.489h14.889a2.485 2.485 0 0 0 2.489-2.489V8.556c.022-1.378-1.111-2.489-2.489-2.489zm1.512 2.489v6.911H22.6a2.068 2.068 0 0 0-.578-1.2c-.422-.422-1-.644-1.756-.644-1.511 0-2.2.889-2.356 1.844h-1.4v-2.289c0-.156-.067-.311-.178-.422s-.267-.178-.422-.156c-.133 0-.6 0-.911-.311-.222-.222-.333-.556-.333-1.022s.111-.822.356-1.067c.333-.333.822-.333.933-.333a.637.637 0 0 0 .4-.156.536.536 0 0 0 .156-.4V7.067h6.933c.822 0 1.511.667 1.511 1.489zm-16.4-1.489h6.933v1.822c-.356.067-.822.222-1.2.6-.422.422-.644 1.022-.644 1.778s.222 1.333.644 1.756c.378.378.844.511 1.2.556v1.889h-2.378a.644.644 0 0 0-.644.644c0 .8-.467 1.2-1.333 1.2-1.133 0-1.378-.667-1.4-1.222 0-.333-.289-.6-.622-.6H7.09V8.557a1.456 1.456 0 0 1 1.467-1.489zM7.067 23.444v-6.978h1.689c.156.933.844 1.844 2.356 1.844 1.533 0 2.178-.889 2.311-1.844h2.067v1.956c0 .333.267.6.6.6.578 0 1.244.267 1.244 1.4 0 .467-.111.822-.333 1.044-.333.311-.822.311-.911.311-.156 0-.289.044-.4.156s-.178.244-.178.4v2.644H8.556a1.542 1.542 0 0 1-1.489-1.533zm16.377 1.512h-6.933v-2.222c.356-.044.8-.2 1.178-.556.444-.422.644-1 .644-1.756 0-1.533-.911-2.2-1.844-2.356v-1.6h1.733c.356 0 .622-.267.644-.622.022-.556.289-1.222 1.4-1.222.467 0 .822.111 1.022.333.289.311.311.756.311.889a.606.606 0 0 0 .6.6h2.733v6.978a1.5 1.5 0 0 1-1.489 1.533z"/></svg>