<svg xmlns="http://www.w3.org/2000/svg" width="32" height="32" viewBox="0 0 32 32"><path d="M18.378 21.756H6.6V7.312h11.778v1.111H7.711v12.222h10.667z"/><path d="M23.933 25.756h-3.667l-1.422-10.711-6.156-.222 1.844-2.6h6.533l.556.911.667-1.267 2.756.067v5.467l-1.089 1.378-.022 6.978zm-2.689-1.112h1.578l.022-6.267 1.089-1.378v-4l-.978-.022-1.267 2.4-1.244-2.067h-5.333l-.311.467 5.022.178 1.422 10.689zM21.644 11.333c-1.378 0-2.489-1.111-2.489-2.489s1.111-2.489 2.489-2.489 2.489 1.111 2.489 2.489-1.133 2.489-2.489 2.489zm0-3.866c-.756 0-1.378.622-1.378 1.378s.622 1.378 1.378 1.378 1.378-.622 1.378-1.378-.622-1.378-1.378-1.378z"/></svg>