<svg xmlns="http://www.w3.org/2000/svg" width="32" height="32" viewBox="0 0 32 32"><path d="M24.333 25.689V11.2l-4.889-4.889H7.666v19.4h16.667zm-6.2-4.645a21.175 21.175 0 0 0-.4 3.422v.267h-4.311l.022-.289c.089-1.244.4-2.444.933-3.578l.067-.156H18.2l-.067.333zm.334-1.311h-3.489l.311-.444a10.35 10.35 0 0 1 4.622-3.711l.933-.378-.622.8c-.689.956-1.267 2.133-1.689 3.533l-.067.2zm4.911 5h-4.667v-.289c.044-1.222.2-2.4.467-3.533l.044-.222h4.156v4.044zm0-5h-3.911l.133-.378c.8-2.356 2.044-3.956 3.4-4.422l.378-.133v4.933zM19.733 7.956l2.956 2.956h-2.956V7.956zM8.622 7.267h10.133v4.6h4.6v1.956l-.267.022c-5.667.378-10.222 4.933-10.6 10.622l-.022.267H8.622V7.267z"/><path d="M10.756 9.378h4.956v.956h-4.956v-.956zM10.756 12.444h4.956v.956h-4.956v-.956z"/></svg>