<svg xmlns="http://www.w3.org/2000/svg" width="32" height="32" viewBox="0 0 32 32"><path d="M25.489 7.644H8.667c-.622 0-1.111.511-1.111 1.111v1.444H6.512c-.622 0-1.111.511-1.111 1.111v11.911c0 .622.511 1.111 1.111 1.111h16.822c.622 0 1.111-.511 1.111-1.111v-1.444h1.044c.622 0 1.111-.511 1.111-1.111V8.777a1.105 1.105 0 0 0-1.111-1.133zm-2.045 15.578c0 .067-.044.111-.111.111H6.511c-.067 0-.111-.044-.111-.111V11.333c0-.067.044-.111.111-.111h7.667l-.044.022 2.178 2.533h7.133v9.444zm0-10.444h-6.667L15.444 11.2h7.889c.067 0 .111.044.111.111v1.467zm2.178 7.889c0 .067-.044.111-.111.111h-1.067v-9.444c0-.622-.511-1.111-1.111-1.111H8.555V8.779c0-.067.044-.111.111-.111h16.822c.067 0 .111.044.111.111v11.889z"/></svg>