<svg xmlns="http://www.w3.org/2000/svg" width="32" height="32" viewBox="0 0 32 32"><path d="M6.267 8.378v15.267h19.444V8.378H6.267zm18.666 3.489L20.377 17.8a2.706 2.706 0 0 0-.444-.222V9.134h5.022v2.733zM19.044 17.6a1.622 1.622 0 0 0-.578.311l-4.244-2.822c0-.067.022-.133.022-.222 0-.733-.511-1.333-1.2-1.489V9.156h6V17.6zm-6.977-1.289c.022.022.067.022.089.022v6.511H7.489l4.578-6.533zm.977.067c.311-.067.578-.244.8-.467l4.133 2.733a1.305 1.305 0 0 0-.067.422c0 .689.467 1.289 1.133 1.489v2.311h-6v-6.489zm-.888-7.222v4.289c-.622.2-1.067.778-1.067 1.467 0 .333.111.622.267.867l-4.311 6.133V9.156h5.111zm7.777 13.688v-2.289a1.553 1.553 0 0 0 1.133-1.489c0-.2-.044-.378-.111-.556l4-5.178v9.511h-5.022z"/></svg>