<svg xmlns="http://www.w3.org/2000/svg" width="32" height="32" viewBox="0 0 32 32"><path d="M6.889 16.533c0 3.578 2.289 5.467 3.644 6.289.822.489 4.711 2.8 5.178 3.089l.289.178.289-.178c.444-.267 4.356-2.578 5.178-3.089 1.356-.822 3.644-2.711 3.644-6.289V5.911H6.889v10.622zm1.155-9.289v-.2h15.933v1.933h-7.778v1.156h7.778v1.933h-7.778v1.156h7.778v1.867h-7.778v1.133h7.778v.333c0 .489-.044.978-.156 1.444l-.044.156h-7.578v1.156h7.156l-.156.289a5.939 5.939 0 0 1-1.333 1.578l-.044.044H16.2v1.156h3.867l-.6.356c-1.156.689-2.644 1.578-3.378 2l-.089.067-.089-.067c-.667-.4-4.022-2.4-4.778-2.844-1.4-.844-3.089-2.444-3.089-5.311V7.246z"/></svg>