<svg xmlns="http://www.w3.org/2000/svg" width="32" height="32" viewBox="0 0 32 32"><path d="M16.578 7.2l3.133 6.333L23.6 11.6l-3.133-6.333L16.578 7.2zm3.533 5.133L17.755 7.6l2.311-1.156.644 1.311-1.289.644.4.8 1.289-.644.356.733-1.289.644.4.8 1.289-.644.556 1.111-2.311 1.133zM26.089 8.4l-2.044-4.111L21.378 5.6l2.044 4.111L26.089 8.4zm-2.445-2.933L24.888 8l-1.067.533L22.577 6l1.067-.533zM18.311 12.222l-2.044-4.111L13.6 9.422l2.044 4.133 2.667-1.333zm-2.444-2.911l1.244 2.533-1.067.533L14.8 9.844l1.067-.533zM16.956 16.556c-.333-.333-.711-.622-1.111-.889s-.822-.489-1.267-.644a6.572 6.572 0 0 0-1.333-.378c-.4-.067-.8-.111-1.2-.111l.022.978c.333 0 .667.044 1 .089.4.067.778.178 1.156.333s.756.333 1.089.556c.356.222.667.489.956.778.289.267.533.578.756.911.178.289.356.578.489.889l.889-.378a6.904 6.904 0 0 0-.578-1.044 5.333 5.333 0 0 0-.867-1.089zM13.222 18.444c.2.089.4.178.6.311s.356.267.533.422c.156.156.289.333.422.511.089.133.178.267.244.422l.889-.378c-.089-.2-.2-.4-.333-.578-.156-.244-.333-.444-.533-.644s-.444-.378-.689-.556c-.244-.156-.511-.289-.778-.4s-.533-.178-.822-.222a3.422 3.422 0 0 0-.667-.067l.022.978c.156 0 .311.022.489.044.2.022.422.089.622.156zM13.067 20.822l-.822-.533-.533.822-4.067-2.644-.267.422C6 21 6.311 23.8 8.089 25.578c.8.8 1.622 1.222 2.867 1.489l.444.044a5.357 5.357 0 0 0 4.244-1.533c.267-.267.511-.556.711-.867l.267-.4-4.111-2.667.556-.822zm2.177 3.756l-.133.133a.67.67 0 0 1-.178.178c-1.444 1.444-3.756 1.689-5.467.578-1.8-1.156-2.489-3.511-1.6-5.467l.067-.178 7.311 4.756z"/></svg>