<svg xmlns="http://www.w3.org/2000/svg" width="32" height="32" viewBox="0 0 32 32"><path d="M16 6.222c-5.4 0-9.778 4.378-9.778 9.778S10.6 25.778 16 25.778 25.778 21.4 25.778 16 21.4 6.222 16 6.222zm-7.111 4.534a8.957 8.957 0 0 1 3.4-2.778l.911-.422-.556.844a10.208 10.208 0 0 0-1.222 2.622l-.067.2h-2.8l.333-.467zM7.2 15.222c.089-1.022.356-2 .778-2.911l.067-.156h3.067l-.067.333a18.527 18.527 0 0 0-.333 2.778v.267H7.156l.044-.311zm.756 4.467a8.99 8.99 0 0 1-.778-2.911l-.022-.311h3.556v.267c.044.956.156 1.889.333 2.778l.067.333H8.045l-.089-.156zm4.333 4.333a8.957 8.957 0 0 1-3.4-2.778l-.333-.444h2.822l.067.2c.311 1 .733 1.889 1.222 2.622l.556.844-.933-.444zm3.244.8l-.4-.178c-1.044-.444-2.022-1.711-2.644-3.467l-.133-.378h3.178v4.022zm0-4.955h-3.444l-.044-.222c-.2-.911-.333-1.867-.378-2.867l-.022-.289h3.867v3.378zm0-4.334h-3.889l.022-.289c.044-1 .156-1.978.378-2.867l.044-.222h3.444v3.378zm0-4.333h-3.2l.133-.378c.644-1.756 1.6-3.022 2.644-3.467l.4-.178v4.022zm8.489 1.111c.422.911.689 1.911.778 2.911l.022.311h-3.556v-.267a18.657 18.657 0 0 0-.333-2.778l-.067-.333h3.067l.089.156zm-4.333-4.333a8.854 8.854 0 0 1 3.422 2.778l.333.444h-2.822l-.067-.2c-.311-1-.733-1.889-1.222-2.622l-.556-.822.911.422zm-3.222-.8l.4.178c1.044.444 2.022 1.711 2.644 3.467l.133.378h-3.178V7.179zm0 4.955h3.444l.044.222c.2.911.333 1.867.378 2.867l.022.289h-3.889v-3.378zm0 4.334h3.867l-.022.289c-.044 1-.156 1.978-.378 2.867l-.044.222h-3.422v-3.378zm.4 8.177l-.4.178V20.8h3.178l-.133.378c-.644 1.756-1.6 3.022-2.644 3.467zm6.244-3.4a8.861 8.861 0 0 1-3.422 2.778l-.911.422.556-.844c.489-.733.911-1.622 1.222-2.622l.067-.2h2.822l-.333.467zm1.689-4.466a8.703 8.703 0 0 1-.778 2.911l-.067.156h-3.089l.067-.333c.178-.889.289-1.822.333-2.778v-.267h3.556l-.022.311z"/></svg>