<svg xmlns="http://www.w3.org/2000/svg" width="32" height="32" viewBox="0 0 32 32"><path d="M19.978 19.822V20h-1.444v-4.556h-4.2v4.2h1.089v-3.089h2.022v4.533h3.622v-7.067h2.022v7.067h1.089v-8.156h-4.2z"/><path d="M13.378 24.556l-.022-.156L12.2 12.2V12h1.133v-1.111h-1.222l-.022-.156-.311-3.089-.022-.2h1.578V6.355h-7.4v1.089H7.49l-.022.2-.289 3.089v.156H5.957V12H7.09l-.022.2-1.156 12.2-.022.156H4.868v1.089h19.289v-1.089H13.379zM11.6 17.489l.222 2.311.022.2H8.666l2.889-2.889.044.378zm-3.311-6.8L8.578 7.6l.022-.156h2.067l.022.156.289 3.089.022.2H8.267l.022-.2zm-.422 4.555l.289-3.089.022-.156h2.911l.022.156.289 3.089.022.2H7.844l.022-.2zm-.378 3.934l.222-2.467.022-.156h2.844l-3.133 3.133.044-.511zm-.533 5.689L7 24.356l.289-3.089.022-.156h3.4l-3.756 3.756zm5.111-.311H8.8l3.156-3.156.044.378.244 2.578.022.2h-.2zM21.067 8.378V6.8l-4.2 1.689v1.178l2.867-1.133.244-.111v1.578l4.2-1.689V7.134L21.334 8.29z"/></svg>