<svg xmlns="http://www.w3.org/2000/svg" width="32" height="32" viewBox="0 0 32 32"><path d="M22.622 7.533l-3.133-.044-.067 4.889 3.133.044.067-4.889zm-.955 3.978l-1.356-.022.044-3.111 1.356.022-.044 3.111zM13.289 7.4l-3.133-.044-.067 4.889 3.133.044.067-4.889zm-.933 4L11 11.378l.044-3.111 1.356.022-.044 3.111zM16.511 21.444a.444.444 0 1 1-.889 0 .444.444 0 0 1 .889 0zM15.844 20.756h.422L16.422 19h-.733z"/><path d="M18.889 20.689l-2.533-6.444 2.267.022.089-7.556-4.622-.044-.089 7.556 2.022.022-2.711 6.422c-3.778.933-6.244 3.489-6.356 3.6l.644.622c.022-.022 2.2-2.267 5.511-3.244l2.778 2.933 3.244-2.889c3.2.978 5.267 3.156 5.289 3.2l.644-.6c-.133-.156-2.489-2.644-6.178-3.6zM14.956 7.578l2.844.044-.022 1.622-1.578-.022-.022.889 1.578.022-.022.933-1.578-.022-.022.889 1.578.022-.022 1.4-2.8-.022.067-5.756zm.955 15.822l-1.889-2 2.133-5.333 1.978 5.356-2.222 1.978z"/></svg>