<svg xmlns="http://www.w3.org/2000/svg" width="32" height="32" viewBox="0 0 32 32"><path d="M16 22.711c-3.689 0-6.711-3-6.711-6.711 0-3.689 3-6.711 6.711-6.711 3.689 0 6.711 3 6.711 6.711 0 3.689-3.022 6.711-6.711 6.711zM16 10.4c-3.089 0-5.6 2.511-5.6 5.6s2.511 5.6 5.6 5.6c3.089 0 5.6-2.511 5.6-5.6s-2.511-5.6-5.6-5.6zM15.444 5.667h1.111v2.444h-1.111V5.667zM9.084 8.298l1.728 1.728-.786.786-1.728-1.728.786-.786zM5.667 15.444h2.444v1.111H5.667v-1.111zM10.027 21.187l.786.786-1.728 1.728-.786-.786 1.728-1.728zM15.444 23.889h1.111v2.444h-1.111v-2.444zM21.973 21.187l1.728 1.728-.786.786-1.728-1.728.786-.786zM23.889 15.444h2.444v1.111h-2.444v-1.111zM22.916 8.298l.786.786-1.728 1.728-.786-.786 1.728-1.728z"/></svg>