<svg xmlns="http://www.w3.org/2000/svg" width="32" height="32" viewBox="0 0 32 32"><path d="M15.956 24.533c1.733 0 3.333-.667 4.622-1.911 1.156-1.133 1.667-2.489 2.133-3.689.467-1.244.867-2.311 1.822-2.978a3.974 3.974 0 0 1 1.356-.556c-.089-.467-.222-.889-.444-1.244-.067-.111-.133-.222-.2-.311-.511-.689-1.244-1.111-2.156-1.222a5.459 5.459 0 0 0-2.156.156l-.111.044-.044-.156c-.333-2.089-1.867-3.8-3.844-4.422A6.8 6.8 0 0 0 15.112 8c-.956 0-1.978.178-3.289.378l-.4.067c-1.422.222-2.689.133-3.756-.267a4.488 4.488 0 0 1-1.2-.644 7.29 7.29 0 0 0-.289 1.378c-.022.133-.022.289-.044.422a7.083 7.083 0 0 0 1.978 5.333c.156-.422.356-.822.6-1.2a5.868 5.868 0 0 1-1.333-3.933v-.156l.133.044c1.222.378 2.644.467 4.111.222l.422-.067c1.311-.222 2.267-.356 3.067-.356.533 0 1 .067 1.444.2a4.32 4.32 0 0 1 3.022 3.778c.022.156.022.289.022.422 0 .4-.067.8-.178 1.178.533-.333 1-.578 1.467-.756.689-.244 1.356-.333 2.022-.244.556.067 1 .311 1.311.733l.067.111-.111.067c-1.556.867-2.133 2.4-2.644 3.756-.422 1.156-.867 2.333-1.822 3.267-1.067 1.044-2.311 1.578-3.733 1.578-.422 0-.867-.044-1.311-.156l-.089-.022v-1.8l.089-.022c.089-.022.2-.044.289-.044a4.534 4.534 0 0 0 3.556-4.378V16.8c0-.444-.067-.889-.2-1.333a4.363 4.363 0 0 0-1.422.089 4.634 4.634 0 0 0-.778.267l-.156.067v-.178a4.658 4.658 0 0 0-.956-3l-.044-.044a4.875 4.875 0 0 0-1-.911c-.111.089-.222.156-.333.244a5.535 5.535 0 0 0-.711.733c-.667.844-1 1.911-.956 3v.178l-.156-.067a5.688 5.688 0 0 0-.8-.267 4.405 4.405 0 0 0-1.422-.089c-.133.422-.2.867-.2 1.333v.089a4.58 4.58 0 0 0 3.556 4.378c.089.022.2.044.289.067l.089.022v2.711c.889.267 1.8.444 2.644.444zm1.2-7.733l.133-.044v.156a3.296 3.296 0 0 1-2.556 3.133l-.133.044v-.156a3.296 3.296 0 0 1 2.556-3.133zM13.2 20.044a3.338 3.338 0 0 1-2.556-3.133v-.156l.133.044a3.338 3.338 0 0 1 2.556 3.133v.156l-.133-.044zm.689-6.511l.089-.111.089.111c.911 1.2.911 2.867 0 4.044l-.089.111-.089-.111c-.911-1.2-.911-2.867 0-4.044z"/></svg>