<svg xmlns="http://www.w3.org/2000/svg" width="32" height="32" viewBox="0 0 32 32"><path d="M19.978 25.6H7V11.867h12.978V25.6zM7.8 24.8h11.378V12.667H7.8V24.8z"/><path d="M22.889 21.644h-1.444v-.8h.644V9.688H10.245v.533h-.8V8.888h13.444z"/><path d="M25.444 18.889h-1.556V18h.667V7.289H12.799v.6h-.889V6.4h13.533zM15.622 18.933a3.143 3.143 0 0 0-.822-.6c.422-.378.689-.933.689-1.533a2.01 2.01 0 1 0-4.022.066c0 .6.267 1.111.689 1.489a2.364 2.364 0 0 0-.822.6c-1.156 1.222-1.044 3.289-1.044 3.378l.022.356h6.311l.022-.356c.022-.111.133-2.178-1.022-3.4zM13.467 15.6c.689 0 1.244.533 1.244 1.222s-.533 1.244-1.222 1.244-1.244-.533-1.244-1.222.556-1.244 1.222-1.244zm-2.378 6.289c.022-.578.156-1.733.822-2.422.4-.422.911-.622 1.578-.622s1.178.2 1.578.622c.667.711.8 1.844.822 2.422h-4.8z"/></svg>