<svg xmlns="http://www.w3.org/2000/svg" width="32" height="32" viewBox="0 0 32 32"><path d="M24.044 23.667a9 9 0 0 1 1 1.956h1.067c-1.133-3.333-3.822-5.911-7.2-6.844l-.156-.044-2.089-7.822.311-.022c.311-.022.6-.067.889-.133s.6-.133.889-.222c.289-.089.578-.2.844-.311s.556-.244.8-.378a5.29 5.29 0 0 0 .756-.467c.178-.111.333-.244.489-.356l-.622-.8c-.133.111-.289.2-.422.311a6.886 6.886 0 0 1-.689.422c-.222.133-.467.244-.711.356s-.489.2-.756.267a5.647 5.647 0 0 1-.778.2c-.267.044-.533.089-.822.133a7.121 7.121 0 0 1-1.689 0 5.31 5.31 0 0 1-.822-.133c-.267-.044-.533-.133-.778-.2-.267-.089-.511-.178-.756-.267-.244-.111-.489-.222-.711-.356a7.198 7.198 0 0 1-.689-.422 5.174 5.174 0 0 1-.422-.311l-.644.778c.156.133.333.244.489.356.244.156.489.311.756.467l.8.4c.267.111.556.222.844.311s.6.178.889.222c.289.067.578.111.867.133l.311.022-2.089 7.822-.156.044a10.674 10.674 0 0 0-7.2 6.844h1.067c.267-.689.6-1.333 1-1.956L8 23.556h3l-.156.511c-.089.289-.156.6-.222.911-.044.2-.089.422-.133.644h1.067c.022-.156.067-.289.089-.422.067-.289.133-.578.222-.867.067-.2.111-.4.178-.6l.067-.178h3.4v2.067h1v-2.067h3.4l.067.178c.067.222.133.4.178.6.089.289.156.578.222.867.022.133.067.289.089.422h1.022c-.044-.222-.089-.422-.133-.644-.067-.311-.156-.622-.222-.911l-.156-.511h3l.067.111zm-11.822-2.734c-.133.222-.267.444-.4.689s-.244.489-.356.756l-.067.156-.178.022H8.777l.489-.467A9.102 9.102 0 0 1 12.11 20.2l.889-.4-.556.778c-.067.111-.133.222-.222.356zm3.289 1.6h-3.044l.244-.467c.111-.222.222-.422.356-.622.111-.2.244-.378.378-.556s.267-.333.4-.467c.133-.133.267-.267.4-.378s.289-.222.422-.311.289-.156.422-.222l.378-.178v3.2zm-.778-4.089l-.4.044L16 12.31l1.667 6.178-.422-.044a9.508 9.508 0 0 0-2.511 0zm1.778 4.089v-3.178l.4.2c.133.044.267.111.4.2s.289.178.422.289a4.401 4.401 0 0 1 .822.845c.133.178.244.356.378.556s.244.4.356.622l.244.467h-3.022zm4.111 0l-.111-.178c-.111-.267-.222-.511-.356-.756s-.267-.489-.4-.689c-.067-.111-.156-.222-.222-.333l-.533-.8.889.4c1.067.467 2 1.111 2.844 1.889l.489.467h-2.6zM16 6.378a.868.868 0 0 0 0 1.734.868.868 0 0 0 .867-.867c0-.467-.4-.867-.867-.867z"/></svg>