<svg xmlns="http://www.w3.org/2000/svg" width="32" height="32" viewBox="0 0 32 32"><path d="M27.289 18.556c-3.422-.578-4.089-6.956-4.222-8.622v-.556a.38.38 0 0 0-.267-.356.37.37 0 0 0-.422.111s-.311.356-.689.356c-.222 0-.467-.133-.711-.378C20.889 9 20.734 8.978 20.6 9c-.044 0-.067-.022-.111-.022-.222 0-.378.178-.378.4 0 .044.089 4.089-1.778 5.978-.644.667-1.422.978-2.378.978-1.089 0-1.978-.356-2.644-1.089-1.8-1.933-1.511-5.822-1.511-5.867a.38.38 0 0 0-.356-.422c-.044 0-.089 0-.133.022a.329.329 0 0 0-.378.133s-.311.356-.689.356c-.178 0-.356-.067-.533-.222a.36.36 0 0 0-.356-.267h-.066c-.067 0-.111 0-.178.022a.38.38 0 0 0-.244.356v1.067c-.222 2.311-1.089 7.644-4.156 8.178-.022 0-.022 0-.044.022h-.022c-.022 0-.022.022-.044.022 0 0-.022 0-.022.022-.022 0-.022.022-.022.022l-.022.022-.022.022-.022.022c0 .022-.022.022-.022.044l-.022.022c0 .022 0 .022-.022.044 0 .022 0 .022-.022.044V19.041a.17.17 0 0 0 .044.111v.022a.294.294 0 0 0 .067.089l.022.022c.022.022.067.044.111.067h.022c.044.022.089.022.133.022h4.089v3.2c0 .222.178.4.4.4h1.978c.222 0 .4-.178.4-.4v-3.178h8.689v3.2c0 .222.178.4.4.4h1.978c.222 0 .4-.178.4-.4v-3.2h4.089a.391.391 0 0 0 .333-.178c.067-.044.089-.133.111-.2-.022-.222-.178-.422-.378-.467zm-1.756.066h-2.467v-4.133c.489 1.622 1.244 3.222 2.467 4.133zm-3.244-8.466v8.467h-1.2v-8.467c.422.178.867.156 1.2 0zm-9.533 5.666c.822.889 1.889 1.333 3.2 1.333 1.156 0 2.156-.4 2.933-1.222.667-.689 1.111-1.6 1.4-2.511v5.2h-8.667v-4.756c.267.711.622 1.4 1.133 1.956zm-1.912-5.666v8.467h-1.2v-8.089c.022-.133.022-.267.022-.378.4.178.844.133 1.178 0zm-1.977 4.488v3.978H6.534c1.133-.911 1.867-2.422 2.333-3.978zm1.977 7.556h-1.2v-2.8h1.2v2.8zm11.445 0h-1.2v-2.8h1.2v2.8z"/></svg>