<svg xmlns="http://www.w3.org/2000/svg" width="32" height="32" viewBox="0 0 32 32"><path d="M13.911 21.489a7.449 7.449 0 0 0 3.578-.911l.222-.111 5.2 5.2 2.756-2.756-5.2-5.2.111-.222c.6-1.089.911-2.333.911-3.578 0-4.178-3.4-7.578-7.578-7.578s-7.578 3.4-7.578 7.578c0 4.178 3.4 7.578 7.578 7.578zm10.556 1.422l-1.556 1.556L18.444 20l.289-.222a7.744 7.744 0 0 0 1.044-1.044l.222-.289 4.467 4.467zM13.911 7.178c3.711 0 6.733 3.022 6.733 6.733s-3.022 6.733-6.733 6.733-6.733-3.022-6.733-6.733 3.022-6.733 6.733-6.733z"/></svg>