<svg xmlns="http://www.w3.org/2000/svg" width="32" height="32" viewBox="0 0 32 32"><path d="M23.333 10.533v-.444l-1.2.044c.356-1.022.933-3.156.822-5.511l-.022-.556-.533.156c-.133.044-3 .867-5.578 3.533l-.511-1.467-.489.489c-.311.289-2.622 2.622-3.244 4.578l-.956-.933-.311.4C11.178 11 8.222 15 8.755 18.378c.178 1.2.778 2.178 1.778 2.911l.511.378.178-.6c0-.044.911-3.067 3.489-6.289-1.156 2.511-2.6 6.578-3.422 12.356l-.022.2.133.156c.044.044.4.422 1.044.422.356 0 .711-.111 1.089-.356l.178-.111.022-.2c.222-1.667.6-3.6.844-4.222.133 0 .289.022.467.022 1.533 0 6.6-.489 7.822-6.622l.111-.533h-1.356c.667-1.022 1.756-3 1.711-5.356zm-1.489 6.245c-1.222 4.844-5.156 5.378-6.844 5.378l-.978.044c-.489.4-.911 2.733-1.178 4.689-.267.133-.533.133-.667.067.756-5.156 2.044-8.867 3-11.089 1.044-2.422 1.911-3.644 1.911-3.644l2.489-3.4-3.133 2.8c-3.667 3.289-5.333 7.067-5.889 8.556a3.414 3.414 0 0 1-.956-1.933c-.378-2.422 1.4-5.4 2.111-6.489l1.622 1.6-.044-1.111c-.044-1.178 1.578-3.2 2.622-4.311l.533 1.556.511-.578a13.377 13.377 0 0 1 5.111-3.622c-.022 2.756-1 5.133-1 5.156l-.267.644 1.644-.067c-.133 2.8-2.044 5.022-2.067 5.044l-.644.733h2.111z"/></svg>