<svg xmlns="http://www.w3.org/2000/svg" width="32" height="32" viewBox="0 0 32 32"><path d="M19.956 15.533c0-.489-.4-.911-.911-.911s-.911.4-.911.911c0 .489.4.911.911.911s.911-.422.911-.911z"/><path d="M6.222 5.756v19.556h19.556V5.756H6.222zm1.111 4.111v-3h7.378l-.022.2-.022.467v.044c-.044.422-.067.844-.111 1.311-.044.578-.222 1.111-.511 1.644l-.044.089h-.111l-6.378-.556-.178-.044v-.156zm1.978 9.422l-.422 4.756-.022.178H7.334v-5.311l.2.022 1.622.133.178.022-.022.2zm.133-1.489l-.022.178-.178-.022-1.756-.156h-.156v-6.644l.2.022 5.333.467.378.022-.244.267c-.267.289-.556.578-.844.867-1.222 1.222-2.467 2.489-2.644 4.444l-.067.556zm8.089 6.4H10l.022-.2.4-4.622.022-.178.178.022 5.489.489h.111l.044.111c.444 1.289.978 2.8 1.444 4.156l.089.244h-.267zm1.711-.222l-.178.511-.178-.511-.111-.311c-.8-2.333-2.2-6.333-2.467-7.133l-.022-.067a2.93 2.93 0 0 1 2.777-3.866 2.912 2.912 0 0 1 2.911 2.933c0 .311-.044.622-.156.933-.133.422-1 2.911-2.489 7.2l-.089.311zm5.423-3.378v3.6h-4.333l.089-.244c.422-1.2.867-2.489 1.267-3.644l.044-.133.133.022 2.622.222.178.022v.156zm0-13.556v12.267l-.2-.022-2.378-.2.067-.222c.4-1.156.644-1.844.711-2.044.133-.422.2-.844.2-1.289 0-2.222-1.8-4.044-4.022-4.044s-4.022 1.8-4.022 4.044c0 .444.067.867.2 1.289l.022.089c.067.222.244.733.467 1.378l.089.267-.244-.044-4.822-.422-.178-.022.022-.178.044-.556c.133-1.556 1.2-2.622 2.333-3.756 1.2-1.2 2.556-2.556 2.733-4.622.044-.489.089-.911.111-1.333l.022-.267.022-.311.022-.178h8.822v.178z"/></svg>