<svg xmlns="http://www.w3.org/2000/svg" width="32" height="32" viewBox="0 0 32 32"><path d="M23.889 22.844l-4.222-4.289-.756.711 3.489 3.578-1.089 1.044-3.467-3.556-.778.733 4.244 4.311z"/><path d="M19.978 16.133l2.4-2.333 1.689 1.711 2.822.044-.089-.6c-.289-2.044-1.222-3.889-2.644-5.356a9.65 9.65 0 0 0-4.533-2.622l-.267-.067-1.889 1.844 2.422 2.444-3.8 3.711-1.8 1.778-6.333 6.156 2.467 2.556 9.556-9.267zm-1.045-7.377l.711-.689.089.022a8.776 8.776 0 0 1 3.667 2.222c1.067 1.111 1.844 2.467 2.2 3.956l.044.2-1.133-.022-3.933-4.022-1.644-1.667zm1.689 3.2l1.044 1.067-11.2 10.889-1.044-1.067 11.2-10.889z"/><path d="M14.311 14.556l.756-.733-2.844-2.889 2.489-2.422-1.822-1.889-.267.067c-1.711.4-3.333 1.267-4.578 2.489a9.797 9.797 0 0 0-2.778 5.311l-.156.6 2.8.022 1.711-1.689 2.822 2.889.756-.733-2.822-2.867 1.067-1.044 2.867 2.889zm-6.822-.467l-1.133-.022.067-.2a8.625 8.625 0 0 1 2.289-3.911 8.752 8.752 0 0 1 3.711-2.133l.089-.022.689.711L7.49 14.09z"/></svg>