<svg xmlns="http://www.w3.org/2000/svg" width="32" height="32" viewBox="0 0 32 32"><path d="M21.111 7.289l-.378.111zM20.667 25.067l-.044-.133-3.511-9.489-.067-.2.2-.067 3.422-.978.178-.044.044.178.689 2.4 2.733 1.511.244-.644c.8-2.156.889-4.467.244-6.667a10.703 10.703 0 0 0-3.067-4.956l-.244-.222-2.822.822 1.022 3.533.044.178-.178.067L6.91 13.978l1.089 3.844 6.733-1.933-.133.356-3.2 8.667-.044.133H5.777v1.156h20.444v-1.156h-5.556zm-.378-17.734l.778-.222.111-.022.089.089a9.545 9.545 0 0 1 2.422 4.111c.467 1.667.489 3.4.067 5.067l-.067.244-.222-.111-.822-.444-.067-.044-.022-.067-1.067-3.711-.644-2.244-.044-.133-.644-2.289-.044-.178.178-.044zm-11.311 9l-.178.044-.044-.178-.356-1.244-.044-.178.178-.044 11.533-3.289.044.178.356 1.244.044.178-.178.044-11.356 3.244zm6.444 2.111v6.644h-2.867l.089-.267 2.756-7.467v1.089zm3.734 6.623h-2.578v-7.711l.378 1.022 2.378 6.444.089.267h-.267z"/></svg>