<svg xmlns="http://www.w3.org/2000/svg" width="32" height="32" viewBox="0 0 32 32"><path d="M20.311 11.911a.285.285 0 0 1-.222-.222C19.422 8.4 16.489 6 13.111 6 9.178 6 6 9.2 6 13.111c0 3.356 2.4 6.289 5.689 6.978.111.022.2.111.222.222.667 3.289 3.6 5.689 6.978 5.689C22.822 26 26 22.8 26 18.889c0-3.378-2.4-6.311-5.689-6.978zM20 16.444c0 .622-.511 1.111-1.111 1.111s-1.111-.511-1.111-1.111c0-.622.511-1.111 1.111-1.111S20 15.822 20 16.444zm3.311 6.756a6.172 6.172 0 0 1-4.422 1.867 6.133 6.133 0 0 1-4.422-1.867.27.27 0 0 1-.022-.356l1.289-1.933c.044-.067.133-.133.222-.133h5.867c.089 0 .178.044.222.133l1.289 1.933c.089.111.067.244-.022.356zm.756-1.2c-.089 0-.2-.044-.244-.133l-1.356-2.022h-7.178l-1.356 2.022a.243.243 0 0 1-.222.133h-.022c-.089 0-.178-.067-.222-.156a6.056 6.056 0 0 1-.756-2.978c0-.622.089-1.222.267-1.8H12a6.376 6.376 0 0 0-.222 1.733c0 .089-.044.178-.111.222s-.156.067-.244.044a6.015 6.015 0 0 1-2.711-1.644.27.27 0 0 1-.022-.356l1.289-1.933c.044-.067.133-.133.222-.133h5.533v-.933h-6.2l-1.356 2.022c-.044.089-.156.133-.244.133s-.178-.067-.222-.156a6.056 6.056 0 0 1-.756-2.978 6.18 6.18 0 0 1 6.178-6.178 6.18 6.18 0 0 1 6.067 7.356c0 .156-.133.267-.289.267h-.022-.022c-1.022 0-1.867.844-1.867 1.867s.844 1.867 1.867 1.867 1.867-.844 1.867-1.867c0-.533-.222-1.022-.622-1.378-.067-.044-.089-.133-.089-.2 0-.022 0-.044.022-.089a9.297 9.297 0 0 0 .2-1.556c0-.089.044-.178.111-.222s.156-.067.244-.044a6.188 6.188 0 0 1 4.467 5.933 6.305 6.305 0 0 1-.756 2.978c-.067.111-.133.178-.244.178z"/><path d="M13.111 8.822c-1.022 0-1.867.844-1.867 1.867s.844 1.867 1.867 1.867a1.878 1.878 0 0 0 1.867-1.867 1.85 1.85 0 0 0-1.867-1.867zm0 2.978A1.114 1.114 0 0 1 12 10.689c0-.622.511-1.111 1.111-1.111.622 0 1.111.511 1.111 1.111.022.6-.489 1.111-1.111 1.111z"/></svg>