<svg xmlns="http://www.w3.org/2000/svg" width="32" height="32" viewBox="0 0 32 32"><path d="M24.578 21.222v.178h-4.644v1.089h5.733V11.2h-7.156l-.044-.133c-.667-2.778-3.156-4.711-6.022-4.711-3.311 0-6.022 2.644-6.111 5.933h1.089a5.021 5.021 0 0 1 5.022-4.822c2.222 0 4.178 1.4 4.867 3.489l.089.244h-6.022v8.378h1.089v-7.289h5.133l.022.156c.289 1.756.4 2.822.556 4.067l.022.2h-1.533l.289 4.489.022.2H11.09l1.711 4.244h1.2l-1.178-2.889-.111-.244h5.4l-.289-4.489-.022-.2h1.6l-.111-.978a83.32 83.32 0 0 0-.578-4.333l-.044-.222h5.867v8.933z"/></svg>