<svg xmlns="http://www.w3.org/2000/svg" width="32" height="32" viewBox="0 0 32 32"><path d="M15.911 14.244H16a4.378 4.378 0 0 0 4.289-4.489 4.382 4.382 0 0 0-4.378-4.289h-.089a4.378 4.378 0 0 0-4.289 4.489 4.382 4.382 0 0 0 4.378 4.289zm-.067-7.666h.067c1.778 0 3.244 1.444 3.267 3.2.044 1.822-1.4 3.333-3.2 3.356h-.067c-1.778 0-3.244-1.444-3.267-3.2a3.278 3.278 0 0 1 3.2-3.356zM22.756 15.867l-5.4.111-1.244 2.133-1.311-2.089-5.422.111-2.889 7 1.022.422 2.622-6.333 4.067-.089L15.49 19.2l-1.733 4.6 2.533 3.756 2.378-3.822-1.911-4.489 1.267-2.178L22.002 17l2.467 6.2 1.022-.422-2.733-6.911zm-6.512 9.644l-1.222-1.822 1.133-3 1.267 2.956-1.178 1.867z"/></svg>