<svg xmlns="http://www.w3.org/2000/svg" width="32" height="32" viewBox="0 0 32 32"><path d="M8.222 19.8l.244.022.022.244c.022.422.222.822.511 1.133.311.311.711.489 1.133.511l.244.022.022.244c.022.422.222.822.511 1.133.311.311.711.489 1.133.511l.244.022.022.244c.022.422.2.844.511 1.133.333.333.778.511 1.244.511s.911-.178 1.244-.511l.756-.756.778.778c.333.333.756.489 1.2.489a1.678 1.678 0 0 0 1.689-1.556l.022-.244.244-.022c.4-.044.778-.2 1.067-.489s.467-.644.489-1.067l.022-.244.244-.022c.4-.044.778-.2 1.067-.489s.467-.644.489-1.067l.022-.244.244-.022c.4-.044.778-.2 1.067-.489.333-.311.489-.756.489-1.2 0-.422-.156-.822-.422-1.133l-1.356-1.356.156-.2a5.733 5.733 0 0 0-.445-7.577 5.697 5.697 0 0 0-4.044-1.667 5.662 5.662 0 0 0-3.356 1.089l-.178.133-.178-.133a5.66 5.66 0 0 0-3.356-1.089c-1.533 0-2.956.6-4.044 1.667a5.644 5.644 0 0 0-1.667 4.044c0 1.356.467 2.644 1.333 3.667l.178.2-.756.756c-.333.333-.511.778-.511 1.244s.178.911.511 1.244c.333.333.711.511 1.156.533zm2.578.889a.857.857 0 0 1-.556.2c-.244 0-.489-.089-.667-.267s-.267-.4-.267-.667c0-.222.067-.422.2-.578l.044-.044.311-.333.067-.067 1.6-1.578c.378-.289.933-.244 1.244.067.178.178.267.4.267.667 0 .2-.067.378-.156.533V18.6l-2.089 2.089zm1.911 1.911a.976.976 0 0 1-.556.178c-.244 0-.489-.089-.667-.267s-.267-.4-.267-.667c0-.244.089-.489.267-.644l1.911-1.911c.178-.178.4-.267.644-.267s.489.089.667.267c.178.178.267.4.267.667 0 .2-.067.378-.156.533L12.71 22.6zm3.378.489l-1.444 1.444a.976.976 0 0 1-.556.178c-.244 0-.489-.089-.667-.267s-.267-.4-.267-.667c0-.244.089-.489.267-.667l1.911-1.911a.905.905 0 0 1 .667-.267c.244 0 .489.089.667.267s.267.4.267.667c0 .2-.067.378-.156.533l-.689.689zm2.844.755c0 .222-.089.444-.244.6a.856.856 0 0 1-1.2 0l-.778-.778.556-.556c.133-.133.244-.289.333-.467l.178-.356 1.2 1.2-.089.067c.022.089.044.2.044.289zM15.644 8.711a4.879 4.879 0 0 1 3.444-1.422c1.311 0 2.533.511 3.444 1.422.378.378.667.778.911 1.244l.111.222-.2.156a4.685 4.685 0 0 1-1.933.822 6.12 6.12 0 0 1-.911.067 4.662 4.662 0 0 1-2.778-1l-.444-.444-2.311 2.267a2.304 2.304 0 0 1-1.644.689 2.39 2.39 0 0 1-.956-.2l-.378-.178 3.644-3.644zm-8.466 3.445c0-1.311.511-2.533 1.422-3.444s2.156-1.422 3.444-1.422c.911 0 1.8.267 2.578.733l.311.2-4.111 4.133.289.289c.6.6 1.378.933 2.222.933s1.622-.333 2.222-.911l1.733-1.711.2.133a5.366 5.366 0 0 0 3 .978c.356 0 .733-.022 1.089-.089a5.545 5.545 0 0 0 1.911-.711l.378-.222.067.444c.022.222.044.467.044.689a4.862 4.862 0 0 1-.933 2.867l-.2.267-1.311-1.311a6.005 6.005 0 0 1-1.089.044H20.4l3.778 3.8a.862.862 0 0 1-.044 1.156.856.856 0 0 1-1.2 0l-4.8-4.778c-.156-.133-.444-.133-.578.022-.089.089-.133.178-.133.289s.044.222.133.289l4.756 4.756a.857.857 0 0 1 0 1.2.857.857 0 0 1-1.2 0l-4.778-4.733a.501.501 0 0 0-.6 0c-.156.156-.156.422 0 .6l4.756 4.756a.872.872 0 0 1 .244.622c0 .222-.089.444-.244.6a.856.856 0 0 1-1.2 0l-2.022-2.022a1.724 1.724 0 0 0-1.133-.511l-.244-.022-.022-.244c-.022-.422-.2-.822-.511-1.133s-.711-.489-1.133-.511l-.244-.022-.022-.244c-.022-.422-.222-.822-.511-1.133a1.671 1.671 0 0 0-1.111-.511l-.244-.022-.067-.244c-.022-.422-.222-.822-.511-1.133-.333-.333-.778-.511-1.244-.511s-.911.178-1.244.511l-.578.578-.2-.244c-.689-.889-1.067-1.933-1.067-3.044zm.511 5.222L9.6 15.467a.905.905 0 0 1 .667-.267c.244 0 .489.089.667.267s.267.4.267.667c0 .2-.067.378-.156.533l-2.111 2.111a.976.976 0 0 1-.556.178c-.244 0-.489-.089-.667-.267s-.267-.4-.267-.667a.82.82 0 0 1 .244-.644z"/></svg>