<svg xmlns="http://www.w3.org/2000/svg" width="32" height="32" viewBox="0 0 32 32"><path d="M5.822 14.044l-.756-.822c.178-.156 4.356-3.889 8.111-2.467.822.311 1.533.6 2.178.867 2.111.867 3.378 1.4 5.422 1.267 2.644-.178 5.378-2.733 5.4-2.778l.756.8c-.111.111-3.044 2.867-6.089 3.089-2.289.156-3.822-.467-5.911-1.356a67.051 67.051 0 0 0-2.133-.867c-3.156-1.178-6.933 2.222-6.978 2.267z"/><path d="M5.822 17.956l-.756-.822c.178-.156 4.356-3.889 8.111-2.467.822.311 1.533.6 2.178.867 2.111.867 3.378 1.4 5.422 1.267 2.644-.178 5.378-2.733 5.4-2.778l.756.8c-.133.111-3.044 2.867-6.089 3.067-2.289.156-3.822-.467-5.911-1.356a67.051 67.051 0 0 0-2.133-.867c-3.133-1.133-6.933 2.267-6.978 2.289z"/><path d="M5.822 21.889l-.756-.822c.178-.156 4.356-3.889 8.111-2.467.822.311 1.533.6 2.178.867 2.111.867 3.378 1.4 5.422 1.267 2.644-.178 5.378-2.733 5.4-2.778l.756.8c-.133.111-3.044 2.867-6.089 3.067-2.289.156-3.822-.467-5.911-1.356A67.051 67.051 0 0 0 12.8 19.6c-3.156-1.133-6.933 2.267-6.978 2.289z"/></svg>