<svg xmlns="http://www.w3.org/2000/svg" width="32" height="32" viewBox="0 0 32 32"><path d="M16 7.822c-5.156 0-9.333 4.178-9.333 9.333s4.178 9.333 9.333 9.333 9.333-4.178 9.333-9.333c0-5.133-4.178-9.333-9.333-9.333zm0 17.556c-4.533 0-8.222-3.689-8.222-8.222S11.467 8.934 16 8.934s8.222 3.689 8.222 8.222c0 4.533-3.689 8.222-8.222 8.222z"/><path d="M15.689 16.711l.067-5.956-1.111-.022-.111 8.867 6.422-6.978-.822-.733zM14.6 6.867h1.111V5.734h1.311V4.623H13.2v1.111h1.4zM23.734 7.661l.809.762-1.218 1.295-.809-.762 1.218-1.295z"/></svg>