<svg xmlns="http://www.w3.org/2000/svg" width="32" height="32" viewBox="0 0 32 32"><path d="M6.644 6.489v18.578h18.578V6.489H6.644zm16.134 11.422c.533-.111.933-.578.933-1.133 0-.644-.511-1.156-1.156-1.156s-1.156.511-1.156 1.156c0 .4.2.733.489.956-.556 1.333-1.756 2.267-3.6 2.711-1.089.267-2.133.289-2.778.267 1.133-2 1.889-4.133 2.378-5.978l6.422-1.156v7.8c-.533.156-1.889.356-3.289-1.2a4.79 4.79 0 0 0 1.756-2.267zm1.555-5.244l-6.178 1.111c0-.044.022-.089.022-.111.689-2.911.867-5.333.911-6.289h5.244v5.289zM18.2 7.378a34.207 34.207 0 0 1-.2 2.111l-7.444 1.467-.844 1.711c-.067-.022-.156-.022-.222-.022-.644 0-1.156.511-1.156 1.156s.511 1.156 1.156 1.156 1.156-.511 1.156-1.156c0-.244-.067-.444-.2-.644l.711-1.422 6.711-1.333c-.289 1.978-.844 4.578-1.844 7.133h-5.333l-3.156 3V7.379h10.667zM7.533 21.756l3.533-3.333h4.622c-.933 2.111-2.2 4.156-3.911 5.756H7.555v-2.422zM13 24.178a17.22 17.22 0 0 0 2-2.6c.156 0 .4.022.711.022 1.089 0 2.956-.133 4.556-.956 1.2 1.378 2.422 1.711 3.311 1.711.289 0 .533-.044.756-.067v1.911H13.001z"/></svg>