<svg xmlns="http://www.w3.org/2000/svg" width="32" height="32" viewBox="0 0 32 32"><path d="M19.778 7.2l-1.289 1.289H8.022v2.756H6.555v13.578h12.711l-.911-.911H7.466V12.134H22.51v-.911H8.932V9.379h9.956l1.289-1.289h4.356v15.778h-2.044l-3.333-3.289.133-.2a4.072 4.072 0 0 0 .756-2.356c0-2.244-1.822-4.067-4.067-4.067s-4.067 1.822-4.067 4.067a4.07 4.07 0 0 0 4.067 4.067c.844 0 1.644-.244 2.333-.733l.178-.133 3.6 3.6h3.333V7.202h-5.644zM16 21.156c-1.733 0-3.156-1.422-3.156-3.156s1.422-3.156 3.156-3.156A3.168 3.168 0 0 1 19.156 18 3.153 3.153 0 0 1 16 21.156z"/></svg>