<svg xmlns="http://www.w3.org/2000/svg" width="32" height="32" viewBox="0 0 32 32"><path d="M7.667 26.067l-.289-11.956 2.4-.044-.044-1.889c0-.067-.067-6.089 5.933-6.222h.2c5.822 0 6.022 5.889 6.022 5.933l.044 1.889 2.4-.067.289 12.178-16.956.178zM8.4 15.089l.244 9.956 14.956-.156-.244-10.156-2.4.067-.067-2.889c0-.2-.2-4.956-5.022-4.956h-.178c-5 .111-4.978 5-4.956 5.2l.067 2.889-2.4.044zM12.178 15l-.067-2.933c-.022-3.178 2.244-3.689 3.6-3.733h.156c3.044 0 3.578 2.244 3.622 3.578v.022l.067 2.911-7.378.156zm3.689-5.667h-.133c-2.378.067-2.622 1.6-2.622 2.733v.022l.044 1.889 5.378-.133-.044-1.911c-.022-1.111-.356-2.6-2.622-2.6z"/></svg>