<svg xmlns="http://www.w3.org/2000/svg" width="32" height="32" viewBox="0 0 32 32"><path d="M25.133 25.267c-.067-.267-.711-2.578-2.311-2.667-1.089-.067-2-1.378-2-1.4l-.044-.067c-.067-.067-.6-.578-1.556-.578-.8 0-1.644.356-2.511 1.089-.111.022-.356.089-.689.089-.578 0-1.156-.156-1.733-.489l-.067-.044-.067-.022c-.089-.022-1.089-.267-1.867.511-.156.156-.267.311-.378.444-.356.444-.578.711-1.444.711-1.689.022-2.422 2.289-2.444 2.378l-.178.6h17.444l-.156-.556zm-15.977-.356c.267-.511.711-1.133 1.333-1.133 1.289-.022 1.733-.556 2.133-1.044.111-.133.2-.244.333-.378.2-.2.444-.289.756-.289.089 0 .156 0 .2.022.689.378 1.4.578 2.111.578.622 0 1.022-.156 1.067-.178l.067-.022.067-.044c.711-.622 1.378-.911 1.978-.911.511 0 .8.222.889.289.2.289 1.267 1.667 2.689 1.756.6.044 1.044.8 1.289 1.4H9.157zM11.089 11.156c.067.067.378.289.711.289a.757.757 0 0 0 .289-.067c.444-.2.467-.756.467-.867V8.222c0-.489-.133-.844-.422-1a.785.785 0 0 0-.8 0c-.022 0-1.378.644-1.911.867-.333.133-.444.356-.489.533-.067.356.178.644.244.711l1.911 1.822zm.622-3.2a.69.69 0 0 1 .044.289v2.378c-.022-.022-.067-.044-.089-.067l-1.8-1.733c.578-.267 1.756-.844 1.844-.867z"/><path d="M11.156 13.178c.2.511 1.2 2.933 1.556 3.6.111.222.156.356.178.422-.378.156-1.378.556-2.156.978-.467.244-.733.533-.8.911-.067.333.044.6.133.711l.956 2.756 1.244-1.267c.044-.067.467-.644.422-1.2v-.222c.289-.133.911-.378 1.289-.556l.067.133c.267.689.644 1.156 1.089 1.333.333.133.711.133 1.067-.044.889-.4.667-1.556.4-2.2l-.111-.311 1.156-.489.044-.022a.506.506 0 0 1 .222-.067c.244.578.822 2.422.822 2.444l.089.267h.289c.444 0 1.156.111 1.356.267l1.022.844-1.667-5.778-.022-.044c-.2-.356-.889-.911-1.978-.533-.578.2-1.733.511-2.311.667l-1.667-3.822c.089-1.622.044-4.467.022-5.356-.022-.6-.289-.889-.511-1.044-.6-.378-1.467 0-1.533.022-.044.022-2.8 1.2-3.822 1.6-.6.222-.822.6-.911.867-.2.6.178 1.178.222 1.244l.022.044c1.889 2.133 3.467 3.511 3.822 3.844zM7.889 8.289c.044-.133.178-.244.422-.333 1.022-.4 3.711-1.556 3.822-1.6.222-.111.622-.178.778-.089.089.067.111.222.133.356.022.889.089 3.8-.022 5.378v.089l2.067 4.756.756-.333c.6-.178 1.689-.467 2.244-.644.622-.2.911.044 1 .156l1.044 3.622c-.244-.044-.511-.067-.689-.089-.178-.556-.578-1.8-.756-2.267a.712.712 0 0 0-.467-.444c-.378-.133-.778.067-.911.111l-1.844.778.067.178.267.822.022.044c.111.267.311 1 .022 1.133-.2.089-.333.067-.422.022-.222-.089-.467-.4-.644-.867-.044-.133-.222-.533-.556-.667a.59.59 0 0 0-.511.044c-.4.222-1.511.667-1.511.667l-.067.022-.044.044c-.178.156-.244.467-.222.911.022.178-.133.467-.244.622l-.244.244-.556-1.622h-.067s-.022-.044-.022-.111c0-.044.067-.178.378-.333.911-.489 2.2-.978 2.2-.978.067-.022.244-.111.356-.356.111-.289.044-.689-.244-1.178-.378-.689-1.533-3.578-1.556-3.6l-.022-.111-.067-.067c-.022-.022-1.733-1.444-3.778-3.8-.044-.067-.178-.311-.111-.511z"/></svg>