<svg xmlns="http://www.w3.org/2000/svg" width="32" height="32" viewBox="0 0 32 32"><path d="M19.489 6.644c-2 0-3.644 1.644-3.644 3.644s1.644 3.644 3.644 3.644 3.644-1.644 3.644-3.644-1.644-3.644-3.644-3.644zm0 6.289c-1.467 0-2.644-1.178-2.644-2.644s1.178-2.644 2.644-2.644 2.644 1.178 2.644 2.644-1.178 2.644-2.644 2.644z"/><path d="M19.489 4.489a5.9 5.9 0 0 0-5.889 5.889c0 1.044.267 2 .733 2.867l-9.711 9.689 2.311 2.222 1.978-1.911 2.444 2.444 2.267-2.178-2.444-2.4.756-.733 1.267 1.267 2-2.044-1.244-1.267 2.756-2.756a5.764 5.764 0 0 0 2.756.689c3.244 0 5.889-2.644 5.889-5.889s-2.622-5.889-5.867-5.889zm-6.933 13.844L13.8 19.6l-.6.622-1.267-1.267-2.178 2.156 2.422 2.378-.822.778-2.444-2.444-2 1.933-.889-.844 8.867-8.844c.289.356.6.667.978.956l-3.311 3.311zm6.933-3.066c-2.689 0-4.889-2.2-4.889-4.889s2.2-4.889 4.889-4.889 4.889 2.2 4.889 4.889-2.2 4.889-4.889 4.889z"/></svg>