<svg xmlns="http://www.w3.org/2000/svg" width="32" height="32" viewBox="0 0 32 32"><path d="M6.778 25.711h15.067V9.755H6.778v15.956zm.911-15.022h13.222v14.089H7.689V10.689z"/><path d="M9.6 6.289v1.533h.933v-.6h13.756v12.956h-.756v.933h1.689V6.289z"/><path d="M14.311 13.644c-1.178 0-2.244.4-2.978 1.133l-.222.222.733.778.244-.244c.556-.556 1.333-.867 2.2-.867 1.644 0 2.911 1.467 3.089 2.867h-.978l1.489 2.222 1.489-2.222h-.867c-.2-2.111-2.089-3.889-4.2-3.889zM16.644 19.867c-.644.644-1.4.978-2.178.978-1.689 0-2.889-1.089-3.044-2.622h.844l-1.489-2.222-1.489 2.222h1.022c.156 2.156 1.822 3.689 4.133 3.689 1.089 0 2.133-.444 2.933-1.267l.222-.222-.711-.8-.244.244z"/></svg>