<svg xmlns="http://www.w3.org/2000/svg" width="32" height="32" viewBox="0 0 32 32"><path d="M19.978 25.378H7V11.645h12.978v13.733zm-12.178-.8h11.378V12.445H7.8v12.133z"/><path d="M22.889 21.422h-1.444v-.8h.644V9.466H10.245v.533h-.8V8.666h13.444zM18.044 22.267H8.755l2.867-3.844h.222a.43.43 0 0 1 .356.2l.689 1.089 1.933-2.467 3.222 5.022zm-7.711-.8h6.244L14.733 18.6l-1.356 1.711a.73.73 0 0 1-.533.267.672.672 0 0 1-.578-.311l-.467-.756-1.467 1.956zM11.244 18.133c-.867 0-1.556-.689-1.556-1.556s.689-1.556 1.556-1.556 1.556.689 1.556 1.556c0 .844-.711 1.556-1.556 1.556zm0-2.333c-.422 0-.756.333-.756.756s.333.756.756.756a.75.75 0 0 0 .756-.756c0-.4-.333-.756-.756-.756z"/><path d="M25.444 18.667h-1.556v-.889h.667V7.067H12.799v.6h-.889V6.178h13.533z"/></svg>