<svg xmlns="http://www.w3.org/2000/svg" width="32" height="32" viewBox="0 0 32 32"><path d="M13.156 8.933h-.178c-1.733 0-2.867 1.022-3.511 3.244-.467 1.556-.489 3.8.356 4.956.356.489.822.733 1.378.733h.2c1.089-.111 1.4-.867 1.689-1.822.133-.4.244-.844.511-1.156.178-.244.444-.444.711-.667.6-.467 1.333-1.067 1.444-2.156.089-.822-.156-1.644-.644-2.222-.467-.578-1.156-.867-1.956-.911zm1.622 3c-.067.689-.533 1.067-1.089 1.489-.333.267-.622.489-.889.822-.356.467-.511.978-.667 1.467-.222.756-.356 1.089-.867 1.133-.267.022-.489-.067-.689-.333-.622-.844-.6-2.778-.2-4.089.533-1.778 1.311-2.533 2.578-2.533h.133c.533.022.956.2 1.267.556.333.4.489.933.422 1.489z"/><path d="M6.778 6.778v18.444h18.444V6.778H6.778zm11.333 4.578c-.222 1.489-.822 2.178-1.422 2.889-.711.844-1.444 1.711-1.778 3.644-.444 2.667-1.444 3.4-3.022 3.8a2.7 2.7 0 0 1-.756.089c-1.156 0-2.4-.511-3.311-1.378l-.067-.067V7.755h9.444l.067.089c.778.978 1.067 2.178.844 3.511zm-6 11.288c2.244-.556 3.289-1.844 3.756-4.578.289-1.667.933-2.422 1.556-3.156.689-.8 1.378-1.622 1.644-3.378.2-1.244.022-2.4-.511-3.422l-.178-.333H21.4l.044.156c.911 2.489-.156 5.067-1.356 6.533-1.733 2.111-2 3.444-1.844 6.156.089 1.711-.333 2.889-1.311 3.6l-.067.044H7.755v-2.622l.356.222c.933.578 2 .911 3.044.911.333-.022.667-.044.956-.133zm12.133-7.955l-.089.067c-.2.178-.378.311-.533.444-2.956 2.289-2.022 4.956-1.644 6.111.022.089.067.2.111.333.178.489.489 1.333.711 2.333l.067.267h-4.489l.222-.356c.533-.867.756-1.956.689-3.356-.133-2.444.089-3.578 1.622-5.467 1.244-1.511 2.444-4.267 1.667-7.022l-.089-.289h1.733v6.933zm-1.333 6.289c-.489-1.444-.778-3.156.956-4.711l.378-.356v8.311h-.378l-.067-.333c-.222-1.133-.578-2.044-.778-2.6-.044-.111-.089-.222-.111-.311z"/></svg>