<svg xmlns="http://www.w3.org/2000/svg" width="32" height="32" viewBox="0 0 32 32"><path d="M25.778 18.089c-.067-.044-1.556-1.311-3.2-1.311-.267 0-.533.044-.778.111-1.533.422-2.378 1.289-2.667 1.6-.378.089-1.444.356-2.089.511.044-.467.333-1.467.667-2.356.733-.156 3.067-.733 4.111-2.356 1.067-1.667 1.111-2.933 1.133-4.044 0-.133 0-.267.022-.4l.022-.422-.422.022c-.156 0-3.867.2-5.222 3-.044.089-.911 2-.733 3.467l-.889 1.356c-.289-.644-.689-1.733-.778-2.911.511-.422 1.978-1.778 2.044-3.578.067-2.089-1.222-3.844-1.267-3.911l-.222-.311-.311.222c-.089.067-2.444 1.822-2.533 3.867-.111 1.711.711 3.133.956 3.533-.022.689-.044 3.978.956 5.422l-.156.578c-.489-.311-1.289-.822-1.978-1.2-.244-.533-1.289-2.489-2.822-2.8a7.114 7.114 0 0 0-1.4-.133c-1.022 0-1.778.2-1.8.2L6 16.356l.178.4c.089.244 1 2.378 1.844 2.933.6.378 1.178.622 2.133.622.444 0 .956-.044 1.578-.156 1.022.978 2.156 2.178 2.267 2.511a.485.485 0 0 0 .089.156c.044.067.133.156.111.333-.022.133-.356 3.156-.244 4.467l.022.089c.089.267.4.733 1.022.733.311 0 .644-.111 1-.356l.178-.111v-.2c0-1.333.022-4.956.267-5.822.156-.222 1.022-1.289 2.978-2.222h.067c.045 0 .111.022.133.044.378.333 1.4.822 2.533.822.156 0 .333 0 .489-.022 1.244-.156 2.422-.867 3.289-1.978l.222-.289-.378-.222zm-7.734-5.333c.889-1.867 3.178-2.378 4.133-2.511-.022 1.044-.067 2.133-1 3.6-.978 1.511-3.444 1.978-3.756 2.044-.244-1.222.622-3.133.622-3.133zm-6.311 6.6c-.667.111-1.2.178-1.644.178-.778 0-1.222-.178-1.711-.511-.4-.267-.978-1.311-1.356-2.133a7.7 7.7 0 0 1 1.156-.089c.444 0 .867.044 1.244.111 1.111.244 2.022 1.8 2.311 2.444zm2.578-5.534c0-.022-1-1.444-.889-3.156.067-1.267 1.311-2.489 1.911-3.022.333.556.933 1.756.889 3.067-.089 1.778-1.889 3.111-1.911 3.111zm1.356 7.756l-.044.089c-.289.956-.311 4.844-.311 5.889a.907.907 0 0 1-.378.111c-.156 0-.222-.111-.267-.178-.089-1.267.244-4.222.244-4.244a1.154 1.154 0 0 0-.244-.867c-.244-.578-1.356-1.711-2.089-2.444.889.511 1.8 1.133 1.822 1.156l.444.311.556-2-.133-.156c-.556-.667-.778-2.133-.867-3.4.333 1.333.889 2.311.933 2.356l.311.556 1.044-1.578c-.422 1.289-.533 2.111-.311 2.422a.517.517 0 0 0 .444.222c.044 0 .111 0 .156-.022.244-.067.644-.156 1.044-.267-1.689 1-2.333 2-2.356 2.044zm6.755-1.756c-.133.022-.267.022-.378.022-.933 0-1.778-.4-2-.622a1.308 1.308 0 0 0-.333-.2c.156-.2.889-1 2.289-1.378.178-.044.378-.067.578-.067.956 0 1.911.556 2.378.889-.711.733-1.6 1.222-2.533 1.356z"/><path d="M12.111 16.422l.356.067.089-.356c.022-.111.711-2.822-.711-5.022-.867-1.333-2.289-2.178-4.267-2.511l-.333-.067-.089.333c-.022.111-.778 2.667.556 4.844.844 1.4 2.333 2.311 4.4 2.711zm-4.289-7c1.556.333 2.689 1.022 3.378 2.089.956 1.467.8 3.289.689 4.044-1.644-.378-2.822-1.156-3.489-2.267-.911-1.422-.711-3.133-.578-3.867zM17.644 10.689l.333-.089c.089-.022 2.267-.711 3.111-2.644.511-1.2.4-2.578-.333-4.111l-.156-.311-.333.111c-.089.022-2.244.778-3.067 2.733-.511 1.178-.4 2.533.289 4.022l.156.289zm.289-4.022c.511-1.222 1.711-1.889 2.267-2.156.489 1.178.556 2.222.178 3.111-.511 1.2-1.733 1.844-2.311 2.089-.467-1.133-.511-2.156-.133-3.044zM21.489 15.756l-.133.378.378.133c.511.178 1 .267 1.444.267 1.8 0 2.622-1.422 2.8-2.178l.089-.333-.311-.133a3.675 3.675 0 0 0-1.4-.289c-2.089-.022-2.844 2.067-2.867 2.156zm2.844-1.4a3.1 3.1 0 0 1 .756.111c-.2.467-.733 1.244-1.933 1.244a3.33 3.33 0 0 1-.778-.089c.289-.467.911-1.267 1.956-1.267zM22.6 23.111c-1.089-1.822-2.4-2.2-3.333-2.2-1.222 0-2.156.644-2.2.667l-.289.2.178.311c1.067 1.8 2.4 2.178 3.356 2.178.778 0 2.333-.444 2.333-.956V23.2l-.044-.089zm-2.289.356c-.978 0-1.8-.489-2.467-1.444a3.227 3.227 0 0 1 1.422-.356c.956 0 1.778.489 2.444 1.489-.311.133-.822.311-1.4.311z"/></svg>