<svg xmlns="http://www.w3.org/2000/svg" width="32" height="32" viewBox="0 0 32 32"><path d="M20.689 7.889V6.467c0-.222-.178-.4-.4-.4s-.4.178-.4.4v1.422h-3.511V6.467c0-.222-.178-.4-.4-.4s-.4.178-.4.4v1.422h-3.489V6.467c0-.222-.178-.4-.4-.4s-.4.178-.4.4v1.422H7v18h18v-18h-4.311zm-9.378 14.089v3.133H7.778v-3.533h3.533v.4zm0-4.289v3.133H7.778v-3.533h3.533v.4zm0-4.311v3.133H7.778v-3.533h3.533v.4zm4.289 8.6v3.133h-3.511v-3.533h3.533v.4zm0-4.289v3.133h-3.511v-3.533h3.533v.4zm0-4.311v3.133h-3.511v-3.533h3.533v.4zm4.311 8.6v3.133h-3.533v-3.533h3.533v.4zm0-4.289v3.133h-3.533v-3.533h3.533v.4zm0-4.311v3.133h-3.533v-3.533h3.533v.4zm4.311 8.6v3.133h-3.533v-3.533h3.533v.4zm0-4.289v3.133h-3.533v-3.533h3.533v.4zm0-4.311v3.133h-3.533v-3.533h3.533v.4zm0-4.689v3.533H7.778V8.666h3.533v1.422c0 .222.178.4.4.4s.4-.178.4-.4V8.666h3.533v1.422c0 .222.178.4.4.4s.4-.178.4-.4V8.666h3.533v1.422c0 .222.178.4.4.4s.4-.178.4-.4V8.666h3.444z"/></svg>