<svg xmlns="http://www.w3.org/2000/svg" width="32" height="32" viewBox="0 0 32 32"><path d="M13.489 21.267h-1.133v-1.133h-.889v1.133h-1.156v.889h1.156v1.156h.889v-1.156h1.133z"/><path d="M23.778 14.444l2.978-8.778h-6.733l-.311.956h5.711l-2.333 6.889h-2.311V8.578h-4.267l.978-2.911h-6.711l-2.978 8.778h6.711l1.667-4.911h3.644v1.511h-2.311v.956h2.311v1.511h-2.311v.933h2.311v1.511h-2.311v.933h2.311v6.089h-2.089v-.356h-.956v.356h-.489c.111-.378.156-.778.156-1.178 0-1.4-.644-2.711-1.756-3.578V16.4h-.956v1.244c-.578-.267-1.2-.4-1.844-.4a4.537 4.537 0 0 0-4.533 4.533 4.537 4.537 0 0 0 4.533 4.533 4.503 4.503 0 0 0 4-2.422h.867v.911h.956v-.911h2.289l.533.911h1.089l-.867-1.511v-8.844h3.022zm-14.645-.955L11.466 6.6h4.711l-2.333 6.889H9.133zm6.378 8.244c0 1.978-1.622 3.6-3.6 3.6l-.111.022a3.677 3.677 0 0 1-2.156-.8 3.607 3.607 0 0 1-1.333-2.8c0-1.978 1.622-3.6 3.6-3.6s3.6 1.578 3.6 3.578z"/></svg>