<svg xmlns="http://www.w3.org/2000/svg" width="32" height="32" viewBox="0 0 32 32"><path d="M20.244 14.889h-3.2L16 11.533l-1.044 3.356h-3.2l2.644 1.822-.889 2.822L16 17.822l2.489 1.711-.889-2.822zM23.267 15.911c0 .267-.022.533-.044.8h3.667v-1.6h-3.667c.022.267.044.533.044.8zM8.733 15.911c0-.267.022-.533.044-.8H5.11v1.622h3.667c-.022-.267-.044-.533-.044-.822zM22.022 19.956h4.867v-1.622h-4.044a7.429 7.429 0 0 1-.822 1.622zM22.022 11.889a7.4 7.4 0 0 1 .733 1.378c.022.067.067.156.089.222h4.044v-1.622h-4.867zM5.111 18.333v1.622h4.867a6.902 6.902 0 0 1-.8-1.622H5.111zM9.156 13.489c.022-.067.044-.156.089-.222a7.4 7.4 0 0 1 .733-1.378H5.111v1.622h4.044z"/><path d="M13.778 13.267l.267-.867.489-1.578.111-.378a2.242 2.242 0 0 0-.356.111c-.022 0-.022 0-.044.022-.111.044-.2.067-.311.111-.022 0-.022 0-.044.022a5.599 5.599 0 0 0-2.889 2.6h2.778zM10.356 15.889v.044c0 1.444.533 2.756 1.422 3.756l.6-1.956.111-.333-.356-.244-1.778-1.267zM19.844 17.111l-.356.244.111.356.2.622.133.4.289.933a5.62 5.62 0 0 0 1.422-3.756v-.044l-1.8 1.244zM18.022 21.178l-1.133-.778-.644-.444-.244-.178-.667.467-1.356.933a5.583 5.583 0 0 0 2.044.378c.689 0 1.378-.133 2-.378zM17.822 11.933l.111.378.022.111.267.889h2.756a5.595 5.595 0 0 0-2.889-2.6c-.022 0-.022 0-.044-.022-.111-.044-.2-.067-.311-.111-.022 0-.022 0-.044-.022-.111-.044-.244-.067-.356-.111l.489 1.489z"/></svg>