<svg id="Layer_1" xmlns="http://www.w3.org/2000/svg" viewBox="0 0 108 21.2"><style>.st0{fill:#fff}</style><title>facebook</title><path class="st0" d="M10.1 0v3.3H8.3s-1.6-.2-1.6 1.4v2.6h3.5l-.4 3.6h-3v10h-4v-10H0V7.2h2.8v-3c-.2-1.1.3-2.3 1.1-3C4.9.4 6.1 0 7.3 0h2.8zM19.7 7.3v1.8c-.9-1.3-2.4-2.1-4-2.2-3.1 0-5.6 2.7-5.6 7.2s2.5 7.2 5.6 7.2c1.6-.1 3.1-.9 4-2.2v1.7h3.8V7.3h-3.8zm-.2 8.1c0 1.4-1.2 2.6-2.6 2.6-1.4 0-2.6-1.2-2.6-2.6v-2.6c0-1.4 1.2-2.6 2.6-2.6 1.4 0 2.6 1.2 2.6 2.6v2.6zM54.9 20.8V19c.9 1.3 2.4 2.1 4 2.2 3.1 0 5.6-2.7 5.6-7.2S62 6.9 58.9 6.9c-1.6.1-3.1.9-4 2.2V.2l-4 .5v20.1h4zm.2-8.1c0-1.4 1.2-2.6 2.6-2.6 1.4 0 2.6 1.2 2.6 2.6v2.6c0 1.4-1.2 2.6-2.6 2.6-1.4 0-2.6-1.2-2.6-2.6v-2.6zM32.2 17.9s-3.1.2-3.1-3.8v-.2c0-4 3.1-3.8 3.1-3.8 1-.1 2 .1 2.8.7l1-2.9c-1.7-1.2-6.7-1.4-9 .6-2 1.8-2 4.7-1.9 5.5s0 3.7 1.9 5.5c2.2 2.1 7.3 1.9 9 .6l-1-2.9c-.8.6-1.8.9-2.8.7zM49.3 15.5s1.6-8.4-6.1-8.5-6.6 7.6-6.6 7.6c.2 4.7 2.3 6 6 6.4 2.2.3 4.4-.1 6.4-1l-.8-2.7c-1.7.5-3.5.8-5.3.7-1.3-.1-2.3-1.3-2.2-2.6l8.6.1zm-8.7-2.8s-.2-3 2.5-3 2.5 3 2.5 3h-5zM72.4 7.1c-5 0-6.7 3-6.7 7.1 0 4.3 2.2 7.1 6.7 7.1 3.7 0 6.7-2.5 6.7-7.1.1-4-1.9-7.1-6.7-7.1zm2.7 8.2c-.1 1.5-1.3 2.6-2.8 2.5-1.3-.1-2.4-1.1-2.5-2.5v-2.6c.1-1.5 1.3-2.6 2.8-2.5 1.3.1 2.4 1.1 2.5 2.5v2.6zM87.2 7.1c-5 0-6.7 3-6.7 7.1 0 4.3 2.2 7.1 6.7 7.1 3.7 0 6.7-2.5 6.7-7.1 0-4-1.9-7.1-6.7-7.1zm2.7 8.2c-.1 1.5-1.3 2.6-2.8 2.5-1.3-.1-2.4-1.1-2.5-2.5v-2.6c.1-1.5 1.3-2.6 2.8-2.5 1.3.1 2.4 1.1 2.5 2.5v2.6zM108 20.8l-4.4-6.8 4.2-6.8h-4.3l-4.1 6.1V.1l-4 .5v20.2h4v-6.9l4.4 6.9z"/></svg>