<svg id="Layer_1" xmlns="http://www.w3.org/2000/svg" viewBox="0 0 28 28"><style>.st0{fill:#27aae1}.st1{fill:#00aeef}</style><path class="st1" d="M10.2 13v2.3H14c-.2 1-1.1 2.9-3.8 2.9-2.3 0-4.1-1.9-4.1-4.2s1.8-4.2 4.1-4.2c1.3 0 2.2.5 2.6 1l1.8-1.7C13.5 8 12 7.3 10.2 7.3c-3.7 0-6.6 3-6.6 6.6s3 6.6 6.6 6.6c3.8 0 6.4-2.7 6.4-6.5 0-.4 0-.8-.1-1.1h-6.3zm14.2 0h-1.9v-1.9h-1.9V13h-1.9v1.9h1.9v1.9h1.9v-1.9h1.9"/><path class="st1" d="M14 .5C21.4.5 27.5 6.6 27.5 14S21.4 27.5 14 27.5.5 21.4.5 14 6.6.5 14 .5m0-.5C6.3 0 0 6.3 0 14s6.3 14 14 14 14-6.3 14-14S21.7 0 14 0z"/></svg>