<svg id="Layer_1" xmlns="http://www.w3.org/2000/svg" viewBox="0 0 108 35.6"><style>.st0{fill:#fff}</style><title>google</title><path class="st0" d="M20.6 6.6c-1.8-1.7-4.3-2.7-6.8-2.7-2.6 0-5.1 1-7 2.9C3 10.7 3 17 6.8 20.8c1.9 1.9 4.4 2.9 7 2.9h.1c2.4.1 4.7-.8 6.5-2.4 1.3-1.3 2.1-3 2.3-4.9h-8.8v-3.9h12.9v2.2c.1 3.5-1.2 6.9-3.6 9.4-2.5 2.3-5.8 3.5-9.2 3.5h-.2c.1 0 .2 0 0 0C6.2 27.7 0 21.5 0 13.9 0 6.2 6.1 0 13.8 0c3.5 0 6.9 1.3 9.5 3.8l-2.7 2.8zm-6.8 21.1zm13-12.9zm0 0c0-.1 0-.3 0 0zM37.2 9.9c2.4 0 4.6.9 6.3 2.6 3.5 3.4 3.5 8.9.1 12.4l-.1.1c-3.5 3.5-9.2 3.5-12.7 0-3.5-3.4-3.5-8.9-.1-12.4l.1-.1c1.7-1.6 4-2.6 6.4-2.6zm3.6 5.1c-1.9-2-5.1-2.1-7.1-.2l-.2.2c-2 2.1-2 5.4 0 7.5 1.9 2 5.1 2.1 7.1.2l.2-.2c2-2.1 2-5.4 0-7.5z"/><path class="st0" d="M56.5 9.9c2.4 0 4.6.9 6.3 2.6 3.5 3.4 3.5 8.9.1 12.4l-.1.1c-3.5 3.5-9.2 3.5-12.7 0-3.5-3.4-3.5-8.9-.1-12.4l.1-.1c1.7-1.6 4-2.6 6.4-2.6zm3.6 5.1c-1.9-2-5.1-2.1-7.1-.2l-.2.2c-2 2.1-2 5.4 0 7.5 1.9 2 5.1 2.1 7.1.2l.2-.2c2-2.1 2-5.4 0-7.5zM74.9 9.9c1.9-.1 3.8.6 5.2 2v-1.5h3.7v16.9c0 2.3-.9 4.6-2.6 6.2-1.5 1.3-3.3 2.1-5.3 2.1-1.8 0-3.5-.4-5-1.3s-2.6-2.3-3.3-3.9l3.4-1.5c.8 2.1 2.8 3.4 5 3.2 2.4-.2 4.3-2.2 4.2-4.6v-2c-1.3 1.3-3 2-4.8 2-2.3 0-4.5-1-6.1-2.6-1.6-1.7-2.4-3.9-2.4-6.2-.1-4.8 3.9-8.8 8-8.8zM79 15c-1.7-1.9-4.6-2.1-6.5-.4-.1.1-.3.2-.4.4-.9 1-1.4 2.4-1.4 3.8 0 3 2 5.4 4.9 5.4 1.3 0 2.6-.6 3.4-1.6 1.9-2.2 1.9-5.4 0-7.6zM86.1 1.1h3.8v26h-3.8zM95.4 18.5l8.1-3.2c-1.4-1.8-3.5-2.7-6.2-.9-1.2 1-1.9 2.5-1.9 4.1zm.6 3c1.5 3.5 6.7 3.6 8.7.3l3 2c-1.6 2.5-4.4 4-7.4 4-2.3 0-4.6-.9-6.2-2.5-3.3-3.5-3.5-8.9-.3-12.5 2.2-2.5 5.8-3.3 8.9-2.2 2.2.8 4 2.8 5.3 6.2-4 1.4-8 3.1-12 4.7z"/></svg>