<svg id="Layer_1" data-name="Layer 1" xmlns="http://www.w3.org/2000/svg" viewBox="0 0 108 33.59"><defs><style>.cls-1{fill:#a7a9ac}.cls-2{fill:#d1d3d4}.cls-3{fill:#bcbec0}</style></defs><title>hexagon</title><path class="cls-1" d="M43.22 25.2v-5h-4.69v5h-2.08V13.77h2.08v4.47h4.69v-4.47h2.08V25.2zM47.47 25.2V13.77h7.8v1.89h-5.73v2.66h5v1.87h-5v3.13h5.72v1.88zM63.67 25.2L61.11 21l-2.57 4.2H56.3l3.59-5.82-3.56-5.61h2.27l2.56 4 2.48-4h2.26l-3.5 5.63 3.6 5.8zM74.2 25.2l-.74-2.2h-4.54l-.74 2.19h-2.1l4-11.43h2.27l4 11.43zm-3-8.88l-1.63 4.82h3.26zM85.75 25.2l-1.21-1.26a3.35 3.35 0 0 1-2.87 1.47 4.37 4.37 0 0 1-3.4-1.27 6.21 6.21 0 0 1-1.48-4.64c0-1.87.24-3.35 1.48-4.59a4.92 4.92 0 0 1 3.4-1.34 4.72 4.72 0 0 1 3.39 1.31 3.51 3.51 0 0 1 1 2.31H84a1.78 1.78 0 0 0-.5-1 2.3 2.3 0 0 0-1.82-.69 2.7 2.7 0 0 0-1.87.77 4.87 4.87 0 0 0-.88 3.29 5 5 0 0 0 .9 3.34 2.62 2.62 0 0 0 1.86.73 2.31 2.31 0 0 0 1.71-.66 2.94 2.94 0 0 0 .74-2.22h-2.76v-1.8h4.74v6.25zM95.82 24.12a4.84 4.84 0 0 1-6.58 0c-1.24-1.24-1.45-2.76-1.45-4.63s.21-3.4 1.45-4.64a4.83 4.83 0 0 1 6.58 0c1.24 1.24 1.45 2.77 1.45 4.64s-.21 3.39-1.45 4.63zm-1.48-7.92a2.53 2.53 0 0 0-3.61 0c-.79.82-.82 2.24-.82 3.29a4.79 4.79 0 0 0 .82 3.27 2.53 2.53 0 0 0 3.61 0c.79-.82.82-2.22.82-3.27s-.03-2.49-.82-3.28zM105.86 25.2l-4.95-7.85v7.85h-2V13.77h2.21l4.88 7.74v-7.74h2V25.2z" transform="translate(0 -.29)"/><path class="cls-2" d="M0 25.19h9.7l-2.43-4.2L0 25.19zM19.39 25.19l3.83-6.62.68-1.19 5.19-8.98-14.55 8.4v8.39h4.85z"/><path class="cls-3" d="M14.54 33.59l14.55-8.4h-9.7l-4.85 8.4zM7.27 20.99l7.27-4.19V0L4.85 16.8l2.42 4.19zM9.7 25.19l4.84 8.4v-8.4H9.7z"/><path class="cls-2" d="M0 8.4v16.79l4.85-8.39L0 8.4z"/><path class="cls-1" d="M29.09 8.4l-9.7 16.79h9.7V8.4zM14.54 16.8l-7.27 4.19 2.43 4.2h4.84V16.8zM14.54 0L0 8.4l4.85 8.4L14.54 0z"/></svg>