<svg id="Layer_1" xmlns="http://www.w3.org/2000/svg" viewBox="0 0 28 28"><style>.st0{fill:#27aae1}.st1{fill:#00aeef}</style><path class="st0" d="M18 23.7h-7.9c-3 0-5.5-2.5-5.5-5.5V9.7c0-3 2.5-5.5 5.5-5.5H18c3 0 5.5 2.5 5.5 5.5v8.5c0 3-2.5 5.5-5.5 5.5zm0-1.4c1.1 0 2.1-.4 2.9-1.2.8-.8 1.2-1.8 1.2-2.9V9.7c0-1.1-.4-2.1-1.2-2.9-.8-.8-1.8-1.2-2.9-1.2h-7.9C9 5.7 8 6.1 7.2 6.9S6 8.7 6 9.7v8.5c0 1.1.4 2.1 1.2 2.9.8.8 1.8 1.2 2.9 1.2H18z"/><path class="st0" d="M19.3 13.9c0 2.9-2.3 5.2-5.2 5.2s-5.2-2.3-5.2-5.2 2.3-5.2 5.2-5.2 5.2 2.3 5.2 5.2zM14 10.5c-1.9 0-3.4 1.5-3.4 3.4s1.5 3.4 3.4 3.4 3.4-1.5 3.4-3.4-1.5-3.4-3.4-3.4z"/><circle class="st0" cx="19.4" cy="8.6" r="1.2"/><path class="st1" d="M14 .5C21.4.5 27.5 6.6 27.5 14S21.4 27.5 14 27.5.5 21.4.5 14 6.6.5 14 .5m0-.5C6.3 0 0 6.3 0 14s6.3 14 14 14 14-6.3 14-14S21.7 0 14 0z"/></svg>