<svg id="Layer_1" xmlns="http://www.w3.org/2000/svg" viewBox="0 0 28 28"><style>.st0{fill:#27aae1}.st1{fill:#00aeef}</style><circle class="st1" cx="7.6" cy="7.5" r="1.8"/><path class="st1" d="M17.1 10.4c-1.5 0-2.5.8-2.9 1.6v-1.4h-3v10h3.1v-5c0-1.3.2-2.6 1.9-2.6 1.6 0 1.6 1.5 1.6 2.7v4.9h3.1v-5.5c-.1-2.6-.7-4.7-3.8-4.7zM6 10.7h3.1v10H6z"/><path class="st1" d="M14 .5C21.4.5 27.5 6.6 27.5 14S21.4 27.5 14 27.5.5 21.4.5 14 6.6.5 14 .5m0-.5C6.3 0 0 6.3 0 14s6.3 14 14 14 14-6.3 14-14S21.7 0 14 0z"/></svg>