<svg id="Layer_1" xmlns="http://www.w3.org/2000/svg" viewBox="0 0 108 28.8"><style>.st0{fill:#fff}</style><title>mapbox</title><g id="layer1"><g id="g3024"><path id="path4479" class="st0" d="M0 0v22.8h3.3V4L10 15.4 16.8 4v18.8h3.4V0h-2.7c-1.2-.2-2.3.4-3 1.3l-4.4 7.5-4.4-7.5C5 .4 3.8-.2 2.7 0H0z"/><path id="path4477" class="st0" d="M58.7 0v23.1h6.4c4.6 0 8.4-3.7 8.4-8.4v-.3c.2-4.6-3.4-8.5-8.1-8.7H62V0h-3.3zM62 9.1h3c2.8.1 5.1 2.5 5 5.4.1 2.8-2 5.2-4.9 5.4H62V9.1z"/><path id="path4475" class="st0" d="M30.9 5.7c-4.7 0-8 3.7-8 8.7s3.4 8.7 8 8.7h8v-8.7c0-5-3.4-8.7-8-8.7zm0 3.4c2.7 0 4.7 2.3 4.7 5.4v5.4h-4.7c-2.7 0-4.7-2.4-4.7-5.4s2-5.4 4.7-5.4z"/><path id="path4473" class="st0" d="M41.6 5.7v23.1h3.3v-5.7h3c4.6 0 8.4-3.7 8.4-8.4v-.3c.2-4.6-3.4-8.5-8-8.7h-6.7zm3.3 3.4h3c2.8.1 5.1 2.4 5 5.2v.1c.1 2.8-2.2 5.2-5 5.4h-3V9.1z"/><path id="path4471" class="st0" d="M83.8 5.7c-4.7.1-8.5 4-8.4 8.7-.2 4.6 3.5 8.5 8.1 8.7 4.6.2 8.5-3.5 8.7-8.1v-.6c.1-4.7-3.6-8.6-8.4-8.7zm0 3.4c2.9.1 5.1 2.5 5 5.4 0 2.8-2.3 5-5 5s-5-2.3-5-5c-.1-2.9 2.2-5.4 5-5.4z"/><path id="path4469" class="st0" d="M91.9 6l5.8 8.1-6.2 8.6h4.1l4.1-5.8 4.1 5.8h4.1l-6.2-8.6 5.8-8.1h-4.1l-3.8 5.2L96 6h-4.1z"/></g></g></svg>