<svg id="Layer_1" xmlns="http://www.w3.org/2000/svg" viewBox="0 0 28 28"><style>.st0{fill:#27aae1}.st1{fill:#00aeef}</style><path class="st1" d="M18.8 22C18.8 15 13 9.2 6 9.2V6c8.8 0 16 7.2 16 16h-3.2zM8.2 17.6c1.2 0 2.2 1 2.2 2.2 0 1.2-1 2.2-2.2 2.2C7 22 6 21 6 19.8c0-1.2 1-2.2 2.2-2.2zm8.4 4.4h-3.1c0-4.1-3.4-7.5-7.5-7.5v-3.1c5.8 0 10.6 4.8 10.6 10.6z"/><path class="st1" d="M14 .5C21.4.5 27.5 6.6 27.5 14S21.4 27.5 14 27.5.5 21.4.5 14 6.6.5 14 .5m0-.5C6.3 0 0 6.3 0 14s6.3 14 14 14 14-6.3 14-14S21.7 0 14 0z"/></svg>