<svg style="position: absolute; width: 0; height: 0; overflow: hidden;" version="1.1" xmlns="http://www.w3.org/2000/svg">
<defs>
<symbol id="icon-us-government" viewBox="0 0 32 32">
<title>us-government</title>
<path d="M20.244 14.889h-3.2l-1.044-3.356-1.044 3.356h-3.2l2.644 1.822-0.889 2.822 2.489-1.711 2.489 1.711-0.889-2.822z"></path>
<path d="M23.267 15.911c0 0.267-0.022 0.533-0.044 0.8h3.667v-1.6h-3.667c0.022 0.267 0.044 0.533 0.044 0.8z"></path>
<path d="M8.733 15.911c0-0.267 0.022-0.533 0.044-0.8h-3.667v1.622h3.667c-0.022-0.267-0.044-0.533-0.044-0.822z"></path>
<path d="M22.022 19.956h4.867v-1.622h-4.044c-0.2 0.578-0.489 1.111-0.822 1.622z"></path>
<path d="M22.022 11.889c0.289 0.422 0.533 0.889 0.733 1.378 0.022 0.067 0.067 0.156 0.089 0.222h4.044v-1.622h-4.867z"></path>
<path d="M5.111 18.333v1.622h4.867c-0.333-0.489-0.6-1.044-0.8-1.622h-4.067z"></path>
<path d="M9.156 13.489c0.022-0.067 0.044-0.156 0.089-0.222 0.2-0.489 0.444-0.956 0.733-1.378h-4.867v1.622h4.044z"></path>
<path d="M13.778 13.267l0.267-0.867 0.489-1.578 0.111-0.378c-0.111 0.022-0.244 0.067-0.356 0.111-0.022 0-0.022 0-0.044 0.022-0.111 0.044-0.2 0.067-0.311 0.111-0.022 0-0.022 0-0.044 0.022-1.244 0.489-2.267 1.422-2.889 2.6h2.778z"></path>
<path d="M10.356 15.889c0 0.022 0 0.022 0 0.044 0 1.444 0.533 2.756 1.422 3.756l0.6-1.956 0.111-0.333-0.356-0.244-1.778-1.267z"></path>
<path d="M19.844 17.111l-0.356 0.244 0.111 0.356 0.2 0.622 0.133 0.4 0.289 0.933c0.889-1 1.422-2.311 1.422-3.756 0-0.022 0-0.022 0-0.044l-1.8 1.244z"></path>
<path d="M18.022 21.178l-1.133-0.778-0.644-0.444-0.244-0.178-0.667 0.467-1.356 0.933c0 0 0 0 0 0v0c0.622 0.244 1.311 0.378 2.044 0.378 0.689 0 1.378-0.133 2-0.378v0c0 0 0 0 0 0z"></path>
<path d="M17.822 11.933l0.111 0.378 0.022 0.111 0.267 0.889h2.756c-0.622-1.178-1.644-2.111-2.889-2.6-0.022 0-0.022 0-0.044-0.022-0.111-0.044-0.2-0.067-0.311-0.111-0.022 0-0.022 0-0.044-0.022-0.111-0.044-0.244-0.067-0.356-0.111v0l0.489 1.489z"></path>
</symbol>
<symbol id="icon-laptop-blank" viewBox="0 0 32 32">
<title>laptop-blank</title>
<path d="M7.222 9.267v11.178h17.556v-11.178h-17.556zM24.133 19.778h-16.267v-9.867h16.244v9.867z"></path>
<path d="M24.867 20.511h-17.733v-11.333h17.733v11.333zM7.311 20.356h17.4v-11.022h-17.4v11.022zM24.2 19.867h-16.4v-10.022h16.422v10.022zM7.956 19.689h16.089v-9.689h-16.089v9.689z"></path>
<path d="M5.756 22.089h20.511v0.667h-20.511v-0.667z"></path>
<path d="M26.333 22.822h-20.667v-0.822h20.667v0.822zM5.822 22.667h20.333v-0.489h-20.333v0.489z"></path>
</symbol>
<symbol id="icon-additional-industries" viewBox="0 0 32 32">
<title>additional-industries</title>
<path d="M23.778 17.089l0.022-0.2 0.4-0.133c0.289-0.089 0.6-0.2 0.844-0.311 0.822-0.4 0.978-0.956 0.933-1.356-0.022-0.244-0.133-0.889-0.2-1.2-0.044-0.244-0.244-0.822-1.089-0.978-0.2-0.044-0.4-0.044-0.711-0.044-0.156 0-0.311 0-0.467 0h-0.4l-0.111-0.178c-0.178-0.311-0.356-0.6-0.467-0.8l-0.111-0.178 0.222-0.356c0.156-0.267 0.333-0.533 0.444-0.8 0.178-0.378 0.4-1.089-0.156-1.644-0.2-0.2-0.822-0.711-0.933-0.778-0.2-0.156-0.467-0.244-0.733-0.244-0.6 0-1.067 0.4-1.644 0.933l-0.311 0.267-0.2-0.111c-0.267-0.111-0.578-0.222-0.889-0.311l-0.2-0.067-0.067-0.4c-0.044-0.311-0.089-0.622-0.178-0.889-0.267-0.956-0.867-1.133-1.2-1.156-0.111 0-0.333 0-0.6 0-0.289 0-0.511 0-0.6 0-0.333 0.022-0.933 0.2-1.2 1.156-0.067 0.267-0.111 0.578-0.178 0.889l-0.067 0.422-0.178 0.044c-0.289 0.089-0.6 0.2-0.889 0.311l-0.2 0.067-0.311-0.267c-0.6-0.511-1.044-0.933-1.644-0.933-0.267 0-0.533 0.089-0.733 0.244-0.089 0.067-0.733 0.6-0.933 0.778-0.244 0.244-0.578 0.756-0.156 1.644 0.111 0.244 0.289 0.511 0.444 0.778l0.222 0.378-0.111 0.178c-0.111 0.2-0.311 0.489-0.467 0.8l-0.089 0.2h-0.4c-0.156 0-0.311 0-0.467 0-0.311 0-0.533 0.022-0.711 0.044-0.822 0.156-1.044 0.733-1.089 0.978-0.089 0.422-0.2 0.978-0.2 1.2-0.022 0.4 0.111 0.956 0.933 1.356 0.267 0.111 0.578 0.222 0.844 0.311l0.4 0.133 0.022 0.2c0.044 0.222 0.089 0.578 0.156 0.911l0.044 0.2-0.311 0.244c-0.244 0.2-0.489 0.4-0.689 0.6-0.711 0.711-0.556 1.333-0.378 1.644 0.2 0.378 0.489 0.867 0.6 1.044 0.222 0.333 0.622 0.511 1.044 0.511s0.889-0.178 1.4-0.378l0.4-0.156 0.156 0.133c0.244 0.2 0.489 0.422 0.711 0.6l0.156 0.133-0.089 0.4c-0.067 0.311-0.133 0.622-0.156 0.889-0.089 1 0.422 1.378 0.756 1.511 0.156 0.067 0.889 0.333 1.133 0.422 0.111 0.022 0.222 0.044 0.333 0.044 0.822 0 1.244-0.756 1.644-1.511l0.2-0.311h0.2c0.333 0 0.622 0 0.933 0h0.2l0.2 0.356c0.4 0.733 0.822 1.511 1.644 1.511 0.111 0 0.222-0.022 0.333-0.044 0.244-0.067 0.978-0.333 1.133-0.422 0.311-0.133 0.844-0.511 0.756-1.511-0.022-0.267-0.089-0.578-0.156-0.889v-0.022l-0.067-0.378 0.156-0.133c0.222-0.178 0.467-0.4 0.711-0.6l0.156-0.133 0.378 0.156c0.511 0.2 0.978 0.378 1.4 0.378s0.822-0.2 1.044-0.511c0.156-0.222 0.556-0.956 0.6-1.044 0.156-0.311 0.333-0.933-0.378-1.644-0.2-0.2-0.444-0.4-0.667-0.578l-0.022-0.022c-0.044-0.044-0.089-0.067-0.156-0.133l-0.156-0.133 0.044-0.2c0.067-0.267 0.111-0.6 0.156-0.911zM23.444 19.044c0.622 0.489 1.111 0.889 0.889 1.311-0.067 0.133-0.444 0.8-0.556 0.978-0.067 0.089-0.2 0.2-0.444 0.2-0.289 0-0.689-0.156-1.133-0.333-0.311-0.111-0.667-0.267-0.867-0.289-0.311 0.311-1.2 1.089-1.6 1.333 0 0.178 0.089 0.622 0.133 0.889 0.156 0.778 0.289 1.4-0.156 1.578-0.178 0.067-0.867 0.333-1.067 0.378-0.022 0-0.067 0.022-0.133 0.022-0.4 0-0.644-0.467-1-1.133-0.133-0.244-0.356-0.644-0.467-0.756-0.311 0.022-0.867 0.044-1.044 0.044s-0.733 0-1.044-0.044c-0.111 0.133-0.333 0.511-0.467 0.756-0.356 0.644-0.622 1.133-1 1.133-0.044 0-0.089 0-0.133-0.022-0.178-0.044-0.889-0.311-1.044-0.378-0.444-0.178-0.311-0.8-0.156-1.578 0.044-0.267 0.133-0.711 0.133-0.889-0.4-0.267-1.289-1.044-1.6-1.333-0.178 0.022-0.556 0.156-0.867 0.289-0.444 0.178-0.844 0.333-1.133 0.333-0.244 0-0.378-0.111-0.444-0.2-0.111-0.178-0.489-0.822-0.556-0.978-0.222-0.422 0.267-0.822 0.889-1.311 0.222-0.178 0.556-0.444 0.667-0.6-0.133-0.467-0.311-1.622-0.356-2.067-0.133-0.089-0.578-0.244-0.844-0.333-0.733-0.244-1.333-0.444-1.289-0.911 0.022-0.222 0.178-1 0.2-1.111 0.089-0.444 0.689-0.444 1.089-0.444 0.133 0 0.289 0 0.444 0s0.289 0 0.422 0 0.4-0.022 0.467-0.022c0.178-0.444 0.8-1.444 1.044-1.8-0.044-0.178-0.289-0.556-0.422-0.8-0.4-0.667-0.733-1.2-0.4-1.533 0.156-0.156 0.733-0.622 0.867-0.733 0.089-0.067 0.178-0.089 0.289-0.089 0.311 0 0.622 0.267 1.156 0.733 0.2 0.178 0.533 0.489 0.711 0.556 0.422-0.2 1.511-0.6 1.978-0.711 0.067-0.156 0.133-0.6 0.178-0.889 0.111-0.778 0.222-1.4 0.689-1.422 0.133 0 0.444 0 0.556 0 0.089 0 0.422 0 0.556 0 0.467 0.022 0.578 0.644 0.689 1.422 0.044 0.267 0.111 0.711 0.178 0.889 0.444 0.111 1.556 0.511 1.978 0.711 0.156-0.089 0.489-0.378 0.711-0.556 0.533-0.467 0.867-0.733 1.178-0.733 0.111 0 0.2 0.044 0.289 0.089 0.133 0.111 0.711 0.578 0.867 0.733 0.333 0.333 0.022 0.867-0.4 1.533-0.156 0.244-0.378 0.622-0.422 0.8 0.267 0.356 0.867 1.378 1.044 1.8 0.067 0.022 0.2 0.022 0.467 0.022 0.133 0 0.289 0 0.422 0 0.156 0 0.311 0 0.444 0 0.4 0 1 0 1.089 0.444 0.022 0.133 0.178 0.889 0.2 1.111 0.044 0.467-0.556 0.667-1.289 0.911-0.267 0.089-0.689 0.244-0.844 0.333-0.044 0.422-0.222 1.6-0.356 2.067 0.067 0.133 0.422 0.422 0.622 0.6z"></path>
<path d="M16 11.067c-2.711 0-4.933 2.222-4.933 4.933s2.222 4.933 4.933 4.933c2.711 0 4.933-2.222 4.933-4.933s-2.222-4.933-4.933-4.933zM16 20.289c-2.378 0-4.289-1.933-4.289-4.289 0-2.378 1.933-4.289 4.289-4.289 2.378 0 4.289 1.933 4.289 4.289 0 2.378-1.911 4.289-4.289 4.289z"></path>
<path d="M16.333 13.667h-0.667v2h-2v0.667h2v2h0.667v-2h2v-0.667h-2z"></path>
</symbol>
<symbol id="icon-advanced-elevation-series" viewBox="0 0 32 32">
<title>advanced-elevation-series</title>
<path d="M20.222 8.578l-2.556 3.644-3.289-5.178-8.489 14.378 5.156 1.556 5.911 1.6 4.133-1.844 4.956-2.356-5.822-11.8zM19.956 15.6l-1.778-2.556 1.578-2.267 0.2 4.822zM7.222 20.889l6.911-11.711 2.222 14.311-5.089-1.378-4.044-1.222zM20.733 21.933l-3.467 1.533-2.111-13.511 2.444 3.889 0.022-0.022 3.333 4.8-0.289-7.089 4.156 8.444-4.089 1.956z"></path>
</symbol>
<symbol id="icon-advanced-ortho" viewBox="0 0 32 32">
<title>advanced-ortho</title>
<path d="M16 6.422c-5.289 0-9.578 4.289-9.578 9.578s4.289 9.578 9.578 9.578 9.578-4.289 9.578-9.578-4.289-9.578-9.578-9.578zM24.311 13.511l-3.756 3.111-0.733-3.689v-0.022l-0.044-0.222-0.978-4.911c2.644 0.911 4.711 3.044 5.511 5.733zM16.622 19.867v0l-3.644-1.244-0.022-0.111v-0.022l-0.756-3.8 3.022-2.644 3.8 1.289 0.778 3.933-3.022 2.667-0.156-0.067zM17.844 7.511l0.978 4.844-3.8-1.289-0.022 0.022-4.756-1.6c1.533-1.356 3.533-2.178 5.733-2.178 0.644 0 1.267 0.067 1.867 0.2zM9.556 10.178l4.689 1.578-2.711 2.356-4.089 3.4c-0.089-0.489-0.133-1-0.133-1.511 0-2.244 0.844-4.267 2.244-5.822zM7.667 18.489l3.756-3.133 0.644 3.333 0.956 5.489c-2.556-0.933-4.556-3.067-5.356-5.689zM14 24.444l-0.844-4.822 3.822 1.311 4.689 1.644c-1.533 1.311-3.511 2.111-5.667 2.111-0.689 0-1.356-0.089-2-0.244zM22.378 21.889l-4.644-1.622 3.022-2.644v-0.022l3.778-3.156c0.089 0.489 0.133 1 0.133 1.533 0.022 2.289-0.844 4.356-2.289 5.911z"></path>
</symbol>
<symbol id="icon-arcgis" viewBox="0 0 32 32">
<title>arcgis</title>
<path d="M12.956 8.778l-6.622-2v16.244l6.622 2.2 6.089-2.022 6.622 2v-16.244l-6.622-2.2-6.089 2.022zM11.889 9.578l1.067 0.333 3.356-1.111 0.044 0.222c0.467 2.422-0.267 4.778-2.222 7.156l-0.067 0.089-2.733-0.267 0.556-6.422zM7.4 8.222l3.444 1.044-0.578 6.644-2.844-0.244v-7.444zM7.4 22.267v-5.533l5.844 0.511-0.2 0.289c-1.356 1.889-2 3.733-1.978 5.667v0.267l-3.667-1.2zM20.111 22.422l-1.067-0.311-6.089 2.022-0.8-0.267v-0.133c-0.178-2.111 0.578-4.156 2.311-6.267l0.067-0.089 5.956 0.511-0.378 4.533zM22.356 9l2.244 0.733v7.444l-2.933-0.267 0.689-7.911zM24.6 18.244v5.533l-3.444-1.044 0.4-4.756 3.044 0.267zM20.6 16.822l-5.222-0.467 0.2-0.289c1.778-2.444 2.378-4.889 1.822-7.444l-0.044-0.178 1.689-0.556 2.267 0.756-0.711 8.178z"></path>
</symbol>
<symbol id="icon-archive-imagery" viewBox="0 0 32 32">
<title>archive-imagery</title>
<path d="M14.533 25.556c2.133 0 4.222-0.867 5.733-2.378h-1.511c-1.222 0.911-2.689 1.4-4.222 1.4-3.911 0-7.111-3.178-7.111-7.111 0-1.533 0.489-3 1.4-4.222v-1.511c-1.511 1.511-2.378 3.6-2.378 5.733 0 4.467 3.622 8.089 8.089 8.089z"></path>
<path d="M10.756 6.444v14.8h14.8v-14.8h-14.8zM14.2 20.267h-2.467v-2.467h2.467v2.467zM14.2 16.822h-2.467v-2.489h2.467v2.489zM14.2 13.356h-2.467v-2.422l0.156-0.067c0.667-0.267 1.356-0.422 2.067-0.489l0.244-0.022v3zM17.667 20.267h-2.467v-2.467h2.467v2.467zM17.667 16.822h-2.467v-2.489h2.467v2.489zM17.667 13.356h-2.467v-2.978l0.267 0.044c0.711 0.089 1.422 0.289 2.067 0.6l0.133 0.067v2.267zM21.622 18.044c-0.067 0.711-0.222 1.422-0.489 2.067l-0.067 0.156h-2.422v-2.467h3l-0.022 0.244zM20.933 14.333l0.067 0.133c0.311 0.667 0.511 1.356 0.6 2.067l0.044 0.267h-3v-2.467h2.289zM18.644 13.356v-1.711l0.378 0.311c0.378 0.311 0.711 0.644 1.022 1.022l0.311 0.378h-1.711zM24.578 20.267h-2.444l0.089-0.311c0.267-0.8 0.4-1.644 0.4-2.511 0-4.467-3.622-8.089-8.089-8.089-0.844 0-1.689 0.133-2.511 0.4l-0.311 0.089v-2.422h12.844v12.844z"></path>
</symbol>
<symbol id="icon-area-reduction" viewBox="0 0 32 32">
<title>area-reduction</title>
<path d="M6.667 6.667v18.667h18.667v-18.667h-18.667zM24.444 24.444h-16.889v-16.889h16.889v16.889z"></path>
<path d="M22.844 9.089h-13.822v13.822h13.822v-13.822zM21.956 22.022h-12.044v-12.044h12.044v12.044z"></path>
<path d="M19.622 12.289h-7.4v7.4h7.4v-7.4zM18.733 18.822h-5.622v-5.644h5.622v5.644z"></path>
<path d="M15.489 17.511h0.889v-1h1v-0.889h-1v-1h-0.889v1h-1v0.889h1z"></path>
</symbol>
<symbol id="icon-article" viewBox="0 0 32 32">
<title>article</title>
<path d="M14.178 18.689h8.267v-4.244h-8.267v4.244zM21.511 15.378v2.356h-6.4v-2.356h6.4z"></path>
<path d="M6.222 7.822v17.467h0.956v-16.511h17.644v16.511h0.956v-17.467z"></path>
<path d="M14.178 24.356h8.289v0.956h-8.289v-0.956z"></path>
<path d="M14.178 21.044h8.289v0.956h-8.289v-0.956z"></path>
<path d="M9.556 24.356h2.333v0.956h-2.333v-0.956z"></path>
<path d="M9.556 21.044h2.333v0.956h-2.333v-0.956z"></path>
<path d="M9.556 17.733h2.333v0.956h-2.333v-0.956z"></path>
<path d="M9.556 14.444h2.333v0.956h-2.333v-0.956z"></path>
<path d="M9.556 11.133h12.911v0.956h-12.911v-0.956z"></path>
</symbol>
<symbol id="icon-basemap-daily" viewBox="0 0 32 32">
<title>basemap-daily</title>
<path d="M7.222 16c0-2.533 1.089-4.933 3-6.6l0.178-0.156v1.444h0.778v-2.867h-2.844v0.778h1.622l-0.2 0.178c-2.111 1.822-3.311 4.467-3.311 7.222 0 5.244 4.222 9.511 9.444 9.556v-0.778c-4.778-0.067-8.667-3.978-8.667-8.778z"></path>
<path d="M22.267 23.2c2.089-1.822 3.289-4.444 3.289-7.2 0-5.244-4.222-9.511-9.444-9.556v0.778c4.8 0.044 8.667 3.978 8.667 8.778 0 2.533-1.089 4.933-3 6.6l-0.178 0.156v-1.444h-0.778v2.867h2.867v-0.778h-1.622l0.2-0.2z"></path>
<path d="M16.422 14.089h-0.822v1.489h-1.511v0.822h1.511v1.511h0.822v-1.511h1.489v-0.822h-1.489z"></path>
<path d="M16 9.422c-3.622 0-6.578 2.956-6.578 6.578s2.956 6.578 6.578 6.578c3.622 0 6.578-2.956 6.578-6.578s-2.956-6.578-6.578-6.578zM21.244 13.578c0.289 0.6 0.444 1.244 0.511 1.911v0.111h-2.2v-0.089c-0.022-0.644-0.089-1.267-0.222-1.867v-0.133h1.889l0.022 0.067zM18.4 10.733c0.889 0.4 1.667 1.044 2.267 1.844l0.111 0.156h-1.644l-0.022-0.067c-0.222-0.689-0.489-1.289-0.822-1.778l-0.2-0.289 0.311 0.133zM16.4 10.267l0.133 0.067c0.689 0.289 1.311 1.111 1.733 2.267l0.044 0.133h-1.911v-2.467zM15.467 10.333l0.133-0.067v2.467h-1.911l0.044-0.133c0.422-1.156 1.044-1.978 1.733-2.267zM11.333 12.578c0.578-0.8 1.356-1.422 2.267-1.844l0.333-0.156-0.2 0.311c-0.333 0.489-0.622 1.089-0.822 1.778l-0.022 0.067h-1.644l0.089-0.156zM10.244 15.489c0.067-0.667 0.222-1.311 0.511-1.911l0.022-0.067h1.889l-0.022 0.111c-0.111 0.6-0.2 1.222-0.222 1.867v0.089h-2.2l0.022-0.089zM10.756 18.422c-0.289-0.6-0.444-1.244-0.511-1.911v-0.111h2.2v0.089c0.022 0.644 0.089 1.267 0.222 1.867l0.022 0.111h-1.889l-0.044-0.044zM13.6 21.267c-0.889-0.4-1.667-1.044-2.267-1.844l-0.111-0.156h1.644l0.022 0.067c0.222 0.689 0.489 1.289 0.822 1.778l0.2 0.289-0.311-0.133zM15.6 21.733l-0.133-0.067c-0.689-0.289-1.311-1.111-1.733-2.267l-0.044-0.133h1.911v2.467zM13.467 18.489l-0.022-0.089c-0.133-0.6-0.222-1.244-0.244-1.911v-1c0.022-0.667 0.111-1.311 0.244-1.911l0.089 0.022h4.911l0.089-0.022c0.133 0.6 0.222 1.244 0.244 1.911v1c-0.022 0.667-0.111 1.311-0.244 1.911l-0.022 0.089h-5.044zM16.533 21.667l-0.133 0.067v-2.467h1.911l-0.044 0.133c-0.422 1.156-1.044 1.978-1.733 2.267zM20.667 19.422c-0.578 0.8-1.356 1.422-2.267 1.844l-0.333 0.156 0.2-0.289c0.333-0.489 0.622-1.089 0.822-1.778l0.022-0.067h1.644l-0.089 0.133zM21.756 16.511c-0.067 0.667-0.222 1.311-0.511 1.911l-0.022 0.067h-1.889l0.022-0.111c0.111-0.6 0.2-1.222 0.222-1.867v-0.089h2.2l-0.022 0.089z"></path>
</symbol>
<symbol id="icon-basemap-vivid" viewBox="0 0 32 32">
<title>basemap-vivid</title>
<path d="M13.356 21.533c-0.978-0.444-1.822-1.133-2.444-2l-0.133-0.178h1.489l-0.467-0.844h-1.511l-0.022-0.067c-0.311-0.667-0.489-1.356-0.556-2.089v-0.111h0.889l-0.467-0.844h-0.422v-0.111c0.022-0.178 0.044-0.356 0.067-0.533l-0.6-1.133c-0.222 0.711-0.356 1.444-0.356 2.2 0 3.222 2.133 6.022 5.222 6.867l-0.6-1.111-0.089-0.044z"></path>
<path d="M15.533 13.756v1.622h-1.622v0.867h1.622v1.644h0.867v-1.644h1.644v-0.867h-1.644v-1.622z"></path>
<path d="M15.4 21.978c-0.133-0.044-0.244-0.133-0.378-0.222l0.644 1.178c0.111 0 0.222 0 0.333 0 3.933 0 7.133-3.2 7.133-7.133s-3.222-7.133-7.156-7.133c-2.489 0-4.822 1.333-6.111 3.467l0.533 0.978h1.978l-0.022 0.133c-0.133 0.644-0.222 1.333-0.244 2.022v0.111h-0.489l1.6 2.956c-0.133-0.667-0.2-2.178-0.222-2.244v-0.889c0.022-0.667 0.067-1.356 0.222-2.022l0.022-0.089h5.511l0.022 0.089c0.156 0.644 0.244 1.333 0.267 2.067 0.022 0.244 0.022 0.622 0 1.089-0.022 0.733-0.111 1.422-0.267 2.067l-0.022 0.089h-5.489l0.467 0.844h1.822v2.689l-0.156-0.044zM12.6 12.2l-0.022 0.067h-1.8l0.133-0.178c0.644-0.867 1.489-1.556 2.444-2l0.356-0.156-0.222 0.311c-0.356 0.556-0.644 1.2-0.889 1.956zM15.533 12.267h-2.089l0.044-0.156c0.444-1.244 1.133-2.156 1.867-2.467l0.156-0.067v2.689zM22.244 16.356c-0.067 0.733-0.244 1.422-0.556 2.089l-0.022 0.067h-2.044l0.022-0.133c0.133-0.644 0.222-1.333 0.244-2.022v-0.111h2.378l-0.022 0.111zM21.689 13.178c0.311 0.667 0.489 1.356 0.556 2.089v0.111h-2.378v-0.111c-0.022-0.711-0.111-1.378-0.244-2.022l-0.022-0.133h2.044l0.044 0.067zM16.4 12.267v-2.689l0.156 0.067c0.733 0.311 1.422 1.222 1.889 2.467l0.044 0.156h-2.089zM18.444 10.267l-0.222-0.311 0.356 0.156c0.978 0.444 1.822 1.133 2.444 2l0.133 0.178h-1.8l-0.022-0.067c-0.222-0.778-0.533-1.422-0.889-1.956zM19.356 19.444l0.022-0.067h1.8l-0.133 0.178c-0.644 0.867-1.489 1.556-2.444 2l-0.378 0.133 0.222-0.311c0.356-0.533 0.667-1.2 0.911-1.933zM16.4 19.356h2.089l-0.044 0.156c-0.444 1.244-1.133 2.156-1.889 2.467l-0.156 0.067v-2.689z"></path>
<path d="M20.73 6.74l0.731 0.422-0.822 1.424-0.731-0.422 0.822-1.424z"></path>
<path d="M23.564 8.907l0.543 0.647-1.26 1.057-0.543-0.647 1.26-1.057z"></path>
<path d="M25.741 12.718l-1.545 0.563-0.289-0.794 1.545-0.563 0.289 0.794z"></path>
<path d="M24.578 15.4h1.644v0.844h-1.644v-0.844z"></path>
<path d="M22.333 19.489l2.4 4.467h-8.778l-0.022-0.067-8.733-16.222h8.8l0.444 0.8c0.356 0.022 0.689 0.067 1.044 0.133l-0.978-1.8h-10.733l9.667 18.022h10.733l-3.356-6.267c-0.156 0.311-0.311 0.644-0.489 0.933z"></path>
</symbol>
<symbol id="icon-basemap" viewBox="0 0 32 32">
<title>basemap</title>
<path d="M5.533 25.044h20.933l-2.978-6.267c-0.156 0.267-0.356 0.556-0.533 0.8l2.2 4.622h-18.311l2.2-4.622c-0.2-0.267-0.378-0.533-0.533-0.8l-2.978 6.267z"></path>
<path d="M16 6.067c-4.578 0-8.289 3.711-8.289 8.289s3.711 8.289 8.289 8.289c4.578 0 8.289-3.711 8.289-8.289s-3.733-8.289-8.289-8.289zM10 9.933c0.756-1.022 1.756-1.844 2.911-2.356l0.689-0.311-0.422 0.622c-0.422 0.622-0.778 1.378-1.044 2.244l-0.044 0.156h-2.333l0.244-0.356zM8.578 13.711c0.067-0.867 0.289-1.689 0.667-2.467l0.067-0.133h2.556l-0.044 0.244c-0.156 0.756-0.244 1.556-0.289 2.356v0.2h-2.978l0.022-0.2zM9.222 17.467c-0.356-0.778-0.578-1.622-0.667-2.467l-0.022-0.222h2.956v0.2c0.022 0.822 0.133 1.622 0.289 2.356l0.044 0.244h-2.533l-0.067-0.111zM12.911 21.133c-1.156-0.533-2.156-1.356-2.911-2.378l-0.244-0.333h2.333l0.044 0.156c0.267 0.867 0.622 1.622 1.044 2.244l0.422 0.622-0.689-0.311zM15.578 21.778l-0.289-0.133c-0.889-0.378-1.711-1.444-2.244-2.933l-0.111-0.289h2.644v3.356zM15.578 17.6h-2.889l-0.022-0.178c-0.178-0.756-0.267-1.578-0.311-2.444v-0.222h3.244v2.844zM15.578 13.933h-3.222v-0.222c0.044-0.844 0.133-1.667 0.311-2.444l0.044-0.156h2.889v2.822zM15.578 10.289h-2.644l0.111-0.289c0.533-1.489 1.356-2.556 2.244-2.933l0.289-0.133v3.356zM16.422 6.933l0.289 0.133c0.889 0.378 1.711 1.444 2.244 2.933l0.111 0.289h-2.644v-3.356zM16.422 11.111h2.867l0.044 0.156c0.178 0.756 0.267 1.578 0.311 2.444v0.222h-3.222v-2.822zM16.422 14.778h3.244v0.222c-0.044 0.844-0.133 1.667-0.311 2.444l-0.044 0.156h-2.889v-2.822zM16.711 21.644l-0.289 0.133v-3.356h2.644l-0.111 0.289c-0.533 1.489-1.356 2.556-2.244 2.933zM22 18.756c-0.756 1.022-1.756 1.844-2.911 2.356l-0.689 0.311 0.422-0.622c0.422-0.622 0.778-1.378 1.044-2.244l0.044-0.156h2.333l-0.244 0.356zM23.422 15c-0.067 0.867-0.289 1.689-0.667 2.467l-0.067 0.133h-2.556l0.044-0.267c0.156-0.756 0.244-1.556 0.289-2.356v-0.2h2.956v0.222zM22.756 11.222c0.356 0.778 0.578 1.622 0.667 2.467l0.022 0.222h-2.956v-0.2c-0.022-0.822-0.133-1.622-0.289-2.378l-0.067-0.222h2.556l0.067 0.111zM22.244 10.289h-2.333l-0.044-0.156c-0.267-0.867-0.622-1.622-1.044-2.244l-0.422-0.622 0.689 0.311c1.156 0.533 2.156 1.333 2.911 2.356l0.244 0.356z"></path>
</symbol>
<symbol id="icon-basic-imagery" viewBox="0 0 32 32">
<title>basic-imagery</title>
<path d="M24.156 24.644h-16.311v-17.289h16.333v17.289zM8.844 23.644h14.333v-15.289h-14.333v15.289z"></path>
<path d="M21.733 20.733h-11.689l3.622-4.844h0.267c0.178 0 0.356 0.089 0.444 0.244l0.867 1.378 2.444-3.089 4.044 6.311zM12.044 19.733h7.867l-2.311-3.622-1.689 2.156c-0.156 0.2-0.4 0.333-0.667 0.333-0.289 0-0.578-0.156-0.733-0.4l-0.6-0.956-1.867 2.489z"></path>
<path d="M13.178 15.511c-1.089 0-1.956-0.889-1.956-1.956 0-1.089 0.889-1.956 1.956-1.956s1.956 0.889 1.956 1.956c0 1.067-0.889 1.956-1.956 1.956zM13.178 12.578c-0.533 0-0.956 0.422-0.956 0.956s0.422 0.956 0.956 0.956 0.956-0.422 0.956-0.956c0-0.511-0.444-0.956-0.956-0.956z"></path>
</symbol>
<symbol id="icon-buildings" viewBox="0 0 32 32">
<title>buildings</title>
<path d="M26.889 25.667h-3.178v-16.756h-5.533v16.756h-4.022v-9.511h-5.489v9.511h-4v-0.889h3.111v-9.511h7.267v9.511h2.244v-16.756h7.311v16.756h2.289z"></path>
<path d="M21.844 6.333h0.889v1.733h-0.889v-1.733z"></path>
<path d="M19.333 6.333h0.889v1.733h-0.889v-1.733z"></path>
<path d="M9.578 17.333h3.444v0.889h-3.444v-0.889z"></path>
<path d="M9.578 19.689h3.444v0.889h-3.444v-0.889z"></path>
<path d="M9.578 22.2h3.444v0.889h-3.444v-0.889z"></path>
<path d="M9.578 24.778h3.444v0.889h-3.444v-0.889z"></path>
<path d="M19.311 17.333h3.444v0.889h-3.444v-0.889z"></path>
<path d="M19.311 19.689h3.444v0.889h-3.444v-0.889z"></path>
<path d="M19.311 22.2h3.444v0.889h-3.444v-0.889z"></path>
<path d="M19.311 24.778h3.444v0.889h-3.444v-0.889z"></path>
<path d="M19.311 9.933h3.444v0.889h-3.444v-0.889z"></path>
<path d="M19.311 12.467h3.444v0.889h-3.444v-0.889z"></path>
<path d="M19.311 15.022h3.444v0.889h-3.444v-0.889z"></path>
</symbol>
<symbol id="icon-capacity-delivery" viewBox="0 0 32 32">
<title>capacity-delivery</title>
<path d="M24.911 7.6l-5.6 0.022 0.022 1.111 4.467-0.022 0.089 15.2-15.689 0.067 0.133-15.178 4.156-0.022v-1.111l-5.267 0.022-0.133 17.422 17.911-0.111z"></path>
<path d="M12.356 14.267l3.444 3.422 3.444-3.467-0.8-0.778-2.089 2.111-0.044-10.333-1.111 0.022 0.044 10.333-2.111-2.089z"></path>
</symbol>
<symbol id="icon-chat" viewBox="0 0 32 32">
<title>chat</title>
<path d="M6.444 7.778v12.133h4.111v4.444l5.511-4.444h9.489v-12.133h-19.111zM11.489 22.378v-3.422h-4.111v-10.244h17.244v10.244h-8.889l-4.244 3.422z"></path>
<path d="M8.867 11.444h8.889v0.933h-8.889v-0.933z"></path>
<path d="M8.867 13.444h11.933v0.933h-11.933v-0.933z"></path>
<path d="M8.867 15.467h6.667v0.933h-6.667v-0.933z"></path>
</symbol>
<symbol id="icon-civil-government" viewBox="0 0 32 32">
<title>civil-government</title>
<path d="M5.556 18.511h1.156v4.911h-1.156v-4.911z"></path>
<path d="M8.822 18.511h1.156v4.911h-1.156v-4.911z"></path>
<path d="M12.067 18.511h1.156v4.911h-1.156v-4.911z"></path>
<path d="M19.444 11.822h5.422v10.444h-4.289v-6.844h-4.111v-0.244c0-2.711-2.022-5.044-4.711-5.4h-0.156v-1.356h-1.156v1.356l-0.156 0.022c-2.711 0.356-4.733 2.689-4.733 5.4v1.378h7.667v-1.156h-6.511v-0.244c0-2.378 1.933-4.311 4.311-4.311 2.378 0.022 4.311 1.956 4.311 4.333v1.378h4.111v5.711h-2.978v-3.778h-1.133v4.911h9.533v2.067h1.156v-18.978h-6.578v5.311zM20.6 10.489v-2.844h4.267v3.022h-4.289v-0.178z"></path>
</symbol>
<symbol id="icon-cloud-services-monitor" viewBox="0 0 32 32">
<title>cloud-services-monitor</title>
<path d="M25.444 22.667v-12.622h-3.2v1.133h2.067v10.333h-16.622v-10.311h2.044v-1.133h-3.178v12.6h6.511v1.956h-1.489v1.133h8.844v-1.133h-1.489v-1.956h6.511zM17.8 24.622h-3.6v-1.956h3.578v1.956z"></path>
<path d="M16.222 16.667l-0.822-0.8-1.578 1.6v-10.844h-1.156v10.844l-1.6-1.6-0.8 0.8 2.978 2.978z"></path>
<path d="M18.2 7.533v10.844h1.133v-10.844l1.6 1.6 0.822-0.822-2.978-2.956-2.978 2.956 0.8 0.822z"></path>
</symbol>
<symbol id="icon-cloud-services" viewBox="0 0 32 32">
<title>cloud-services</title>
<path d="M25.444 16.111c0-1.8-1.2-3.422-2.911-3.956l-0.156-0.044-0.022-0.156c-0.311-1.644-1.756-2.822-3.422-2.822-0.156 0-0.333 0.022-0.556 0.044l-0.178 0.022-0.089-0.156c-0.911-1.467-2.467-2.333-4.2-2.333-2.711 0-4.933 2.222-4.933 4.933 0 0.178 0 0.333 0.022 0.511l0.022 0.2-0.178 0.089c-1.4 0.711-2.289 2.111-2.289 3.689 0 2.089 1.556 3.822 3.6 4.089v-0.889c-1.533-0.267-2.711-1.622-2.711-3.2 0-1.111 0.556-2.133 1.489-2.733 0.333-0.222 0.733-0.378 1.111-0.444-0.133-0.378-0.2-0.756-0.2-1.178v-0.044c0-0.022 0-0.044 0-0.089 0-2.244 1.822-4.067 4.067-4.067 1.289 0 2.511 0.622 3.267 1.667 0.244 0.311 0.422 0.667 0.556 1.044 0.378-0.2 0.778-0.289 1.2-0.289h0.022c1.044 0 1.978 0.644 2.378 1.6 0.133 0.311 0.2 0.667 0.2 1 0 0.089 0 0.156-0.022 0.244 0.422 0.022 0.822 0.133 1.2 0.311 1.133 0.533 1.867 1.689 1.867 2.933 0 1.6-1.178 2.956-2.733 3.222v0.889c2.044-0.244 3.6-2 3.6-4.089z"></path>
<path d="M21.178 22.667l-0.622-0.6-1.578 1.556v-9.044h-0.867v9.044l-1.556-1.556-0.622 0.6 2.622 2.622z"></path>
<path d="M16.067 16.044l-2.622-2.622-2.6 2.622 0.6 0.622 1.578-1.578v9.067h0.867v-9.044l1.556 1.556z"></path>
</symbol>
<symbol id="icon-collaboration" viewBox="0 0 32 32">
<title>collaboration</title>
<path d="M24.333 7.422c0-0.822-0.667-1.489-1.489-1.489s-1.489 0.667-1.489 1.489c0 0.133 0.022 0.289 0.067 0.422l-10.156 4.511c-0.267-0.2-0.578-0.333-0.933-0.333-0.822 0-1.489 0.667-1.489 1.489 0 0.644 0.422 1.2 1 1.4l-1.067 8.2c-0.622 0.178-1.089 0.756-1.089 1.444 0 0.822 0.667 1.489 1.489 1.489 0.711 0 1.311-0.511 1.467-1.178l9.978-3.711c0.222 0.133 0.489 0.222 0.778 0.222 0.822 0 1.489-0.667 1.489-1.489 0-0.511-0.267-0.956-0.644-1.222l1-9.844c0.622-0.133 1.089-0.711 1.089-1.4zM21.044 18.467l-1.578-4.111c0.311-0.267 0.489-0.667 0.489-1.111 0-0.333-0.111-0.644-0.289-0.889l2.644-3.111-0.956 9.2c-0.089-0.022-0.2 0-0.311 0.022zM11.178 14.756l1.911 2.4c-0.111 0.222-0.2 0.467-0.2 0.733 0 0.311 0.111 0.622 0.267 0.867l-3.422 4.444c-0.022-0.022-0.067-0.022-0.089-0.022l1.067-8.2c0.178-0.044 0.333-0.133 0.467-0.222zM15.867 18.222c0.022-0.111 0.044-0.222 0.044-0.333 0-0.222-0.044-0.444-0.133-0.622l2.378-2.556c0.111 0.022 0.222 0.044 0.333 0.044 0.067 0 0.133 0 0.178-0.022l1.6 4.2c-0.111 0.133-0.2 0.289-0.267 0.444l-4.133-1.156zM11.756 13.956l5.289-0.244c0.067 0.2 0.178 0.378 0.311 0.533l-2.2 2.378c-0.222-0.133-0.489-0.2-0.756-0.2-0.244 0-0.467 0.067-0.667 0.156l-2-2.533c0.022-0.044 0.022-0.067 0.022-0.089zM18.467 13.844c-0.333 0-0.6-0.267-0.6-0.6s0.267-0.6 0.6-0.6 0.6 0.267 0.6 0.6-0.267 0.6-0.6 0.6zM13.8 17.889c0-0.333 0.267-0.6 0.6-0.6s0.6 0.267 0.6 0.6c0 0.333-0.267 0.6-0.6 0.6s-0.6-0.267-0.6-0.6zM18.956 11.822c-0.156-0.044-0.311-0.089-0.467-0.089-0.667 0-1.244 0.444-1.444 1.067l-5.156 0.244 9.667-4.311-2.6 3.089zM10.422 23.778l3.467-4.489c0.156 0.067 0.333 0.089 0.511 0.089 0.378 0 0.711-0.133 0.978-0.378l4.556 1.267c0.022 0.067 0.044 0.133 0.067 0.2l-9.444 3.511c-0.044-0.067-0.089-0.133-0.133-0.2zM22.844 6.8c0.333 0 0.6 0.267 0.6 0.6s-0.267 0.6-0.6 0.6-0.6-0.267-0.6-0.6 0.267-0.6 0.6-0.6zM10.333 12.911c0.333 0 0.6 0.267 0.6 0.6s-0.267 0.6-0.6 0.6c-0.333 0-0.6-0.267-0.6-0.6s0.267-0.6 0.6-0.6zM9.156 25.2c-0.333 0-0.6-0.267-0.6-0.6s0.267-0.6 0.6-0.6c0.333 0 0.6 0.267 0.6 0.6 0.022 0.311-0.267 0.6-0.6 0.6zM21.378 20.533c-0.333 0-0.6-0.267-0.6-0.6s0.267-0.6 0.6-0.6c0.333 0 0.6 0.267 0.6 0.6s-0.267 0.6-0.6 0.6z"></path>
</symbol>
<symbol id="icon-collection-request" viewBox="0 0 32 32">
<title>collection-request</title>
<path d="M14.756 19.822l2.044 5.556 0.133-0.067v0.178h8.622v-8.711l-9.978-2.844v-2.111h2.4l1.578-5.333h-4.867l-0.244 0.889h3.956l-1.067 3.6h-1.756v-1.844h-3.467l0.778-2.622h-4.867l-1.578 5.333h3.933v7.378l-0.889 1.556h1l0.578-1h1.489v1h0.867v-1h1.311l0.022 0.044zM24.689 24.622h-6.911v-6.911h6.911v6.911zM22.644 16.844h-5.733v6.356l-3.289-8.911 9.022 2.556zM10.667 10.978h-3.067l1.067-3.6h3.067l-1.067 3.6zM11.244 18.889l0.022-6.867 0.6-2.022h2.867v3.689l-1.511-0.422-0.622 0.689 1.8 4.933h-3.156z"></path>
</symbol>
<symbol id="icon-consistent-coverage" viewBox="0 0 32 32">
<title>consistent-coverage</title>
<path d="M27.222 13.889c-0.044-0.844-0.711-1.556-1.556-1.644l-7.644-0.756c-0.044-0.6-0.111-1.756-0.289-2.933-0.333-2.422-0.756-3.533-1.489-3.689-0.089-0.044-0.178-0.089-0.289-0.089-0.333 0-0.578 0.267-0.844 0.644-0.467 0.689-0.889 4.556-1.044 5.978l-7.956 1.133c-0.844 0.111-1.467 0.889-1.4 1.733l0.022 0.356c0.044 0.844 0.756 1.511 1.6 1.511l7.467-0.111c0.4 0 0.733 0.311 0.733 0.711l0.111 3.733c-2.267 0.444-3.533 0.911-3.778 1.422-0.333 0.711-0.178 1.311-0.133 1.4 0.044 0.178 0.311 0.689 1.356 0.689 0.778 0 2.044-0.022 2.689-0.022 0.2 0.6 0.756 1.044 1.422 1.044 0.689 0 1.267-0.467 1.444-1.111l2.978-0.067c0.111 0 0.511 0 0.778-0.311 0.133-0.133 0.267-0.378 0.244-0.756-0.044-0.622-0.156-1.022-0.644-1.467-0.089-0.089-0.356-0.333-3.444-0.889l-0.022-3.489c0-0.222 0.089-0.444 0.244-0.622 0.156-0.156 0.378-0.244 0.622-0.244l7.2 0.022c0 0 0 0 0 0 0.444 0 0.867-0.178 1.178-0.489s0.467-0.756 0.444-1.2v-0.489zM26.111 14.933c-0.133 0.133-0.289 0.2-0.489 0.2l-7.178-0.022c-0.489 0-0.956 0.2-1.289 0.533-0.333 0.356-0.533 0.8-0.533 1.289l0.022 4.289 0.4 0.067c1.4 0.244 3.067 0.6 3.378 0.756 0.222 0.2 0.267 0.333 0.311 0.8 0 0.022 0 0.022 0 0.022-0.022 0-0.022 0-0.044 0h-0.022l-3.933 0.089 0.044 0.511c0 0.022 0 0.022 0 0.067 0 0.289-0.244 0.511-0.533 0.511s-0.511-0.222-0.533-0.511l0.022-0.556h-0.511c-0.2 0-2.067 0.022-3.111 0.044-0.244 0-0.4-0.044-0.444-0.067-0.022-0.089-0.022-0.333 0.089-0.622 0.311-0.267 2.044-0.733 3.489-1l0.4-0.067-0.133-4.556c-0.022-0.933-0.778-1.644-1.689-1.644l-7.467 0.111c-0.333 0-0.622-0.267-0.644-0.6v-0.356c-0.022-0.356 0.244-0.667 0.578-0.711l8.711-1.244 0.044-0.378c0.267-2.844 0.689-5.533 0.911-5.911 0.044-0.067 0.089-0.111 0.111-0.156 0.444 0.444 0.911 3.178 1.044 6.133l0.022 0.422 8.467 0.844c0.378 0.044 0.667 0.356 0.689 0.733l0.022 0.511c0 0.156-0.067 0.333-0.2 0.467z"></path>
</symbol>
<symbol id="icon-context" viewBox="0 0 32 32">
<title>context</title>
<path d="M26.511 25.067l-2.778-2.822c0.333-0.6 0.533-1.311 0.533-2.067 0-1.244-0.556-2.378-1.422-3.156 0.244-0.8 0.378-1.622 0.378-2.511 0-4.711-3.844-8.556-8.556-8.556s-8.556 3.844-8.556 8.556 3.844 8.556 8.556 8.556c0.733 0 1.422-0.089 2.089-0.267 0.778 0.956 1.956 1.578 3.289 1.578 0.756 0 1.467-0.2 2.089-0.556l2.8 2.822 1.578-1.578zM8.444 9.933c0.778-1.044 1.8-1.889 2.978-2.422l0.8-0.378-0.489 0.733c-0.422 0.644-0.778 1.4-1.067 2.289l-0.044 0.178h-2.467l0.289-0.4zM6.956 13.844c0.089-0.889 0.311-1.756 0.689-2.556l0.067-0.133h2.689l-0.067 0.289c-0.156 0.778-0.244 1.578-0.289 2.422v0.244h-3.111l0.022-0.267zM7.644 17.756c-0.378-0.8-0.6-1.667-0.689-2.556l-0.022-0.267h3.111v0.244c0.022 0.844 0.133 1.667 0.289 2.422l0.067 0.289h-2.689l-0.067-0.133zM11.444 21.533c-1.2-0.533-2.222-1.378-3-2.422l-0.289-0.4h2.467l0.044 0.178c0.289 0.867 0.644 1.644 1.067 2.289l0.489 0.733-0.778-0.378zM14.267 22.244l-0.356-0.156c-0.911-0.4-1.756-1.511-2.311-3.044l-0.111-0.333h2.778v3.533zM14.267 17.889h-3.022l-0.044-0.2c-0.178-0.778-0.289-1.622-0.311-2.511v-0.267h3.378v2.978zM14.267 14.111h-3.4v-0.267c0.044-0.889 0.156-1.733 0.311-2.511l0.044-0.2h3.022v2.978zM14.267 10.311h-2.8l0.111-0.333c0.556-1.533 1.4-2.644 2.311-3.044l0.356-0.156v3.533zM21.689 11.289c0.378 0.8 0.6 1.667 0.689 2.556l0.022 0.267h-3.111v-0.244c-0.022-0.844-0.133-1.667-0.289-2.422l-0.067-0.289h2.689l0.067 0.133zM22.4 14.933l-0.022 0.267c-0.044 0.444-0.111 0.889-0.222 1.311-0.622-0.356-1.333-0.556-2.089-0.556-0.289 0-0.556 0.022-0.844 0.089 0.022-0.289 0.044-0.578 0.067-0.867v-0.244h3.111zM17.889 7.489c1.178 0.533 2.2 1.378 2.978 2.422l0.289 0.4h-2.444l-0.044-0.156c-0.289-0.867-0.644-1.644-1.067-2.289l-0.489-0.733 0.778 0.356zM15.089 6.8l0.356 0.156c0.911 0.4 1.756 1.511 2.311 3.044l0.111 0.333h-2.778v-3.533zM15.089 11.133h3l0.044 0.2c0.178 0.778 0.289 1.622 0.311 2.511v0.267h-3.356v-2.978zM15.089 14.933h3.378v0.267c-0.022 0.378-0.044 0.756-0.089 1.133-0.756 0.333-1.4 0.889-1.844 1.578h-1.422v-2.978zM15.422 22.089l-0.356 0.156v-3.533h1.022c-0.178 0.444-0.267 0.956-0.267 1.467s0.089 1.022 0.267 1.467c-0.2 0.2-0.422 0.333-0.667 0.444zM20.044 23.711c-1.956 0-3.533-1.578-3.533-3.533s1.578-3.533 3.533-3.533c1.956 0 3.533 1.578 3.533 3.533 0 0.556-0.133 1.089-0.378 1.578l-0.467 0.578c-0.156 0.2-0.333 0.378-0.533 0.533l-0.556 0.467c-0.467 0.244-1.022 0.378-1.6 0.378zM23.289 23.044l1.978 2-0.333 0.356-1.978-2c0.111-0.111 0.222-0.222 0.333-0.356z"></path>
</symbol>
<symbol id="icon-country-specific-layers" viewBox="0 0 32 32">
<title>country-specific-layers</title>
<path d="M24.844 14.533l2.711-1.356-11.622-5.667-11.289 5.667 2.756 1.4-2.733 1.4 2.756 1.422-2.978 1.511 11.489 5.6 11.556-5.356-2.8-1.733 2.822-1.422-2.667-1.467zM15.933 8.489l9.622 4.689-9.467 4.778-9.467-4.778 9.311-4.689zM8.378 15.067l7.711 3.911 7.8-3.956 1.711 0.933-9.667 4.844-9.333-4.822 1.778-0.911zM25.622 19.022l-9.689 4.489-9.489-4.622 1.933-1 7.556 3.911 7.822-3.933 1.867 1.156z"></path>
</symbol>
<symbol id="icon-coverage-needs" viewBox="0 0 32 32">
<title>coverage-needs</title>
<path d="M6 25.644h20v-0.911h-6l0.089-0.378c0.022-0.067 0.022-0.111 0.022-0.156 0-0.378-0.311-0.689-0.689-0.689s-0.689 0.311-0.689 0.689c0 0.044 0 0.111 0.022 0.156l0.089 0.378h-5.711l0.089-0.378c0.022-0.067 0.022-0.111 0.022-0.156 0-0.378-0.311-0.689-0.689-0.689s-0.689 0.311-0.689 0.689c0 0.044 0 0.089 0.022 0.156l0.089 0.378h-5.978v0.911z"></path>
<path d="M21.689 16.533l0.311-0.489c0.978-1.533 1.356-3.356 1.044-5.133-0.6-3.422-3.556-5.889-7.044-5.889-0.422 0-0.844 0.044-1.244 0.111-1.889 0.333-3.533 1.378-4.622 2.933-0.978 1.4-1.422 3.089-1.267 4.778h0.911c-0.089-0.889 0-1.8 0.289-2.644l0.111-0.311 0.311 0.111c0.533 0.2 1.111 0.356 1.733 0.444l0.267 0.044 0.022 0.267c0.022 0.667 0.111 1.333 0.222 2.022 0.2 1.178 0.556 2.333 1.022 3.333l0.2 0.444h-3.511l-0.289-1.533h-2.244v0.911h1.489l0.044 0.244 1.178 6.289h10.556l1.822-5.911h-1.311zM22.244 12.044c0.022 1.622-0.578 3.2-1.689 4.4l-0.089 0.089h-1.178l0.067-0.378c0.156-0.844 0.2-1.778 0.156-2.778l-0.022-0.222 0.2-0.089c0.778-0.356 1.444-0.778 2.044-1.267l0.489-0.422 0.022 0.667zM20.689 8.022l0.2 0.244c0.444 0.556 0.778 1.178 1 1.844l0.067 0.178-0.111 0.156c-0.489 0.578-1.178 1.111-2.044 1.578l-0.4 0.2-0.067-0.444c-0.022-0.089-0.022-0.133-0.044-0.2-0.111-0.667-0.289-1.333-0.489-1.956l-0.089-0.244 0.222-0.133c0.556-0.289 1.044-0.622 1.489-1l0.267-0.222zM17.733 6.156c0.733 0.2 1.4 0.533 2 1l0.311 0.244-0.311 0.244c-0.311 0.267-0.667 0.489-1.022 0.711l-0.289 0.178-0.133-0.311c-0.267-0.6-0.556-1.111-0.889-1.556l-0.533-0.733 0.867 0.222zM18.622 13.933c0.022 0.844-0.067 1.667-0.222 2.356l-0.044 0.244h-3.422l-0.089-0.156c-0.267-0.489-0.511-1.044-0.711-1.644l-0.133-0.4 0.422-0.022c0.644-0.022 1.289-0.089 1.933-0.2s1.267-0.267 1.867-0.467l0.4-0.133v0.422zM13.4 9.289c0.044-0.489 0.111-0.933 0.2-1.333 0.267-1.111 0.756-1.844 1.311-1.956 0.778-0.133 1.778 0.867 2.556 2.556l0.133 0.311-0.311 0.111c-0.556 0.2-1.156 0.356-1.756 0.467s-1.222 0.156-1.822 0.156h-0.333l0.022-0.311zM12.8 7.467c-0.022 0.089-0.044 0.2-0.067 0.289-0.111 0.422-0.178 0.933-0.222 1.467l-0.044 0.333-0.333-0.067c-0.4-0.067-0.8-0.178-1.2-0.311l-0.378-0.133 0.244-0.356c0.022-0.044 0.044-0.089 0.089-0.111 0.4-0.556 0.867-1.044 1.422-1.467l0.733-0.533-0.244 0.889zM13.756 13.422l-0.044-0.244c-0.044-0.2-0.089-0.378-0.111-0.578-0.111-0.578-0.178-1.156-0.2-1.733l-0.022-0.333h0.333c0.644 0 1.333-0.067 1.978-0.178 0.667-0.111 1.311-0.289 1.911-0.511l0.311-0.111 0.089 0.311c0.156 0.533 0.289 1.111 0.4 1.689 0.044 0.2 0.067 0.4 0.089 0.578l0.044 0.244-0.244 0.111c-0.667 0.244-1.378 0.422-2.111 0.556s-1.467 0.2-2.178 0.2h-0.244zM20.533 21.533h-9.133l-0.778-4.089h11.178l-1.267 4.089z"></path>
</symbol>
<symbol id="icon-crowdsourcing" viewBox="0 0 32 32">
<title>crowdsourcing</title>
<path d="M16 10.733c1.333 0 2.4-1.067 2.4-2.4s-1.067-2.4-2.4-2.4-2.4 1.067-2.4 2.4 1.067 2.4 2.4 2.4zM16 6.822c0.822 0 1.511 0.667 1.511 1.511s-0.667 1.511-1.511 1.511-1.511-0.667-1.511-1.511 0.689-1.511 1.511-1.511z"></path>
<path d="M16.356 11.089h-0.689c-1.378 0-2.489 1.111-2.489 2.489v3.2h5.667v-3.2c-0.022-1.356-1.133-2.489-2.489-2.489zM17.933 15.889h-3.867v-2.311c0-0.889 0.711-1.6 1.6-1.6h0.689c0.889 0 1.6 0.711 1.6 1.6v2.311z"></path>
<path d="M22.956 18.689c1.333 0 2.4-1.067 2.4-2.4s-1.067-2.4-2.4-2.4-2.4 1.067-2.4 2.4 1.067 2.4 2.4 2.4zM22.956 14.778c0.822 0 1.511 0.667 1.511 1.511 0 0.822-0.667 1.511-1.511 1.511s-1.511-0.667-1.511-1.511c0-0.844 0.667-1.511 1.511-1.511z"></path>
<path d="M23.289 19.044h-0.689c-1.378 0-2.489 1.111-2.489 2.489v3.2h5.667v-3.2c0-1.378-1.111-2.489-2.489-2.489zM24.889 23.844h-3.889v-2.311c0-0.889 0.711-1.6 1.6-1.6h0.689c0.889 0 1.6 0.711 1.6 1.6v2.311z"></path>
<path d="M9.044 18.689c1.333 0 2.4-1.067 2.4-2.4s-1.067-2.4-2.4-2.4-2.4 1.067-2.4 2.4 1.089 2.4 2.4 2.4zM9.044 14.778c0.822 0 1.511 0.667 1.511 1.511 0 0.822-0.667 1.511-1.511 1.511s-1.511-0.667-1.511-1.511c0-0.844 0.689-1.511 1.511-1.511z"></path>
<path d="M9.4 19.044h-0.689c-1.378 0-2.489 1.111-2.489 2.489v3.2h5.667v-3.2c0-1.378-1.111-2.489-2.489-2.489zM11 23.844h-3.889v-2.311c0-0.889 0.711-1.6 1.6-1.6h0.689c0.889 0 1.6 0.711 1.6 1.6v2.311z"></path>
<path d="M16.444 17.933h-0.889v2.378l-2.333 1.4 0.467 0.778 2.289-1.4 2.2 1.378 0.467-0.733-2.2-1.422z"></path>
</symbol>
<symbol id="icon-custom-software" viewBox="0 0 32 32">
<title>custom-software</title>
<path d="M23.444 6.067h-14.889c-1.378 0-2.511 1.111-2.511 2.489v14.889c0 1.378 1.111 2.489 2.511 2.489h14.889c1.378 0 2.489-1.111 2.489-2.489v-14.889c0.022-1.378-1.111-2.489-2.489-2.489zM24.956 8.556v6.911h-2.356c-0.044-0.356-0.2-0.822-0.578-1.2-0.422-0.422-1-0.644-1.756-0.644-1.511 0-2.2 0.889-2.356 1.844h-1.4v-2.289c0-0.156-0.067-0.311-0.178-0.422s-0.267-0.178-0.422-0.156c-0.133 0-0.6 0-0.911-0.311-0.222-0.222-0.333-0.556-0.333-1.022s0.111-0.822 0.356-1.067c0.333-0.333 0.822-0.333 0.933-0.333 0.156 0 0.289-0.067 0.4-0.156 0.111-0.111 0.156-0.244 0.156-0.4v-2.244h6.933c0.822 0 1.511 0.667 1.511 1.489zM8.556 7.067h6.933v1.822c-0.356 0.067-0.822 0.222-1.2 0.6-0.422 0.422-0.644 1.022-0.644 1.778s0.222 1.333 0.644 1.756c0.378 0.378 0.844 0.511 1.2 0.556v1.889h-2.378c-0.356 0-0.644 0.289-0.644 0.644 0 0.8-0.467 1.2-1.333 1.2-1.133 0-1.378-0.667-1.4-1.222 0-0.333-0.289-0.6-0.622-0.6h-2.022v-6.933c-0.022-0.822 0.644-1.489 1.467-1.489zM7.067 23.444v-6.978h1.689c0.156 0.933 0.844 1.844 2.356 1.844 1.533 0 2.178-0.889 2.311-1.844h2.067v1.956c0 0.333 0.267 0.6 0.6 0.6 0.578 0 1.244 0.267 1.244 1.4 0 0.467-0.111 0.822-0.333 1.044-0.333 0.311-0.822 0.311-0.911 0.311-0.156 0-0.289 0.044-0.4 0.156s-0.178 0.244-0.178 0.4v2.644h-6.956c-0.822-0.022-1.489-0.711-1.489-1.533zM23.444 24.956h-6.933v-2.222c0.356-0.044 0.8-0.2 1.178-0.556 0.444-0.422 0.644-1 0.644-1.756 0-1.533-0.911-2.2-1.844-2.356v-1.6h1.733c0.356 0 0.622-0.267 0.644-0.622 0.022-0.556 0.289-1.222 1.4-1.222 0.467 0 0.822 0.111 1.022 0.333 0.289 0.311 0.311 0.756 0.311 0.889 0 0.156 0.067 0.311 0.178 0.422s0.267 0.178 0.422 0.178h2.733v6.978c0.022 0.844-0.667 1.533-1.489 1.533z"></path>
</symbol>
<symbol id="icon-customer-reseller-training" viewBox="0 0 32 32">
<title>customer-reseller-training</title>
<path d="M18.378 21.756h-11.778v-14.444h11.778v1.111h-10.667v12.222h10.667z"></path>
<path d="M23.933 25.756h-3.667l-1.422-10.711-6.156-0.222 1.844-2.6h6.533l0.556 0.911 0.667-1.267 2.756 0.067v5.467l-1.089 1.378-0.022 6.978zM21.244 24.644h1.578l0.022-6.267 1.089-1.378v-4l-0.978-0.022-1.267 2.4-1.244-2.067h-5.333l-0.311 0.467 5.022 0.178 1.422 10.689z"></path>
<path d="M21.644 11.333c-1.378 0-2.489-1.111-2.489-2.489s1.111-2.489 2.489-2.489 2.489 1.111 2.489 2.489-1.133 2.489-2.489 2.489zM21.644 7.467c-0.756 0-1.378 0.622-1.378 1.378s0.622 1.378 1.378 1.378 1.378-0.622 1.378-1.378-0.622-1.378-1.378-1.378z"></path>
</symbol>
<symbol id="icon-data-analysis" viewBox="0 0 32 32">
<title>data-analysis</title>
<path d="M6.267 8.378v15.267h19.444v-15.267h-19.444zM24.933 11.867l-4.556 5.933c-0.133-0.089-0.289-0.156-0.444-0.222v-8.444h5.022v2.733zM19.044 17.6c-0.222 0.067-0.422 0.178-0.578 0.311l-4.244-2.822c0-0.067 0.022-0.133 0.022-0.222 0-0.733-0.511-1.333-1.2-1.489v-4.222h6v8.444zM12.067 16.311c0.022 0.022 0.067 0.022 0.089 0.022v6.511h-4.667l4.578-6.533zM13.044 16.378c0.311-0.067 0.578-0.244 0.8-0.467l4.133 2.733c-0.044 0.133-0.067 0.267-0.067 0.422 0 0.689 0.467 1.289 1.133 1.489v2.311h-6v-6.489zM12.156 9.156v4.289c-0.622 0.2-1.067 0.778-1.067 1.467 0 0.333 0.111 0.622 0.267 0.867l-4.311 6.133v-12.756h5.111zM19.933 22.844v-2.289c0.644-0.178 1.133-0.778 1.133-1.489 0-0.2-0.044-0.378-0.111-0.556l4-5.178v9.511h-5.022z"></path>
</symbol>
<symbol id="icon-data-sources" viewBox="0 0 32 32">
<title>data-sources</title>
<path d="M25.489 7.644h-16.822c-0.622 0-1.111 0.511-1.111 1.111v1.444h-1.044c-0.622 0-1.111 0.511-1.111 1.111v11.911c0 0.622 0.511 1.111 1.111 1.111h16.822c0.622 0 1.111-0.511 1.111-1.111v-1.444h1.044c0.622 0 1.111-0.511 1.111-1.111v-11.889c0.022-0.622-0.489-1.133-1.111-1.133zM23.444 23.222c0 0.067-0.044 0.111-0.111 0.111h-16.822c-0.067 0-0.111-0.044-0.111-0.111v-11.889c0-0.067 0.044-0.111 0.111-0.111h7.667l-0.044 0.022 2.178 2.533h7.133v9.444zM23.444 12.778h-6.667l-1.333-1.578h7.889c0.067 0 0.111 0.044 0.111 0.111v1.467zM25.622 20.667c0 0.067-0.044 0.111-0.111 0.111h-1.067v-9.444c0-0.622-0.511-1.111-1.111-1.111h-14.778v-1.444c0-0.067 0.044-0.111 0.111-0.111h16.822c0.067 0 0.111 0.044 0.111 0.111v11.889z"></path>
</symbol>
<symbol id="icon-data-support" viewBox="0 0 32 32">
<title>data-support</title>
<path d="M24.333 25.689v-14.489l-4.889-4.889h-11.778v19.4h16.667zM18.133 21.044c-0.222 1.089-0.356 2.244-0.4 3.422v0.267h-4.311l0.022-0.289c0.089-1.244 0.4-2.444 0.933-3.578l0.067-0.156h3.756l-0.067 0.333zM18.467 19.733h-3.489l0.311-0.444c1.156-1.667 2.756-2.956 4.622-3.711l0.933-0.378-0.622 0.8c-0.689 0.956-1.267 2.133-1.689 3.533l-0.067 0.2zM23.378 24.733h-4.667v-0.289c0.044-1.222 0.2-2.4 0.467-3.533l0.044-0.222h4.156v4.044zM23.378 19.733h-3.911l0.133-0.378c0.8-2.356 2.044-3.956 3.4-4.422l0.378-0.133v4.933zM19.733 7.956l2.956 2.956h-2.956v-2.956zM8.622 7.267h10.133v4.6h4.6v1.956l-0.267 0.022c-5.667 0.378-10.222 4.933-10.6 10.622l-0.022 0.267h-3.844v-17.467z"></path>
<path d="M10.756 9.378h4.956v0.956h-4.956v-0.956z"></path>
<path d="M10.756 12.444h4.956v0.956h-4.956v-0.956z"></path>
</symbol>
<symbol id="icon-defense-and-intelligence" viewBox="0 0 32 32">
<title>defense-and-intelligence</title>
<path d="M6.889 16.533c0 3.578 2.289 5.467 3.644 6.289 0.822 0.489 4.711 2.8 5.178 3.089l0.289 0.178 0.289-0.178c0.444-0.267 4.356-2.578 5.178-3.089 1.356-0.822 3.644-2.711 3.644-6.289v-10.622h-18.222v10.622zM8.044 7.244v-0.2h15.933v1.933h-7.778v1.156h7.778v1.933h-7.778v1.156h7.778v1.867h-7.778v1.133h7.778v0.333c0 0.489-0.044 0.978-0.156 1.444l-0.044 0.156h-7.578v1.156h7.156l-0.156 0.289c-0.333 0.578-0.778 1.111-1.333 1.578l-0.044 0.044h-5.622v1.156h3.867l-0.6 0.356c-1.156 0.689-2.644 1.578-3.378 2l-0.089 0.067-0.089-0.067c-0.667-0.4-4.022-2.4-4.778-2.844-1.4-0.844-3.089-2.444-3.089-5.311v-9.333z"></path>
</symbol>
<symbol id="icon-direct-access" viewBox="0 0 32 32">
<title>direct-access</title>
<path d="M16.578 7.2l3.133 6.333 3.889-1.933-3.133-6.333-3.889 1.933zM20.111 12.333l-2.356-4.733 2.311-1.156 0.644 1.311-1.289 0.644 0.4 0.8 1.289-0.644 0.356 0.733-1.289 0.644 0.4 0.8 1.289-0.644 0.556 1.111-2.311 1.133z"></path>
<path d="M26.089 8.4l-2.044-4.111-2.667 1.311 2.044 4.111 2.667-1.311zM23.644 5.467l1.244 2.533-1.067 0.533-1.244-2.533 1.067-0.533z"></path>
<path d="M18.311 12.222l-2.044-4.111-2.667 1.311 2.044 4.133 2.667-1.333zM15.867 9.311l1.244 2.533-1.067 0.533-1.244-2.533 1.067-0.533z"></path>
<path d="M16.956 16.556c-0.333-0.333-0.711-0.622-1.111-0.889s-0.822-0.489-1.267-0.644c-0.422-0.178-0.867-0.289-1.333-0.378-0.4-0.067-0.8-0.111-1.2-0.111l0.022 0.978c0.333 0 0.667 0.044 1 0.089 0.4 0.067 0.778 0.178 1.156 0.333s0.756 0.333 1.089 0.556c0.356 0.222 0.667 0.489 0.956 0.778 0.289 0.267 0.533 0.578 0.756 0.911 0.178 0.289 0.356 0.578 0.489 0.889l0.889-0.378c-0.156-0.356-0.356-0.711-0.578-1.044-0.244-0.422-0.556-0.778-0.867-1.089z"></path>
<path d="M13.222 18.444c0.2 0.089 0.4 0.178 0.6 0.311s0.356 0.267 0.533 0.422c0.156 0.156 0.289 0.333 0.422 0.511 0.089 0.133 0.178 0.267 0.244 0.422l0.889-0.378c-0.089-0.2-0.2-0.4-0.333-0.578-0.156-0.244-0.333-0.444-0.533-0.644s-0.444-0.378-0.689-0.556c-0.244-0.156-0.511-0.289-0.778-0.4s-0.533-0.178-0.822-0.222c-0.222-0.044-0.444-0.067-0.667-0.067l0.022 0.978c0.156 0 0.311 0.022 0.489 0.044 0.2 0.022 0.422 0.089 0.622 0.156z"></path>
<path d="M13.067 20.822l-0.822-0.533-0.533 0.822-4.067-2.644-0.267 0.422c-1.378 2.111-1.067 4.911 0.711 6.689 0.8 0.8 1.622 1.222 2.867 1.489l0.444 0.044c1.578 0.133 3.133-0.422 4.244-1.533 0.267-0.267 0.511-0.556 0.711-0.867l0.267-0.4-4.111-2.667 0.556-0.822zM15.244 24.578l-0.133 0.133c-0.044 0.067-0.111 0.133-0.178 0.178-1.444 1.444-3.756 1.689-5.467 0.578-1.8-1.156-2.489-3.511-1.6-5.467l0.067-0.178 7.311 4.756z"></path>
</symbol>
<symbol id="icon-document" viewBox="0 0 32 32">
<title>document</title>
<path d="M24.556 25.489v-14.178l-4.778-4.8h-11.889v18.956h16.667zM20.044 8.133l2.889 2.889h-2.889v-2.889zM8.844 7.467h10.267v4.511h4.511v12.556h-14.778v-17.067z"></path>
<path d="M10.911 11.022h5.022v0.956h-5.022v-0.956z"></path>
<path d="M10.911 14.022h10.6v0.956h-10.6v-0.956z"></path>
<path d="M10.911 17.022h10.6v0.956h-10.6v-0.956z"></path>
<path d="M10.911 20.022h10.6v0.956h-10.6v-0.956z"></path>
</symbol>
<symbol id="icon-earth-surface" viewBox="0 0 32 32">
<title>earth-surface</title>
<path d="M16 6.222c-5.4 0-9.778 4.378-9.778 9.778s4.378 9.778 9.778 9.778 9.778-4.378 9.778-9.778c0-5.4-4.378-9.778-9.778-9.778zM8.889 10.756c0.889-1.2 2.067-2.156 3.4-2.778l0.911-0.422-0.556 0.844c-0.489 0.733-0.911 1.622-1.222 2.622l-0.067 0.2h-2.8l0.333-0.467zM7.2 15.222c0.089-1.022 0.356-2 0.778-2.911l0.067-0.156h3.067l-0.067 0.333c-0.178 0.889-0.289 1.822-0.333 2.778v0.267h-3.556l0.044-0.311zM7.956 19.689c-0.422-0.933-0.689-1.911-0.778-2.911l-0.022-0.311h3.556v0.267c0.044 0.956 0.156 1.889 0.333 2.778l0.067 0.333h-3.067l-0.089-0.156zM12.289 24.022c-1.333-0.622-2.511-1.578-3.4-2.778l-0.333-0.444h2.822l0.067 0.2c0.311 1 0.733 1.889 1.222 2.622l0.556 0.844-0.933-0.444zM15.533 24.822l-0.4-0.178c-1.044-0.444-2.022-1.711-2.644-3.467l-0.133-0.378h3.178v4.022zM15.533 19.867h-3.444l-0.044-0.222c-0.2-0.911-0.333-1.867-0.378-2.867l-0.022-0.289h3.867v3.378zM15.533 15.533h-3.889l0.022-0.289c0.044-1 0.156-1.978 0.378-2.867l0.044-0.222h3.444v3.378zM15.533 11.2h-3.2l0.133-0.378c0.644-1.756 1.6-3.022 2.644-3.467l0.4-0.178v4.022zM24.022 12.311c0.422 0.911 0.689 1.911 0.778 2.911l0.022 0.311h-3.556v-0.267c-0.044-0.956-0.156-1.889-0.333-2.778l-0.067-0.333h3.067l0.089 0.156zM19.689 7.978c1.356 0.622 2.533 1.578 3.422 2.778l0.333 0.444h-2.822l-0.067-0.2c-0.311-1-0.733-1.889-1.222-2.622l-0.556-0.822 0.911 0.422zM16.467 7.178l0.4 0.178c1.044 0.444 2.022 1.711 2.644 3.467l0.133 0.378h-3.178v-4.022zM16.467 12.133h3.444l0.044 0.222c0.2 0.911 0.333 1.867 0.378 2.867l0.022 0.289h-3.889v-3.378zM16.467 16.467h3.867l-0.022 0.289c-0.044 1-0.156 1.978-0.378 2.867l-0.044 0.222h-3.422v-3.378zM16.867 24.644l-0.4 0.178v-4.022h3.178l-0.133 0.378c-0.644 1.756-1.6 3.022-2.644 3.467zM23.111 21.244c-0.889 1.2-2.067 2.156-3.422 2.778l-0.911 0.422 0.556-0.844c0.489-0.733 0.911-1.622 1.222-2.622l0.067-0.2h2.822l-0.333 0.467zM24.8 16.778c-0.089 1.022-0.356 2-0.778 2.911l-0.067 0.156h-3.089l0.067-0.333c0.178-0.889 0.289-1.822 0.333-2.778v-0.267h3.556l-0.022 0.311z"></path>
</symbol>
<symbol id="icon-energy" viewBox="0 0 32 32">
<title>energy</title>
<path d="M19.978 19.822v0.178h-1.444v-4.556h-4.2v4.2h1.089v-3.089h2.022v4.533h3.622v-7.067h2.022v7.067h1.089v-8.156h-4.2z"></path>
<path d="M13.378 24.556l-0.022-0.156-1.156-12.2v-0.2h1.133v-1.111h-1.222l-0.022-0.156-0.311-3.089-0.022-0.2h1.578v-1.089h-7.4v1.089h1.556l-0.022 0.2-0.289 3.089v0.156h-1.222v1.111h1.133l-0.022 0.2-1.156 12.2-0.022 0.156h-1.022v1.089h19.289v-1.089h-10.778zM11.6 17.489l0.222 2.311 0.022 0.2h-3.178l2.889-2.889 0.044 0.378zM8.289 10.689l0.289-3.089 0.022-0.156h2.067l0.022 0.156 0.289 3.089 0.022 0.2h-2.733l0.022-0.2zM7.867 15.244l0.289-3.089 0.022-0.156h2.911l0.022 0.156 0.289 3.089 0.022 0.2h-3.578l0.022-0.2zM7.489 19.178l0.222-2.467 0.022-0.156h2.844l-3.133 3.133 0.044-0.511zM6.956 24.867l0.044-0.511 0.289-3.089 0.022-0.156h3.4l-3.756 3.756zM12.067 24.556h-3.267l3.156-3.156 0.044 0.378 0.244 2.578 0.022 0.2h-0.2z"></path>
<path d="M21.067 8.378v-1.578l-4.2 1.689v1.178l2.867-1.133 0.244-0.111v1.578l4.2-1.689v-1.178l-2.844 1.156z"></path>
</symbol>
<symbol id="icon-firstlook" viewBox="0 0 32 32">
<title>firstlook</title>
<path d="M22.622 7.533l-3.133-0.044-0.067 4.889 3.133 0.044 0.067-4.889zM21.667 11.511l-1.356-0.022 0.044-3.111 1.356 0.022-0.044 3.111z"></path>
<path d="M13.289 7.4l-3.133-0.044-0.067 4.889 3.133 0.044 0.067-4.889zM12.356 11.4l-1.356-0.022 0.044-3.111 1.356 0.022-0.044 3.111z"></path>
<path d="M16.511 21.444c0 0.245-0.199 0.444-0.444 0.444s-0.444-0.199-0.444-0.444c0-0.245 0.199-0.444 0.444-0.444s0.444 0.199 0.444 0.444z"></path>
<path d="M15.844 20.756h0.422l0.156-1.756h-0.733z"></path>
<path d="M18.889 20.689l-2.533-6.444 2.267 0.022 0.089-7.556-4.622-0.044-0.089 7.556 2.022 0.022-2.711 6.422c-3.778 0.933-6.244 3.489-6.356 3.6l0.644 0.622c0.022-0.022 2.2-2.267 5.511-3.244l2.778 2.933 3.244-2.889c3.2 0.978 5.267 3.156 5.289 3.2l0.644-0.6c-0.133-0.156-2.489-2.644-6.178-3.6zM14.956 7.578l2.844 0.044-0.022 1.622-1.578-0.022-0.022 0.889 1.578 0.022-0.022 0.933-1.578-0.022-0.022 0.889 1.578 0.022-0.022 1.4-2.8-0.022 0.067-5.756zM15.911 23.4l-1.889-2 2.133-5.333 1.978 5.356-2.222 1.978z"></path>
</symbol>
<symbol id="icon-free-of-clouds" viewBox="0 0 32 32">
<title>free-of-clouds</title>
<path d="M16 22.711c-3.689 0-6.711-3-6.711-6.711 0-3.689 3-6.711 6.711-6.711 3.689 0 6.711 3 6.711 6.711 0 3.689-3.022 6.711-6.711 6.711zM16 10.4c-3.089 0-5.6 2.511-5.6 5.6s2.511 5.6 5.6 5.6c3.089 0 5.6-2.511 5.6-5.6s-2.511-5.6-5.6-5.6z"></path>
<path d="M15.444 5.667h1.111v2.444h-1.111v-2.444z"></path>
<path d="M9.084 8.298l1.728 1.728-0.786 0.786-1.728-1.728 0.786-0.786z"></path>
<path d="M5.667 15.444h2.444v1.111h-2.444v-1.111z"></path>
<path d="M10.027 21.187l0.786 0.786-1.728 1.728-0.786-0.786 1.728-1.728z"></path>
<path d="M15.444 23.889h1.111v2.444h-1.111v-2.444z"></path>
<path d="M21.973 21.187l1.728 1.728-0.786 0.786-1.728-1.728 0.786-0.786z"></path>
<path d="M23.889 15.444h2.444v1.111h-2.444v-1.111z"></path>
<path d="M22.916 8.298l0.786 0.786-1.728 1.728-0.786-0.786 1.728-1.728z"></path>
</symbol>
<symbol id="icon-geo-referenced" viewBox="0 0 32 32">
<title>geo-referenced</title>
<path d="M25.444 25.089l-4.022-7.933h-4.867v-4.244l0.156-0.022c1.733-0.333 2.978-1.867 2.978-3.622 0-2.044-1.667-3.689-3.689-3.689-2.044 0-3.689 1.667-3.689 3.689 0 1.756 1.267 3.289 3 3.622l0.156 0.022v4.244h-4.889l-4.022 7.956h18.889zM13.422 9.267c0-1.422 1.156-2.6 2.578-2.6s2.578 1.156 2.578 2.578-1.156 2.6-2.578 2.6c-1.422 0-2.578-1.156-2.578-2.578zM11.267 18.267h4.2v2.689h1.111v-2.689h4.178l2.911 5.733h-15.311l2.911-5.733z"></path>
</symbol>
<symbol id="icon-global-development" viewBox="0 0 32 32">
<title>global-development</title>
<path d="M15.956 24.533c1.733 0 3.333-0.667 4.622-1.911 1.156-1.133 1.667-2.489 2.133-3.689 0.467-1.244 0.867-2.311 1.822-2.978 0.378-0.244 0.822-0.444 1.356-0.556-0.089-0.467-0.222-0.889-0.444-1.244-0.067-0.111-0.133-0.222-0.2-0.311-0.511-0.689-1.244-1.111-2.156-1.222-0.711-0.089-1.444-0.044-2.156 0.156l-0.111 0.044-0.044-0.156c-0.333-2.089-1.867-3.8-3.844-4.422-0.578-0.156-1.156-0.244-1.822-0.244-0.956 0-1.978 0.178-3.289 0.378l-0.4 0.067c-1.422 0.222-2.689 0.133-3.756-0.267-0.444-0.156-0.844-0.378-1.2-0.644-0.133 0.444-0.244 0.911-0.289 1.378-0.022 0.133-0.022 0.289-0.044 0.422-0.111 1.978 0.6 3.911 1.978 5.333 0.156-0.422 0.356-0.822 0.6-1.2-0.911-1.111-1.378-2.489-1.333-3.933v-0.156l0.133 0.044c1.222 0.378 2.644 0.467 4.111 0.222l0.422-0.067c1.311-0.222 2.267-0.356 3.067-0.356 0.533 0 1 0.067 1.444 0.2 1.667 0.511 2.889 2.022 3.022 3.778 0.022 0.156 0.022 0.289 0.022 0.422 0 0.4-0.067 0.8-0.178 1.178 0.533-0.333 1-0.578 1.467-0.756 0.689-0.244 1.356-0.333 2.022-0.244 0.556 0.067 1 0.311 1.311 0.733l0.067 0.111-0.111 0.067c-1.556 0.867-2.133 2.4-2.644 3.756-0.422 1.156-0.867 2.333-1.822 3.267-1.067 1.044-2.311 1.578-3.733 1.578-0.422 0-0.867-0.044-1.311-0.156l-0.089-0.022v-1.8l0.089-0.022c0.089-0.022 0.2-0.044 0.289-0.044 2.067-0.467 3.533-2.267 3.556-4.378v-0.089c0-0.444-0.067-0.889-0.2-1.333-0.489-0.044-0.956-0.022-1.422 0.089-0.267 0.067-0.533 0.156-0.778 0.267l-0.156 0.067v-0.178c0.044-1.089-0.311-2.156-0.956-3l-0.044-0.044c-0.289-0.356-0.622-0.644-1-0.911-0.111 0.089-0.222 0.156-0.333 0.244-0.267 0.222-0.489 0.467-0.711 0.733-0.667 0.844-1 1.911-0.956 3v0.178l-0.156-0.067c-0.267-0.111-0.533-0.2-0.8-0.267-0.467-0.111-0.956-0.133-1.422-0.089-0.133 0.422-0.2 0.867-0.2 1.333v0.089c0.044 2.111 1.511 3.911 3.556 4.378 0.089 0.022 0.2 0.044 0.289 0.067l0.089 0.022v2.711c0.889 0.267 1.8 0.444 2.644 0.444zM17.156 16.8l0.133-0.044v0.156c-0.044 1.511-1.089 2.8-2.556 3.133l-0.133 0.044v-0.156c0.044-1.511 1.089-2.8 2.556-3.133zM13.2 20.044c-1.467-0.356-2.511-1.644-2.556-3.133v-0.156l0.133 0.044c1.467 0.356 2.511 1.644 2.556 3.133v0.156l-0.133-0.044zM13.889 13.533l0.089-0.111 0.089 0.111c0.911 1.2 0.911 2.867 0 4.044l-0.089 0.111-0.089-0.111c-0.911-1.2-0.911-2.867 0-4.044z"></path>
</symbol>
<symbol id="icon-human-geography" viewBox="0 0 32 32">
<title>human-geography</title>
<path d="M24.044 23.667c0.4 0.6 0.756 1.267 1 1.956h1.067c-1.133-3.333-3.822-5.911-7.2-6.844l-0.156-0.044-2.089-7.822 0.311-0.022c0.311-0.022 0.6-0.067 0.889-0.133s0.6-0.133 0.889-0.222c0.289-0.089 0.578-0.2 0.844-0.311s0.556-0.244 0.8-0.378c0.267-0.133 0.511-0.289 0.756-0.467 0.178-0.111 0.333-0.244 0.489-0.356l-0.622-0.8c-0.133 0.111-0.289 0.2-0.422 0.311-0.222 0.156-0.444 0.289-0.689 0.422-0.222 0.133-0.467 0.244-0.711 0.356s-0.489 0.2-0.756 0.267c-0.267 0.089-0.533 0.156-0.778 0.2-0.267 0.044-0.533 0.089-0.822 0.133-0.556 0.067-1.133 0.067-1.689 0-0.267-0.022-0.556-0.067-0.822-0.133-0.267-0.044-0.533-0.133-0.778-0.2-0.267-0.089-0.511-0.178-0.756-0.267-0.244-0.111-0.489-0.222-0.711-0.356-0.244-0.133-0.467-0.267-0.689-0.422-0.133-0.089-0.289-0.2-0.422-0.311l-0.644 0.778c0.156 0.133 0.333 0.244 0.489 0.356 0.244 0.156 0.489 0.311 0.756 0.467 0.267 0.133 0.533 0.267 0.8 0.4 0.267 0.111 0.556 0.222 0.844 0.311s0.6 0.178 0.889 0.222c0.289 0.067 0.578 0.111 0.867 0.133l0.311 0.022-2.089 7.822-0.156 0.044c-3.378 0.956-6.067 3.511-7.2 6.844h1.067c0.267-0.689 0.6-1.333 1-1.956l0.089-0.111h3l-0.156 0.511c-0.089 0.289-0.156 0.6-0.222 0.911-0.044 0.2-0.089 0.422-0.133 0.644h1.067c0.022-0.156 0.067-0.289 0.089-0.422 0.067-0.289 0.133-0.578 0.222-0.867 0.067-0.2 0.111-0.4 0.178-0.6l0.067-0.178h3.4v2.067h1v-2.067h3.4l0.067 0.178c0.067 0.222 0.133 0.4 0.178 0.6 0.089 0.289 0.156 0.578 0.222 0.867 0.022 0.133 0.067 0.289 0.089 0.422h1.022c-0.044-0.222-0.089-0.422-0.133-0.644-0.067-0.311-0.156-0.622-0.222-0.911l-0.156-0.511h3l0.067 0.111zM12.222 20.933c-0.133 0.222-0.267 0.444-0.4 0.689s-0.244 0.489-0.356 0.756l-0.067 0.156-0.178 0.022h-2.444l0.489-0.467c0.822-0.8 1.778-1.444 2.844-1.889l0.889-0.4-0.556 0.778c-0.067 0.111-0.133 0.222-0.222 0.356zM15.511 22.533h-3.044l0.244-0.467c0.111-0.222 0.222-0.422 0.356-0.622 0.111-0.2 0.244-0.378 0.378-0.556s0.267-0.333 0.4-0.467c0.133-0.133 0.267-0.267 0.4-0.378s0.289-0.222 0.422-0.311c0.133-0.089 0.289-0.156 0.422-0.222l0.378-0.178v3.2zM14.733 18.444l-0.4 0.044 1.667-6.178 1.667 6.178-0.422-0.044c-0.822-0.111-1.667-0.111-2.511 0zM16.511 22.533v-3.178l0.4 0.2c0.133 0.044 0.267 0.111 0.4 0.2s0.289 0.178 0.422 0.289c0.133 0.111 0.289 0.244 0.422 0.378s0.267 0.289 0.4 0.467c0.133 0.178 0.244 0.356 0.378 0.556s0.244 0.4 0.356 0.622l0.244 0.467h-3.022zM20.622 22.533l-0.111-0.178c-0.111-0.267-0.222-0.511-0.356-0.756s-0.267-0.489-0.4-0.689c-0.067-0.111-0.156-0.222-0.222-0.333l-0.533-0.8 0.889 0.4c1.067 0.467 2 1.111 2.844 1.889l0.489 0.467h-2.6z"></path>
<path d="M16 6.378c-0.467 0-0.867 0.378-0.867 0.867 0 0.467 0.378 0.867 0.867 0.867 0.467 0 0.867-0.378 0.867-0.867 0-0.467-0.4-0.867-0.867-0.867z"></path>
</symbol>
<symbol id="icon-human-landscape" viewBox="0 0 32 32">
<title>human-landscape</title>
<path d="M19.978 25.6h-12.978v-13.733h12.978v13.733zM7.8 24.8h11.378v-12.133h-11.378v12.133z"></path>
<path d="M22.889 21.644h-1.444v-0.8h0.644v-11.156h-11.844v0.533h-0.8v-1.333h13.444z"></path>
<path d="M25.444 18.889h-1.556v-0.889h0.667v-10.711h-11.756v0.6h-0.889v-1.489h13.533z"></path>
<path d="M15.622 18.933c-0.244-0.244-0.511-0.444-0.822-0.6 0.422-0.378 0.689-0.933 0.689-1.533-0.022-1.111-0.933-2-2.044-1.978s-2 0.933-1.978 2.044c0 0.6 0.267 1.111 0.689 1.489-0.311 0.133-0.578 0.333-0.822 0.6-1.156 1.222-1.044 3.289-1.044 3.378l0.022 0.356h6.311l0.022-0.356c0.022-0.111 0.133-2.178-1.022-3.4zM13.467 15.6c0.689 0 1.244 0.533 1.244 1.222s-0.533 1.244-1.222 1.244c-0.689 0-1.244-0.533-1.244-1.222s0.556-1.244 1.222-1.244zM11.089 21.889c0.022-0.578 0.156-1.733 0.822-2.422 0.4-0.422 0.911-0.622 1.578-0.622s1.178 0.2 1.578 0.622c0.667 0.711 0.8 1.844 0.822 2.422h-4.8z"></path>
</symbol>
<symbol id="icon-infrastructure" viewBox="0 0 32 32">
<title>infrastructure</title>
<path d="M27.289 18.556c-3.422-0.578-4.089-6.956-4.222-8.622v-0.556c0-0.156-0.111-0.311-0.267-0.356-0.156-0.067-0.333 0-0.422 0.111 0 0-0.311 0.356-0.689 0.356-0.222 0-0.467-0.133-0.711-0.378-0.089-0.111-0.244-0.133-0.378-0.111-0.044 0-0.067-0.022-0.111-0.022-0.222 0-0.378 0.178-0.378 0.4 0 0.044 0.089 4.089-1.778 5.978-0.644 0.667-1.422 0.978-2.378 0.978-1.089 0-1.978-0.356-2.644-1.089-1.8-1.933-1.511-5.822-1.511-5.867 0.022-0.222-0.133-0.4-0.356-0.422-0.044 0-0.089 0-0.133 0.022-0.133-0.044-0.289 0-0.378 0.133 0 0-0.311 0.356-0.689 0.356-0.178 0-0.356-0.067-0.533-0.222-0.044-0.156-0.178-0.267-0.356-0.267 0 0 0 0-0.022 0s-0.044 0-0.044 0c-0.067 0-0.111 0-0.178 0.022-0.156 0.067-0.244 0.2-0.244 0.356v1.067c-0.222 2.311-1.089 7.644-4.156 8.178 0 0 0 0 0 0-0.022 0-0.022 0-0.044 0.022 0 0-0.022 0-0.022 0-0.022 0-0.022 0.022-0.044 0.022 0 0-0.022 0-0.022 0.022-0.022 0-0.022 0.022-0.022 0.022s-0.022 0.022-0.022 0.022c0 0-0.022 0.022-0.022 0.022s-0.022 0.022-0.022 0.022c0 0.022-0.022 0.022-0.022 0.044 0 0-0.022 0.022-0.022 0.022 0 0.022 0 0.022-0.022 0.044 0 0.022 0 0.022-0.022 0.044 0 0 0 0.022 0 0.044s0 0.022 0 0.044c0 0 0 0 0 0 0 0.022 0 0.022 0 0.022s0 0.022 0 0.022c0 0 0 0 0 0 0 0.044 0.022 0.089 0.044 0.111 0 0 0 0 0 0.022 0.022 0.044 0.044 0.067 0.067 0.089 0 0 0 0 0.022 0.022s0.067 0.044 0.111 0.067c0 0 0 0 0.022 0 0.044 0.022 0.089 0.022 0.133 0.022 0 0 0 0 0 0s0 0 0 0 0 0 0 0h4.089v3.2c0 0.222 0.178 0.4 0.4 0.4h1.978c0.222 0 0.4-0.178 0.4-0.4v-3.178h8.689v3.2c0 0.222 0.178 0.4 0.4 0.4h1.978c0.222 0 0.4-0.178 0.4-0.4v-3.2h4.089c0.133 0 0.267-0.067 0.333-0.178 0.067-0.044 0.089-0.133 0.111-0.2-0.022-0.222-0.178-0.422-0.378-0.467zM25.533 18.622h-2.467v-4.133c0.489 1.622 1.244 3.222 2.467 4.133zM22.289 10.156v8.467h-1.2v-8.467c0.422 0.178 0.867 0.156 1.2 0zM12.756 15.822c0.822 0.889 1.889 1.333 3.2 1.333 1.156 0 2.156-0.4 2.933-1.222 0.667-0.689 1.111-1.6 1.4-2.511v5.2h-8.667v-4.756c0.267 0.711 0.622 1.4 1.133 1.956zM10.844 10.156v8.467h-1.2v-8.089c0.022-0.133 0.022-0.267 0.022-0.378 0.4 0.178 0.844 0.133 1.178 0zM8.867 14.644v3.978h-2.333c1.133-0.911 1.867-2.422 2.333-3.978zM10.844 22.2h-1.2v-2.8h1.2v2.8zM22.289 22.2h-1.2v-2.8h1.2v2.8z"></path>
</symbol>
<symbol id="icon-insight" viewBox="0 0 32 32">
<title>insight</title>
<path d="M13.911 21.489c1.244 0 2.489-0.311 3.578-0.911l0.222-0.111 5.2 5.2 2.756-2.756-5.2-5.2 0.111-0.222c0.6-1.089 0.911-2.333 0.911-3.578 0-4.178-3.4-7.578-7.578-7.578s-7.578 3.4-7.578 7.578c0 4.178 3.4 7.578 7.578 7.578zM24.467 22.911l-1.556 1.556-4.467-4.467 0.289-0.222c0.378-0.311 0.733-0.667 1.044-1.044l0.222-0.289 4.467 4.467zM13.911 7.178c3.711 0 6.733 3.022 6.733 6.733s-3.022 6.733-6.733 6.733c-3.711 0-6.733-3.022-6.733-6.733s3.022-6.733 6.733-6.733z"></path>
</symbol>
<symbol id="icon-laptop" viewBox="0 0 32 32">
<title>laptop</title>
<path d="M24.867 9.178h-17.733v11.333h17.733v-11.333zM7.956 19.689v-9.689h16.089v9.689h-16.089z"></path>
<path d="M5.667 22h20.667v0.822h-20.667v-0.822z"></path>
<path d="M14.578 17.711l4.578-2.867-4.578-2.867v5.733zM17.6 14.844l-2.2 1.378v-2.756l2.2 1.378z"></path>
</symbol>
<symbol id="icon-leaf" viewBox="0 0 32 32">
<title>leaf</title>
<path d="M23.333 10.533v-0.444l-1.2 0.044c0.356-1.022 0.933-3.156 0.822-5.511l-0.022-0.556-0.533 0.156c-0.133 0.044-3 0.867-5.578 3.533l-0.511-1.467-0.489 0.489c-0.311 0.289-2.622 2.622-3.244 4.578l-0.956-0.933-0.311 0.4c-0.133 0.178-3.089 4.178-2.556 7.556 0.178 1.2 0.778 2.178 1.778 2.911l0.511 0.378 0.178-0.6c0-0.044 0.911-3.067 3.489-6.289-1.156 2.511-2.6 6.578-3.422 12.356l-0.022 0.2 0.133 0.156c0.044 0.044 0.4 0.422 1.044 0.422 0.356 0 0.711-0.111 1.089-0.356l0.178-0.111 0.022-0.2c0.222-1.667 0.6-3.6 0.844-4.222 0.133 0 0.289 0.022 0.467 0.022 0 0 0 0 0 0 1.533 0 6.6-0.489 7.822-6.622l0.111-0.533h-1.356c0.667-1.022 1.756-3 1.711-5.356zM21.844 16.778c-1.222 4.844-5.156 5.378-6.844 5.378 0 0 0 0 0 0l-0.978 0.044c-0.489 0.4-0.911 2.733-1.178 4.689-0.267 0.133-0.533 0.133-0.667 0.067 0.756-5.156 2.044-8.867 3-11.089 1.044-2.422 1.911-3.644 1.911-3.644l2.489-3.4-3.133 2.8c-3.667 3.289-5.333 7.067-5.889 8.556-0.511-0.533-0.844-1.156-0.956-1.933-0.378-2.422 1.4-5.4 2.111-6.489l1.622 1.6-0.044-1.111c-0.044-1.178 1.578-3.2 2.622-4.311l0.533 1.556 0.511-0.578c1.889-2.178 4.089-3.222 5.111-3.622-0.022 2.756-1 5.133-1 5.156l-0.267 0.644 1.644-0.067c-0.133 2.8-2.044 5.022-2.067 5.044l-0.644 0.733h2.111z"></path>
</symbol>
<symbol id="icon-location-based-services" viewBox="0 0 32 32">
<title>location-based-services</title>
<path d="M19.956 15.533c0-0.489-0.4-0.911-0.911-0.911s-0.911 0.4-0.911 0.911c0 0.489 0.4 0.911 0.911 0.911s0.911-0.422 0.911-0.911z"></path>
<path d="M6.222 5.756v19.556h19.556v-19.556h-19.556zM7.333 9.867v-3h7.378l-0.022 0.2-0.022 0.467v0.044c-0.044 0.422-0.067 0.844-0.111 1.311-0.044 0.578-0.222 1.111-0.511 1.644l-0.044 0.089h-0.111l-6.378-0.556-0.178-0.044v-0.156zM9.311 19.289l-0.422 4.756-0.022 0.178h-1.533v-5.311l0.2 0.022 1.622 0.133 0.178 0.022-0.022 0.2zM9.444 17.8l-0.022 0.178-0.178-0.022-1.756-0.156h-0.156v-6.644l0.2 0.022 5.333 0.467 0.378 0.022-0.244 0.267c-0.267 0.289-0.556 0.578-0.844 0.867-1.222 1.222-2.467 2.489-2.644 4.444l-0.067 0.556zM17.533 24.2h-7.533l0.022-0.2 0.4-4.622 0.022-0.178 0.178 0.022 5.489 0.489h0.111l0.044 0.111c0.444 1.289 0.978 2.8 1.444 4.156l0.089 0.244h-0.267zM19.244 23.978l-0.178 0.511-0.178-0.511-0.111-0.311c-0.8-2.333-2.2-6.333-2.467-7.133l-0.022-0.067c-0.111-0.311-0.156-0.622-0.156-0.933 0-1.622 1.311-2.933 2.933-2.933s2.911 1.311 2.911 2.933c0 0.311-0.044 0.622-0.156 0.933-0.133 0.422-1 2.911-2.489 7.2l-0.089 0.311zM24.667 20.6v3.6h-4.333l0.089-0.244c0.422-1.2 0.867-2.489 1.267-3.644l0.044-0.133 0.133 0.022 2.622 0.222 0.178 0.022v0.156zM24.667 7.044v12.267l-0.2-0.022-2.378-0.2 0.067-0.222c0.4-1.156 0.644-1.844 0.711-2.044 0.133-0.422 0.2-0.844 0.2-1.289 0-2.222-1.8-4.044-4.022-4.044s-4.022 1.8-4.022 4.044c0 0.444 0.067 0.867 0.2 1.289l0.022 0.089c0.067 0.222 0.244 0.733 0.467 1.378l0.089 0.267-0.244-0.044-4.822-0.422-0.178-0.022 0.022-0.178 0.044-0.556c0.133-1.556 1.2-2.622 2.333-3.756 1.2-1.2 2.556-2.556 2.733-4.622 0.044-0.489 0.089-0.911 0.111-1.333l0.022-0.267 0.022-0.311 0.022-0.178h8.822v0.178z"></path>
</symbol>
<symbol id="icon-mining" viewBox="0 0 32 32">
<title>mining</title>
<path d="M23.889 22.844l-4.222-4.289-0.756 0.711 3.489 3.578-1.089 1.044-3.467-3.556-0.778 0.733 4.244 4.311z"></path>
<path d="M19.978 16.133l2.4-2.333 1.689 1.711 2.822 0.044-0.089-0.6c-0.289-2.044-1.222-3.889-2.644-5.356-1.244-1.289-2.822-2.178-4.533-2.622l-0.267-0.067-1.889 1.844 2.422 2.444-3.8 3.711-1.8 1.778-6.333 6.156 2.467 2.556 9.556-9.267zM18.933 8.756l0.711-0.689 0.089 0.022c1.378 0.422 2.667 1.2 3.667 2.222 1.067 1.111 1.844 2.467 2.2 3.956l0.044 0.2-1.133-0.022-3.933-4.022-1.644-1.667zM20.622 11.956l1.044 1.067-11.2 10.889-1.044-1.067 11.2-10.889z"></path>
<path d="M14.311 14.556l0.756-0.733-2.844-2.889 2.489-2.422-1.822-1.889-0.267 0.067c-1.711 0.4-3.333 1.267-4.578 2.489-1.467 1.444-2.422 3.289-2.778 5.311l-0.156 0.6 2.8 0.022 1.711-1.689 2.822 2.889 0.756-0.733-2.822-2.867 1.067-1.044 2.867 2.889zM7.489 14.089l-1.133-0.022 0.067-0.2c0.4-1.489 1.2-2.844 2.289-3.911 1.022-1 2.311-1.733 3.711-2.133l0.089-0.022 0.689 0.711-5.711 5.578z"></path>
</symbol>
<symbol id="icon-mobile-compatible" viewBox="0 0 32 32">
<title>mobile-compatible</title>
<path d="M21.222 26.556h-10.444c-0.756 0-1.378-0.622-1.378-1.378v-18.333c0-0.756 0.622-1.378 1.378-1.378h10.444c0.756 0 1.378 0.622 1.378 1.378v18.311c0 0.778-0.622 1.4-1.378 1.4zM10.778 6.444c-0.222 0-0.4 0.178-0.4 0.4v18.311c0 0.222 0.178 0.4 0.4 0.4h10.444c0.222 0 0.4-0.178 0.4-0.4v-18.311c0-0.222-0.178-0.4-0.4-0.4h-10.444z"></path>
<path d="M20.067 21.444h-8.133c-0.267 0-0.489-0.222-0.489-0.489v-11.911c0-0.267 0.222-0.489 0.489-0.489h8.133c0.267 0 0.489 0.222 0.489 0.489v11.911c0.022 0.267-0.2 0.489-0.489 0.489zM12.422 20.444h7.133v-10.911h-7.133v10.911z"></path>
<path d="M13.222 24.533h-1.622c-0.178 0-0.333-0.156-0.333-0.333v-0.889c0-0.178 0.156-0.333 0.333-0.333h1.622c0.178 0 0.333 0.156 0.333 0.333v0.889c0 0.2-0.156 0.333-0.333 0.333zM11.911 23.867h0.978v-0.222h-0.956v0.222z"></path>
<path d="M20.422 24.533h-1.622c-0.178 0-0.333-0.156-0.333-0.333v-0.889c0-0.178 0.156-0.333 0.333-0.333h1.622c0.178 0 0.333 0.156 0.333 0.333v0.889c0 0.2-0.156 0.333-0.333 0.333zM19.111 23.867h0.956v-0.222h-0.956v0.222z"></path>
<path d="M16.822 24.533h-1.622c-0.178 0-0.333-0.156-0.333-0.333v-0.889c0-0.178 0.156-0.333 0.333-0.333h1.622c0.178 0 0.333 0.156 0.333 0.333v0.889c0 0.2-0.156 0.333-0.333 0.333zM15.511 23.867h0.956v-0.222h-0.956v0.222z"></path>
</symbol>
<symbol id="icon-objects" viewBox="0 0 32 32">
<title>objects</title>
<path d="M25.311 11.533v0 0 0l-0.022-0.022-9.422-5.2-9.489 5.067 0.089 0.044h-0.089l0.067 8.889 9.133 5.311 9.756-5.111-0.022-8.978zM24.444 19.978l-8.444 4.4v-8.244l8.422-4.156 0.022 8zM15.867 7.333l7.533 4.156-7.711 3.822-7.422-3.933 7.6-4.044zM7.289 11.844l7.822 4.156v8.289l-7.778-4.511-0.044-7.933z"></path>
</symbol>
<symbol id="icon-oil-and-gas" viewBox="0 0 32 32">
<title>oil-and-gas</title>
<path d="M21.111 7.289v0l-0.378 0.111z"></path>
<path d="M20.667 25.067l-0.044-0.133-3.511-9.489-0.067-0.2 0.2-0.067 3.422-0.978 0.178-0.044 0.044 0.178 0.689 2.4 2.733 1.511 0.244-0.644c0.8-2.156 0.889-4.467 0.244-6.667-0.556-1.911-1.6-3.622-3.067-4.956l-0.244-0.222-2.822 0.822 1.022 3.533 0.044 0.178-0.178 0.067-12.644 3.622 1.089 3.844 6.733-1.933-0.133 0.356-3.2 8.667-0.044 0.133h-5.578v1.156h20.444v-1.156h-5.556zM20.289 7.333l0.778-0.222 0.111-0.022 0.089 0.089c1.133 1.133 1.978 2.556 2.422 4.111 0.467 1.667 0.489 3.4 0.067 5.067l-0.067 0.244-0.222-0.111-0.822-0.444-0.067-0.044-0.022-0.067-1.067-3.711-0.644-2.244-0.044-0.133-0.644-2.289-0.044-0.178 0.178-0.044zM8.978 16.333l-0.178 0.044-0.044-0.178-0.356-1.244-0.044-0.178 0.178-0.044 11.533-3.289 0.044 0.178 0.356 1.244 0.044 0.178-0.178 0.044-11.356 3.244zM15.422 18.444v6.644h-2.867l0.089-0.267 2.756-7.467v1.089zM19.156 25.067h-2.578v-7.711l0.378 1.022 2.378 6.444 0.089 0.267h-0.267z"></path>
</symbol>
<symbol id="icon-partners" viewBox="0 0 32 32">
<title>partners</title>
<path d="M20.311 11.911c-0.111-0.022-0.2-0.111-0.222-0.222-0.667-3.289-3.6-5.689-6.978-5.689-3.933 0-7.111 3.2-7.111 7.111 0 3.356 2.4 6.289 5.689 6.978 0.111 0.022 0.2 0.111 0.222 0.222 0.667 3.289 3.6 5.689 6.978 5.689 3.933 0 7.111-3.2 7.111-7.111 0-3.378-2.4-6.311-5.689-6.978zM20 16.444c0 0.622-0.511 1.111-1.111 1.111s-1.111-0.511-1.111-1.111c0-0.622 0.511-1.111 1.111-1.111s1.111 0.489 1.111 1.111zM23.311 23.2c-1.178 1.2-2.756 1.867-4.422 1.867-1.689 0-3.244-0.667-4.422-1.867-0.089-0.089-0.111-0.244-0.022-0.356l1.289-1.933c0.044-0.067 0.133-0.133 0.222-0.133h5.867c0.089 0 0.178 0.044 0.222 0.133l1.289 1.933c0.089 0.111 0.067 0.244-0.022 0.356zM24.067 22c-0.089 0-0.2-0.044-0.244-0.133l-1.356-2.022h-7.178l-1.356 2.022c-0.044 0.089-0.133 0.133-0.222 0.133 0 0 0 0-0.022 0-0.089 0-0.178-0.067-0.222-0.156-0.511-0.911-0.756-1.933-0.756-2.978 0-0.622 0.089-1.222 0.267-1.8h-0.978c-0.156 0.556-0.222 1.133-0.222 1.733 0 0.089-0.044 0.178-0.111 0.222s-0.156 0.067-0.244 0.044c-1.022-0.289-1.978-0.867-2.711-1.644-0.089-0.089-0.111-0.244-0.022-0.356l1.289-1.933c0.044-0.067 0.133-0.133 0.222-0.133h5.533v-0.933h-6.2l-1.356 2.022c-0.044 0.089-0.156 0.133-0.244 0.133s-0.178-0.067-0.222-0.156c-0.511-0.911-0.756-1.933-0.756-2.978 0-3.422 2.778-6.178 6.178-6.178 3.422 0 6.178 2.778 6.178 6.178 0 0.4-0.044 0.8-0.111 1.178 0 0.156-0.133 0.267-0.289 0.267 0 0 0 0 0 0v0c0 0 0 0-0.022 0 0 0-0.022 0-0.022 0-1.022 0-1.867 0.844-1.867 1.867s0.844 1.867 1.867 1.867 1.867-0.844 1.867-1.867c0-0.533-0.222-1.022-0.622-1.378 0 0 0 0 0 0s0 0 0 0c-0.067-0.044-0.089-0.133-0.089-0.2 0-0.022 0-0.044 0.022-0.089 0.111-0.511 0.178-1.044 0.2-1.556 0-0.089 0.044-0.178 0.111-0.222s0.156-0.067 0.244-0.044c2.644 0.756 4.467 3.2 4.467 5.933 0 1.044-0.267 2.067-0.756 2.978-0.067 0.111-0.133 0.178-0.244 0.178z"></path>
<path d="M13.111 8.822c-1.022 0-1.867 0.844-1.867 1.867s0.844 1.867 1.867 1.867c1.022 0 1.867-0.844 1.867-1.867 0-1.044-0.822-1.867-1.867-1.867zM13.111 11.8c-0.622 0-1.111-0.511-1.111-1.111 0-0.622 0.511-1.111 1.111-1.111 0.622 0 1.111 0.511 1.111 1.111 0.022 0.6-0.489 1.111-1.111 1.111z"></path>
</symbol>
<symbol id="icon-professional-analyist" viewBox="0 0 32 32">
<title>professional-analyist</title>
<path d="M24.578 21.222v0.178h-4.644v1.089h5.733v-11.289h-7.156l-0.044-0.133c-0.667-2.778-3.156-4.711-6.022-4.711-3.311 0-6.022 2.644-6.111 5.933h1.089c0.111-2.689 2.311-4.822 5.022-4.822 2.222 0 4.178 1.4 4.867 3.489l0.089 0.244h-6.022v8.378h1.089v-7.289h5.133l0.022 0.156c0.289 1.756 0.4 2.822 0.556 4.067l0.022 0.2h-1.533l0.289 4.489 0.022 0.2h-5.889l1.711 4.244h1.2l-1.178-2.889-0.111-0.244h5.4l-0.289-4.489-0.022-0.2h1.6l-0.111-0.978c-0.156-1.4-0.289-2.511-0.578-4.333l-0.044-0.222h5.867v8.933z"></path>
</symbol>
<symbol id="icon-professional-services" viewBox="0 0 32 32">
<title>professional-services</title>
<path d="M15.911 14.244c0.022 0 0.067 0 0.089 0 2.422-0.044 4.356-2.067 4.289-4.489-0.044-2.378-2-4.289-4.378-4.289-0.022 0-0.067 0-0.089 0-2.422 0.044-4.356 2.067-4.289 4.489 0.044 2.378 2 4.289 4.378 4.289zM15.844 6.578c0.022 0 0.044 0 0.067 0 1.778 0 3.244 1.444 3.267 3.2 0.044 1.822-1.4 3.333-3.2 3.356-0.022 0-0.044 0-0.067 0-1.778 0-3.244-1.444-3.267-3.2-0.044-1.8 1.378-3.311 3.2-3.356z"></path>
<path d="M22.756 15.867l-5.4 0.111-1.244 2.133-1.311-2.089-5.422 0.111-2.889 7 1.022 0.422 2.622-6.333 4.067-0.089 1.289 2.067-1.733 4.6 2.533 3.756 2.378-3.822-1.911-4.489 1.267-2.178 3.978-0.067 2.467 6.2 1.022-0.422-2.733-6.911zM16.244 25.511l-1.222-1.822 1.133-3 1.267 2.956-1.178 1.867z"></path>
</symbol>
<symbol id="icon-promise" viewBox="0 0 32 32">
<title>promise</title>
<path d="M8.222 19.8l0.244 0.022 0.022 0.244c0.022 0.422 0.222 0.822 0.511 1.133 0.311 0.311 0.711 0.489 1.133 0.511l0.244 0.022 0.022 0.244c0.022 0.422 0.222 0.822 0.511 1.133 0.311 0.311 0.711 0.489 1.133 0.511l0.244 0.022 0.022 0.244c0.022 0.422 0.2 0.844 0.511 1.133 0.333 0.333 0.778 0.511 1.244 0.511s0.911-0.178 1.244-0.511l0.756-0.756 0.778 0.778c0.333 0.333 0.756 0.489 1.2 0.489 0.467 0 0.889-0.178 1.2-0.489 0.289-0.289 0.467-0.667 0.489-1.067l0.022-0.244 0.244-0.022c0.4-0.044 0.778-0.2 1.067-0.489s0.467-0.644 0.489-1.067l0.022-0.244 0.244-0.022c0.4-0.044 0.778-0.2 1.067-0.489s0.467-0.644 0.489-1.067l0.022-0.244 0.244-0.022c0.4-0.044 0.778-0.2 1.067-0.489 0.333-0.311 0.489-0.756 0.489-1.2 0-0.422-0.156-0.822-0.422-1.133l-1.356-1.356 0.156-0.2c0.8-1.022 1.222-2.244 1.222-3.533 0-1.533-0.6-2.956-1.667-4.044-1.067-1.067-2.511-1.667-4.044-1.667-1.222 0-2.378 0.378-3.356 1.089l-0.178 0.133-0.178-0.133c-0.978-0.711-2.133-1.089-3.356-1.089-1.533 0-2.956 0.6-4.044 1.667-1.089 1.089-1.667 2.511-1.667 4.044 0 1.356 0.467 2.644 1.333 3.667l0.178 0.2-0.756 0.756c-0.333 0.333-0.511 0.778-0.511 1.244s0.178 0.911 0.511 1.244c0.333 0.333 0.711 0.511 1.156 0.533zM10.8 20.689c-0.156 0.133-0.356 0.2-0.556 0.2-0.244 0-0.489-0.089-0.667-0.267s-0.267-0.4-0.267-0.667c0-0.222 0.067-0.422 0.2-0.578l0.044-0.044 0.311-0.333 0.067-0.067 1.6-1.578c0.378-0.289 0.933-0.244 1.244 0.067 0.178 0.178 0.267 0.4 0.267 0.667 0 0.2-0.067 0.378-0.156 0.533v-0.022l-2.089 2.089zM12.711 22.6c-0.156 0.111-0.356 0.178-0.556 0.178-0.244 0-0.489-0.089-0.667-0.267s-0.267-0.4-0.267-0.667c0-0.244 0.089-0.489 0.267-0.644l1.911-1.911c0.178-0.178 0.4-0.267 0.644-0.267s0.489 0.089 0.667 0.267c0.178 0.178 0.267 0.4 0.267 0.667 0 0.2-0.067 0.378-0.156 0.533l-2.111 2.111zM16.089 23.089v0l-1.444 1.444c-0.156 0.111-0.356 0.178-0.556 0.178-0.244 0-0.489-0.089-0.667-0.267s-0.267-0.4-0.267-0.667c0-0.244 0.089-0.489 0.267-0.667l1.911-1.911c0.178-0.178 0.4-0.267 0.667-0.267 0.244 0 0.489 0.089 0.667 0.267s0.267 0.4 0.267 0.667c0 0.2-0.067 0.378-0.156 0.533l-0.689 0.689zM18.933 23.844c0 0.222-0.089 0.444-0.244 0.6s-0.378 0.244-0.6 0.244c-0.222 0-0.444-0.089-0.6-0.244l-0.778-0.778 0.556-0.556c0.133-0.133 0.244-0.289 0.333-0.467l0.178-0.356 1.2 1.2-0.089 0.067c0.022 0.089 0.044 0.2 0.044 0.289zM15.644 8.711c0.911-0.911 2.156-1.422 3.444-1.422 1.311 0 2.533 0.511 3.444 1.422 0.378 0.378 0.667 0.778 0.911 1.244l0.111 0.222-0.2 0.156c-0.578 0.422-1.222 0.689-1.933 0.822-0.289 0.044-0.6 0.067-0.911 0.067-1.022-0.022-1.978-0.378-2.778-1l-0.444-0.444-2.311 2.267c-0.444 0.444-1.022 0.689-1.644 0.689-0.333 0-0.644-0.067-0.956-0.2l-0.378-0.178 3.644-3.644zM7.178 12.156c0-1.311 0.511-2.533 1.422-3.444s2.156-1.422 3.444-1.422c0.911 0 1.8 0.267 2.578 0.733l0.311 0.2-4.111 4.133 0.289 0.289c0.6 0.6 1.378 0.933 2.222 0.933s1.622-0.333 2.222-0.911l1.733-1.711 0.2 0.133c0.889 0.622 1.911 0.956 3 0.978 0.356 0 0.733-0.022 1.089-0.089 0.667-0.111 1.311-0.356 1.911-0.711l0.378-0.222 0.067 0.444c0.022 0.222 0.044 0.467 0.044 0.689 0 1.044-0.333 2.044-0.933 2.867l-0.2 0.267-1.311-1.311c-0.378 0.044-0.733 0.067-1.089 0.044-0.022 0-0.044 0-0.044 0l3.778 3.8c0.133 0.156 0.2 0.356 0.2 0.556 0 0.222-0.089 0.444-0.244 0.6s-0.378 0.244-0.6 0.244c-0.222 0-0.444-0.089-0.6-0.244l-4.8-4.778c-0.156-0.133-0.444-0.133-0.578 0.022-0.089 0.089-0.133 0.178-0.133 0.289s0.044 0.222 0.133 0.289l4.756 4.756c0.156 0.156 0.244 0.378 0.244 0.6s-0.089 0.444-0.244 0.6c-0.156 0.156-0.378 0.244-0.6 0.244s-0.444-0.089-0.6-0.244l-4.778-4.733c-0.156-0.133-0.444-0.133-0.6 0-0.156 0.156-0.156 0.422 0 0.6l4.756 4.756c0.156 0.156 0.244 0.378 0.244 0.622 0 0.222-0.089 0.444-0.244 0.6s-0.378 0.244-0.6 0.244c-0.222 0-0.444-0.089-0.6-0.244l-2.022-2.022c-0.311-0.311-0.711-0.489-1.133-0.511l-0.244-0.022-0.022-0.244c-0.022-0.422-0.2-0.822-0.511-1.133s-0.711-0.489-1.133-0.511l-0.244-0.022-0.022-0.244c-0.022-0.422-0.222-0.822-0.511-1.133-0.311-0.311-0.689-0.489-1.111-0.511l-0.244-0.022-0.067-0.244c-0.022-0.422-0.222-0.822-0.511-1.133-0.333-0.333-0.778-0.511-1.244-0.511s-0.911 0.178-1.244 0.511l-0.578 0.578-0.2-0.244c-0.689-0.889-1.067-1.933-1.067-3.044zM7.689 17.378l1.911-1.911c0.178-0.178 0.4-0.267 0.667-0.267 0.244 0 0.489 0.089 0.667 0.267s0.267 0.4 0.267 0.667c0 0.2-0.067 0.378-0.156 0.533l-2.111 2.111c-0.156 0.111-0.356 0.178-0.556 0.178-0.244 0-0.489-0.089-0.667-0.267s-0.267-0.4-0.267-0.667c-0.022-0.222 0.067-0.467 0.244-0.644z"></path>
</symbol>
<symbol id="icon-radiometric-distortion" viewBox="0 0 32 32">
<title>radiometric-distortion</title>
<path d="M5.822 14.044l-0.756-0.822c0.178-0.156 4.356-3.889 8.111-2.467 0.822 0.311 1.533 0.6 2.178 0.867 2.111 0.867 3.378 1.4 5.422 1.267 2.644-0.178 5.378-2.733 5.4-2.778l0.756 0.8c-0.111 0.111-3.044 2.867-6.089 3.089-2.289 0.156-3.822-0.467-5.911-1.356-0.622-0.267-1.333-0.556-2.133-0.867-3.156-1.178-6.933 2.222-6.978 2.267z"></path>
<path d="M5.822 17.956l-0.756-0.822c0.178-0.156 4.356-3.889 8.111-2.467 0.822 0.311 1.533 0.6 2.178 0.867 2.111 0.867 3.378 1.4 5.422 1.267 2.644-0.178 5.378-2.733 5.4-2.778l0.756 0.8c-0.133 0.111-3.044 2.867-6.089 3.067-2.289 0.156-3.822-0.467-5.911-1.356-0.622-0.267-1.333-0.556-2.133-0.867-3.133-1.133-6.933 2.267-6.978 2.289z"></path>
<path d="M5.822 21.889l-0.756-0.822c0.178-0.156 4.356-3.889 8.111-2.467 0.822 0.311 1.533 0.6 2.178 0.867 2.111 0.867 3.378 1.4 5.422 1.267 2.644-0.178 5.378-2.733 5.4-2.778l0.756 0.8c-0.133 0.111-3.044 2.867-6.089 3.067-2.289 0.156-3.822-0.467-5.911-1.356-0.622-0.267-1.333-0.556-2.133-0.867-3.156-1.133-6.933 2.267-6.978 2.289z"></path>
</symbol>
<symbol id="icon-real-time-data" viewBox="0 0 32 32">
<title>real-time-data</title>
<path d="M16 7.822c-5.156 0-9.333 4.178-9.333 9.333s4.178 9.333 9.333 9.333 9.333-4.178 9.333-9.333c0-5.133-4.178-9.333-9.333-9.333zM16 25.378c-4.533 0-8.222-3.689-8.222-8.222s3.689-8.222 8.222-8.222 8.222 3.689 8.222 8.222c0 4.533-3.689 8.222-8.222 8.222z"></path>
<path d="M15.689 16.711l0.067-5.956-1.111-0.022-0.111 8.867 6.422-6.978-0.822-0.733z"></path>
<path d="M14.6 6.867h1.111v-1.133h1.311v-1.111h-3.822v1.111h1.4z"></path>
<path d="M23.734 7.661l0.809 0.762-1.218 1.295-0.809-0.762 1.218-1.295z"></path>
</symbol>
<symbol id="icon-road-flattening" viewBox="0 0 32 32">
<title>road-flattening</title>
<path d="M6.644 6.489v18.578h18.578v-18.578h-18.578zM22.778 17.911c0.533-0.111 0.933-0.578 0.933-1.133 0-0.644-0.511-1.156-1.156-1.156s-1.156 0.511-1.156 1.156c0 0.4 0.2 0.733 0.489 0.956-0.556 1.333-1.756 2.267-3.6 2.711-1.089 0.267-2.133 0.289-2.778 0.267 1.133-2 1.889-4.133 2.378-5.978l6.422-1.156v7.8c-0.533 0.156-1.889 0.356-3.289-1.2 0.756-0.533 1.378-1.267 1.756-2.267zM24.333 12.667l-6.178 1.111c0-0.044 0.022-0.089 0.022-0.111 0.689-2.911 0.867-5.333 0.911-6.289h5.244v5.289zM18.2 7.378c-0.022 0.444-0.089 1.178-0.2 2.111l-7.444 1.467-0.844 1.711c-0.067-0.022-0.156-0.022-0.222-0.022-0.644 0-1.156 0.511-1.156 1.156s0.511 1.156 1.156 1.156 1.156-0.511 1.156-1.156c0-0.244-0.067-0.444-0.2-0.644l0.711-1.422 6.711-1.333c-0.289 1.978-0.844 4.578-1.844 7.133h-5.333l-3.156 3v-13.156h10.667zM7.533 21.756l3.533-3.333h4.622c-0.933 2.111-2.2 4.156-3.911 5.756h-4.222v-2.422zM13 24.178c0.756-0.8 1.422-1.689 2-2.6 0.156 0 0.4 0.022 0.711 0.022 1.089 0 2.956-0.133 4.556-0.956 1.2 1.378 2.422 1.711 3.311 1.711 0.289 0 0.533-0.044 0.756-0.067v1.911h-11.333z"></path>
</symbol>
<symbol id="icon-satellite" viewBox="0 0 32 32">
<title>satellite</title>
<path d="M18.867 6.089l-0.311 0.956h5.911l-2.422 7.156h-2.444v-5.089h-4.444l1.022-3.022h-6.889l-3.067 9.044h6.911l1.711-5.089h3.822v1.6h-2.4v0.956h2.4v1.6h-2.4v0.956h2.4v1.6h-2.4v0.956h2.4v6.333h-2.2v-1.667h-0.956v1.667h-2.2v-6.822h-0.956v7.156l-0.889 1.556h1.089l0.556-0.956h2.4v0.956h0.956v-0.956h2.4l0.556 0.956h1.089l-0.889-1.556v-9.244h3.111l3.044-9.044h-6.911zM12.444 14.2h-4.911l2.422-7.178h4.933l-2.444 7.178z"></path>
</symbol>
<symbol id="icon-search-folder" viewBox="0 0 32 32">
<title>search-folder</title>
<path d="M19.778 7.2l-1.289 1.289h-10.467v2.756h-1.467v13.578h12.711l-0.911-0.911h-10.889v-11.778h15.044v-0.911h-13.578v-1.844h9.956l1.289-1.289h4.356v15.778h-2.044l-3.333-3.289 0.133-0.2c0.489-0.689 0.756-1.511 0.756-2.356 0-2.244-1.822-4.067-4.067-4.067s-4.067 1.822-4.067 4.067c0 2.244 1.822 4.067 4.067 4.067 0.844 0 1.644-0.244 2.333-0.733l0.178-0.133 3.6 3.6h3.333v-17.622h-5.644zM16 21.156c-1.733 0-3.156-1.422-3.156-3.156s1.422-3.156 3.156-3.156c1.733 0 3.156 1.422 3.156 3.156 0 1.756-1.422 3.156-3.156 3.156z"></path>
</symbol>
<symbol id="icon-secure-connection" viewBox="0 0 32 32">
<title>secure-connection</title>
<path d="M7.667 26.067l-0.289-11.956 2.4-0.044-0.044-1.889c0-0.067-0.067-6.089 5.933-6.222 0.067 0 0.133 0 0.2 0 5.822 0 6.022 5.889 6.022 5.933l0.044 1.889 2.4-0.067 0.289 12.178-16.956 0.178zM8.4 15.089l0.244 9.956 14.956-0.156-0.244-10.156-2.4 0.067-0.067-2.889c0-0.2-0.2-4.956-5.022-4.956-0.067 0-0.111 0-0.178 0-5 0.111-4.978 5-4.956 5.2l0.067 2.889-2.4 0.044zM12.178 15l-0.067-2.933c-0.022-3.178 2.244-3.689 3.6-3.733 0.044 0 0.111 0 0.156 0 3.044 0 3.578 2.244 3.622 3.578v0.022l0.067 2.911-7.378 0.156zM15.867 9.333c-0.044 0-0.089 0-0.133 0-2.378 0.067-2.622 1.6-2.622 2.733v0.022l0.044 1.889 5.378-0.133-0.044-1.911c-0.022-1.111-0.356-2.6-2.622-2.6z"></path>
</symbol>
<symbol id="icon-share-date" viewBox="0 0 32 32">
<title>share-date</title>
<path d="M18.711 9.933v1.222h3.8v13h-13.444v-13h3.689v-1.222h-4.911v15.444h15.889v-15.444z"></path>
<path d="M15 6.489v8.711h1.222v-8.711l1.622 1.622 0.867-0.867-3.089-3.089-3.111 3.089 0.867 0.867z"></path>
</symbol>
<symbol id="icon-shovel" viewBox="0 0 32 32">
<title>shovel</title>
<path d="M25.133 25.267c-0.067-0.267-0.711-2.578-2.311-2.667-1.089-0.067-2-1.378-2-1.4l-0.044-0.067c-0.067-0.067-0.6-0.578-1.556-0.578-0.8 0-1.644 0.356-2.511 1.089-0.111 0.022-0.356 0.089-0.689 0.089-0.578 0-1.156-0.156-1.733-0.489l-0.067-0.044-0.067-0.022c-0.089-0.022-1.089-0.267-1.867 0.511-0.156 0.156-0.267 0.311-0.378 0.444-0.356 0.444-0.578 0.711-1.444 0.711-1.689 0.022-2.422 2.289-2.444 2.378l-0.178 0.6h17.444l-0.156-0.556zM9.156 24.911c0.267-0.511 0.711-1.133 1.333-1.133 1.289-0.022 1.733-0.556 2.133-1.044 0.111-0.133 0.2-0.244 0.333-0.378 0.2-0.2 0.444-0.289 0.756-0.289 0.089 0 0.156 0 0.2 0.022 0.689 0.378 1.4 0.578 2.111 0.578 0.622 0 1.022-0.156 1.067-0.178l0.067-0.022 0.067-0.044c0.711-0.622 1.378-0.911 1.978-0.911 0.511 0 0.8 0.222 0.889 0.289 0.2 0.289 1.267 1.667 2.689 1.756 0.6 0.044 1.044 0.8 1.289 1.4h-14.911z"></path>
<path d="M11.089 11.156c0.067 0.067 0.378 0.289 0.711 0.289 0.089 0 0.178-0.022 0.289-0.067 0.444-0.2 0.467-0.756 0.467-0.867 0 0 0-1.6 0-2.289 0-0.489-0.133-0.844-0.422-1-0.289-0.178-0.622-0.111-0.8 0-0.022 0-1.378 0.644-1.911 0.867-0.333 0.133-0.444 0.356-0.489 0.533-0.067 0.356 0.178 0.644 0.244 0.711l1.911 1.822zM11.711 7.956c0 0 0 0 0 0 0.022 0.044 0.044 0.133 0.044 0.289 0 0.689 0 2.289 0 2.289 0 0.022 0 0.067 0 0.089-0.022-0.022-0.067-0.044-0.089-0.067l-1.8-1.733c0.578-0.267 1.756-0.844 1.844-0.867z"></path>
<path d="M11.156 13.178c0.2 0.511 1.2 2.933 1.556 3.6 0.111 0.222 0.156 0.356 0.178 0.422-0.378 0.156-1.378 0.556-2.156 0.978-0.467 0.244-0.733 0.533-0.8 0.911-0.067 0.333 0.044 0.6 0.133 0.711l0.956 2.756 1.244-1.267c0.044-0.067 0.467-0.644 0.422-1.2 0-0.111 0-0.178 0-0.222 0.289-0.133 0.911-0.378 1.289-0.556 0.022 0.044 0.044 0.089 0.067 0.133 0.267 0.689 0.644 1.156 1.089 1.333 0.333 0.133 0.711 0.133 1.067-0.044 0.889-0.4 0.667-1.556 0.4-2.2l-0.111-0.311 1.156-0.489 0.044-0.022c0.067-0.044 0.178-0.067 0.222-0.067 0.244 0.578 0.822 2.422 0.822 2.444l0.089 0.267h0.289c0.444 0 1.156 0.111 1.356 0.267l1.022 0.844-1.667-5.778-0.022-0.044c-0.2-0.356-0.889-0.911-1.978-0.533-0.578 0.2-1.733 0.511-2.311 0.667l-1.667-3.822c0.089-1.622 0.044-4.467 0.022-5.356-0.022-0.6-0.289-0.889-0.511-1.044-0.6-0.378-1.467 0-1.533 0.022-0.044 0.022-2.8 1.2-3.822 1.6-0.6 0.222-0.822 0.6-0.911 0.867-0.2 0.6 0.178 1.178 0.222 1.244l0.022 0.044c1.889 2.133 3.467 3.511 3.822 3.844zM7.889 8.289c0.044-0.133 0.178-0.244 0.422-0.333 1.022-0.4 3.711-1.556 3.822-1.6 0.222-0.111 0.622-0.178 0.778-0.089 0.089 0.067 0.111 0.222 0.133 0.356 0.022 0.889 0.089 3.8-0.022 5.378v0.089l2.067 4.756 0.756-0.333c0.6-0.178 1.689-0.467 2.244-0.644 0.622-0.2 0.911 0.044 1 0.156l1.044 3.622c-0.244-0.044-0.511-0.067-0.689-0.089-0.178-0.556-0.578-1.8-0.756-2.267-0.089-0.222-0.244-0.378-0.467-0.444-0.378-0.133-0.778 0.067-0.911 0.111l-1.844 0.778 0.067 0.178 0.267 0.822 0.022 0.044c0.111 0.267 0.311 1 0.022 1.133-0.2 0.089-0.333 0.067-0.422 0.022-0.222-0.089-0.467-0.4-0.644-0.867-0.044-0.133-0.222-0.533-0.556-0.667-0.178-0.067-0.356-0.044-0.511 0.044-0.4 0.222-1.511 0.667-1.511 0.667l-0.067 0.022-0.044 0.044c-0.178 0.156-0.244 0.467-0.222 0.911 0.022 0.178-0.133 0.467-0.244 0.622l-0.244 0.244-0.556-1.622h-0.067c0 0-0.022-0.044-0.022-0.111 0-0.044 0.067-0.178 0.378-0.333 0.911-0.489 2.2-0.978 2.2-0.978 0.067-0.022 0.244-0.111 0.356-0.356 0.111-0.289 0.044-0.689-0.244-1.178-0.378-0.689-1.533-3.578-1.556-3.6l-0.022-0.111-0.067-0.067c-0.022-0.022-1.733-1.444-3.778-3.8-0.044-0.067-0.178-0.311-0.111-0.511z"></path>
</symbol>
<symbol id="icon-simplified-access" viewBox="0 0 32 32">
<title>simplified-access</title>
<path d="M19.489 6.644c-2 0-3.644 1.644-3.644 3.644s1.644 3.644 3.644 3.644 3.644-1.644 3.644-3.644-1.644-3.644-3.644-3.644zM19.489 12.933c-1.467 0-2.644-1.178-2.644-2.644s1.178-2.644 2.644-2.644 2.644 1.178 2.644 2.644-1.178 2.644-2.644 2.644z"></path>
<path d="M19.489 4.489c-3.244 0-5.889 2.644-5.889 5.889 0 1.044 0.267 2 0.733 2.867l-9.711 9.689 2.311 2.222 1.978-1.911 2.444 2.444 2.267-2.178-2.444-2.4 0.756-0.733 1.267 1.267 2-2.044-1.244-1.267 2.756-2.756c0.822 0.444 1.756 0.689 2.756 0.689 3.244 0 5.889-2.644 5.889-5.889s-2.622-5.889-5.867-5.889zM12.556 18.333l1.244 1.267-0.6 0.622-1.267-1.267-2.178 2.156 2.422 2.378-0.822 0.778-2.444-2.444-2 1.933-0.889-0.844 8.867-8.844c0.289 0.356 0.6 0.667 0.978 0.956l-3.311 3.311zM19.489 15.267c-2.689 0-4.889-2.2-4.889-4.889s2.2-4.889 4.889-4.889 4.889 2.2 4.889 4.889-2.2 4.889-4.889 4.889z"></path>
</symbol>
<symbol id="icon-source-lifecycle" viewBox="0 0 32 32">
<title>source-lifecycle</title>
<path d="M6.778 25.711h15.067v-15.956h-15.067v15.956zM7.689 10.689h13.222v14.089h-13.222v-14.089z"></path>
<path d="M9.6 6.289v1.533h0.933v-0.6h13.756v12.956h-0.756v0.933h1.689v-14.822z"></path>
<path d="M14.311 13.644c-1.178 0-2.244 0.4-2.978 1.133l-0.222 0.222 0.733 0.778 0.244-0.244c0.556-0.556 1.333-0.867 2.2-0.867 1.644 0 2.911 1.467 3.089 2.867h-0.978l1.489 2.222 1.489-2.222h-0.867c-0.2-2.111-2.089-3.889-4.2-3.889z"></path>
<path d="M16.644 19.867c-0.644 0.644-1.4 0.978-2.178 0.978-1.689 0-2.889-1.089-3.044-2.622h0.844l-1.489-2.222-1.489 2.222h1.022c0.156 2.156 1.822 3.689 4.133 3.689 1.089 0 2.133-0.444 2.933-1.267l0.222-0.222-0.711-0.8-0.244 0.244z"></path>
</symbol>
<symbol id="icon-standard-imagery" viewBox="0 0 32 32">
<title>standard-imagery</title>
<path d="M19.978 25.378h-12.978v-13.733h12.978v13.733zM7.8 24.578h11.378v-12.133h-11.378v12.133z"></path>
<path d="M22.889 21.422h-1.444v-0.8h0.644v-11.156h-11.844v0.533h-0.8v-1.333h13.444z"></path>
<path d="M18.044 22.267h-9.289l2.867-3.844h0.222c0.133 0 0.267 0.067 0.356 0.2l0.689 1.089 1.933-2.467 3.222 5.022zM10.333 21.467h6.244l-1.844-2.867-1.356 1.711c-0.133 0.156-0.333 0.267-0.533 0.267-0.244 0-0.444-0.111-0.578-0.311l-0.467-0.756-1.467 1.956z"></path>
<path d="M11.244 18.133c-0.867 0-1.556-0.689-1.556-1.556s0.689-1.556 1.556-1.556 1.556 0.689 1.556 1.556c0 0.844-0.711 1.556-1.556 1.556zM11.244 15.8c-0.422 0-0.756 0.333-0.756 0.756s0.333 0.756 0.756 0.756c0.422 0 0.756-0.333 0.756-0.756 0-0.4-0.333-0.756-0.756-0.756z"></path>
<path d="M25.444 18.667h-1.556v-0.889h0.667v-10.711h-11.756v0.6h-0.889v-1.489h13.533z"></path>
</symbol>
<symbol id="icon-stereo-imagery" viewBox="0 0 32 32">
<title>stereo-imagery</title>
<path d="M23.667 10.444v-2.378h-17.667v13.489h2.333v2.378h17.667v-13.489h-2.333zM25.111 23.044h-15.889v-11.711h12.4v-0.889h-13.289v10.222h-1.444v-11.711h15.889v11.711h-12.4v0.889h13.289v-10.222h1.444v11.711z"></path>
<path d="M19.889 16.978l-3.889-4.289-3.889 4.289 3.889 2.156 3.889-2.156zM16.444 17.867v-3.356l2.044 2.244-2.044 1.111zM15.556 14.511v3.356l-2.044-1.133 2.044-2.222z"></path>
</symbol>
<symbol id="icon-three-dimensional" viewBox="0 0 32 32">
<title>three-dimensional</title>
<path d="M16 6.978l-10.8 11.889 10.8 5.978 10.8-5.978-10.8-11.889zM16.489 9.022l8.711 9.578-8.711 4.822v-14.4zM15.489 9.022v14.4l-8.689-4.822 8.689-9.578z"></path>
</symbol>
<symbol id="icon-topographic-map" viewBox="0 0 32 32">
<title>topographic-map</title>
<path d="M13.156 8.933c-0.067 0-0.111 0-0.178 0-1.733 0-2.867 1.022-3.511 3.244-0.467 1.556-0.489 3.8 0.356 4.956 0.356 0.489 0.822 0.733 1.378 0.733 0.067 0 0.133 0 0.2 0 1.089-0.111 1.4-0.867 1.689-1.822 0.133-0.4 0.244-0.844 0.511-1.156 0.178-0.244 0.444-0.444 0.711-0.667 0.6-0.467 1.333-1.067 1.444-2.156 0.089-0.822-0.156-1.644-0.644-2.222-0.467-0.578-1.156-0.867-1.956-0.911zM14.778 11.933c-0.067 0.689-0.533 1.067-1.089 1.489-0.333 0.267-0.622 0.489-0.889 0.822-0.356 0.467-0.511 0.978-0.667 1.467-0.222 0.756-0.356 1.089-0.867 1.133-0.267 0.022-0.489-0.067-0.689-0.333-0.622-0.844-0.6-2.778-0.2-4.089 0.533-1.778 1.311-2.533 2.578-2.533 0.044 0 0.089 0 0.133 0 0.533 0.022 0.956 0.2 1.267 0.556 0.333 0.4 0.489 0.933 0.422 1.489z"></path>
<path d="M6.778 6.778v18.444h18.444v-18.444h-18.444zM18.111 11.356c-0.222 1.489-0.822 2.178-1.422 2.889-0.711 0.844-1.444 1.711-1.778 3.644-0.444 2.667-1.444 3.4-3.022 3.8-0.222 0.067-0.489 0.089-0.756 0.089-1.156 0-2.4-0.511-3.311-1.378l-0.067-0.067v-12.578h9.444l0.067 0.089c0.778 0.978 1.067 2.178 0.844 3.511zM12.111 22.644c2.244-0.556 3.289-1.844 3.756-4.578 0.289-1.667 0.933-2.422 1.556-3.156 0.689-0.8 1.378-1.622 1.644-3.378 0.2-1.244 0.022-2.4-0.511-3.422l-0.178-0.333h3.022l0.044 0.156c0.911 2.489-0.156 5.067-1.356 6.533-1.733 2.111-2 3.444-1.844 6.156 0.089 1.711-0.333 2.889-1.311 3.6l-0.067 0.044h-9.111v-2.622l0.356 0.222c0.933 0.578 2 0.911 3.044 0.911 0.333-0.022 0.667-0.044 0.956-0.133zM24.244 14.689l-0.089 0.067c-0.2 0.178-0.378 0.311-0.533 0.444-2.956 2.289-2.022 4.956-1.644 6.111 0.022 0.089 0.067 0.2 0.111 0.333 0.178 0.489 0.489 1.333 0.711 2.333l0.067 0.267h-4.489l0.222-0.356c0.533-0.867 0.756-1.956 0.689-3.356-0.133-2.444 0.089-3.578 1.622-5.467 1.244-1.511 2.444-4.267 1.667-7.022l-0.089-0.289h1.733v6.933zM22.911 20.978c-0.489-1.444-0.778-3.156 0.956-4.711l0.378-0.356v8.311h-0.378l-0.067-0.333c-0.222-1.133-0.578-2.044-0.778-2.6-0.044-0.111-0.089-0.222-0.111-0.311z"></path>
</symbol>
<symbol id="icon-tree" viewBox="0 0 32 32">
<title>tree</title>
<path d="M25.778 18.089c-0.067-0.044-1.556-1.311-3.2-1.311-0.267 0-0.533 0.044-0.778 0.111-1.533 0.422-2.378 1.289-2.667 1.6-0.378 0.089-1.444 0.356-2.089 0.511 0.044-0.467 0.333-1.467 0.667-2.356 0.733-0.156 3.067-0.733 4.111-2.356 1.067-1.667 1.111-2.933 1.133-4.044 0-0.133 0-0.267 0.022-0.4l0.022-0.422-0.422 0.022c-0.156 0-3.867 0.2-5.222 3-0.044 0.089-0.911 2-0.733 3.467l-0.889 1.356c-0.289-0.644-0.689-1.733-0.778-2.911 0.511-0.422 1.978-1.778 2.044-3.578 0.067-2.089-1.222-3.844-1.267-3.911l-0.222-0.311-0.311 0.222c-0.089 0.067-2.444 1.822-2.533 3.867-0.111 1.711 0.711 3.133 0.956 3.533-0.022 0.689-0.044 3.978 0.956 5.422l-0.156 0.578c-0.489-0.311-1.289-0.822-1.978-1.2-0.244-0.533-1.289-2.489-2.822-2.8-0.444-0.089-0.911-0.133-1.4-0.133-1.022 0-1.778 0.2-1.8 0.2l-0.422 0.111 0.178 0.4c0.089 0.244 1 2.378 1.844 2.933 0.6 0.378 1.178 0.622 2.133 0.622 0.444 0 0.956-0.044 1.578-0.156 1.022 0.978 2.156 2.178 2.267 2.511 0.022 0.067 0.067 0.133 0.089 0.156 0.044 0.067 0.133 0.156 0.111 0.333-0.022 0.133-0.356 3.156-0.244 4.467l0.022 0.089c0.089 0.267 0.4 0.733 1.022 0.733 0 0 0 0 0 0 0.311 0 0.644-0.111 1-0.356l0.178-0.111v-0.2c0-1.333 0.022-4.956 0.267-5.822 0.156-0.222 1.022-1.289 2.978-2.222 0 0 0.022 0 0.067 0s0.111 0.022 0.133 0.044c0.378 0.333 1.4 0.822 2.533 0.822 0.156 0 0.333 0 0.489-0.022 1.244-0.156 2.422-0.867 3.289-1.978l0.222-0.289-0.378-0.222zM18.044 12.756c0.889-1.867 3.178-2.378 4.133-2.511-0.022 1.044-0.067 2.133-1 3.6-0.978 1.511-3.444 1.978-3.756 2.044-0.244-1.222 0.622-3.133 0.622-3.133zM11.733 19.356c-0.667 0.111-1.2 0.178-1.644 0.178-0.778 0-1.222-0.178-1.711-0.511-0.4-0.267-0.978-1.311-1.356-2.133 0.289-0.044 0.689-0.089 1.156-0.089 0.444 0 0.867 0.044 1.244 0.111 1.111 0.244 2.022 1.8 2.311 2.444v0zM14.311 13.822c0-0.022-1-1.444-0.889-3.156 0.067-1.267 1.311-2.489 1.911-3.022 0.333 0.556 0.933 1.756 0.889 3.067-0.089 1.778-1.889 3.111-1.911 3.111v0zM15.667 21.578l-0.044 0.089c-0.289 0.956-0.311 4.844-0.311 5.889-0.178 0.089-0.311 0.111-0.378 0.111-0.156 0-0.222-0.111-0.267-0.178-0.089-1.267 0.244-4.222 0.244-4.244 0.044-0.444-0.133-0.733-0.244-0.867-0.244-0.578-1.356-1.711-2.089-2.444 0.889 0.511 1.8 1.133 1.822 1.156l0.444 0.311 0.556-2-0.133-0.156c-0.556-0.667-0.778-2.133-0.867-3.4 0.333 1.333 0.889 2.311 0.933 2.356l0.311 0.556 1.044-1.578c-0.422 1.289-0.533 2.111-0.311 2.422 0.111 0.156 0.267 0.222 0.444 0.222 0.044 0 0.111 0 0.156-0.022 0.244-0.067 0.644-0.156 1.044-0.267-1.689 1-2.333 2-2.356 2.044zM22.422 19.822c-0.133 0.022-0.267 0.022-0.378 0.022-0.933 0-1.778-0.4-2-0.622-0.111-0.089-0.222-0.156-0.333-0.2 0.156-0.2 0.889-1 2.289-1.378 0.178-0.044 0.378-0.067 0.578-0.067 0.956 0 1.911 0.556 2.378 0.889-0.711 0.733-1.6 1.222-2.533 1.356z"></path>
<path d="M12.111 16.422l0.356 0.067 0.089-0.356c0.022-0.111 0.711-2.822-0.711-5.022-0.867-1.333-2.289-2.178-4.267-2.511l-0.333-0.067-0.089 0.333c-0.022 0.111-0.778 2.667 0.556 4.844 0.844 1.4 2.333 2.311 4.4 2.711zM7.822 9.422c1.556 0.333 2.689 1.022 3.378 2.089 0.956 1.467 0.8 3.289 0.689 4.044-1.644-0.378-2.822-1.156-3.489-2.267-0.911-1.422-0.711-3.133-0.578-3.867z"></path>
<path d="M17.644 10.689l0.333-0.089c0.089-0.022 2.267-0.711 3.111-2.644 0.511-1.2 0.4-2.578-0.333-4.111l-0.156-0.311-0.333 0.111c-0.089 0.022-2.244 0.778-3.067 2.733-0.511 1.178-0.4 2.533 0.289 4.022l0.156 0.289zM17.933 6.667c0.511-1.222 1.711-1.889 2.267-2.156 0.489 1.178 0.556 2.222 0.178 3.111-0.511 1.2-1.733 1.844-2.311 2.089-0.467-1.133-0.511-2.156-0.133-3.044z"></path>
<path d="M21.489 15.756l-0.133 0.378 0.378 0.133c0.511 0.178 1 0.267 1.444 0.267 1.8 0 2.622-1.422 2.8-2.178l0.089-0.333-0.311-0.133c-0.489-0.2-0.956-0.289-1.4-0.289-2.089-0.022-2.844 2.067-2.867 2.156zM24.333 14.356c0.244 0 0.489 0.044 0.756 0.111-0.2 0.467-0.733 1.244-1.933 1.244-0.244 0-0.489-0.022-0.778-0.089 0.289-0.467 0.911-1.267 1.956-1.267z"></path>
<path d="M22.6 23.111c-1.089-1.822-2.4-2.2-3.333-2.2-1.222 0-2.156 0.644-2.2 0.667l-0.289 0.2 0.178 0.311c1.067 1.8 2.4 2.178 3.356 2.178 0.778 0 2.333-0.444 2.333-0.956v-0.111l-0.044-0.089zM20.311 23.467c-0.978 0-1.8-0.489-2.467-1.444 0.311-0.156 0.822-0.356 1.422-0.356 0.956 0 1.778 0.489 2.444 1.489-0.311 0.133-0.822 0.311-1.4 0.311z"></path>
</symbol>
<symbol id="icon-up-to-date" viewBox="0 0 32 32">
<title>up-to-date</title>
<path d="M20.689 7.889v-1.422c0-0.222-0.178-0.4-0.4-0.4s-0.4 0.178-0.4 0.4v1.422h-3.511v-1.422c0-0.222-0.178-0.4-0.4-0.4s-0.4 0.178-0.4 0.4v1.422h-3.489v-1.422c0-0.222-0.178-0.4-0.4-0.4s-0.4 0.178-0.4 0.4v1.422h-4.289v18h18v-18h-4.311zM11.311 21.978v3.133h-3.533v-3.533h3.533v0.4zM11.311 17.689v3.133h-3.533v-3.533h3.533v0.4zM11.311 13.378v3.133h-3.533v-3.533h3.533v0.4zM15.6 21.978v3.133h-3.511v-3.533h3.533v0.4zM15.6 17.689v3.133h-3.511v-3.533h3.533v0.4zM15.6 13.378v3.133h-3.511v-3.533h3.533v0.4zM19.911 21.978v3.133h-3.533v-3.533h3.533v0.4zM19.911 17.689v3.133h-3.533v-3.533h3.533v0.4zM19.911 13.378v3.133h-3.533v-3.533h3.533v0.4zM24.222 21.978v3.133h-3.533v-3.533h3.533v0.4zM24.222 17.689v3.133h-3.533v-3.533h3.533v0.4zM24.222 13.378v3.133h-3.533v-3.533h3.533v0.4zM24.222 8.689v3.533h-16.444v-3.556h3.533v1.422c0 0.222 0.178 0.4 0.4 0.4s0.4-0.178 0.4-0.4v-1.422h3.533v1.422c0 0.222 0.178 0.4 0.4 0.4s0.4-0.178 0.4-0.4v-1.422h3.533v1.422c0 0.222 0.178 0.4 0.4 0.4s0.4-0.178 0.4-0.4v-1.422h3.444z"></path>
</symbol>
<symbol id="icon-upgrade-tasking" viewBox="0 0 32 32">
<title>upgrade-tasking</title>
<path d="M13.489 21.267h-1.133v-1.133h-0.889v1.133h-1.156v0.889h1.156v1.156h0.889v-1.156h1.133z"></path>
<path d="M23.778 14.444l2.978-8.778h-6.733l-0.311 0.956h5.711l-2.333 6.889h-2.311v-4.933h-4.267l0.978-2.911h-6.711l-2.978 8.778h6.711l1.667-4.911h3.644v1.511h-2.311v0.956h2.311v1.511h-2.311v0.933h2.311v1.511h-2.311v0.933h2.311v6.089h-2.089v-0.356h-0.956v0.356h-0.489c0.111-0.378 0.156-0.778 0.156-1.178 0-1.4-0.644-2.711-1.756-3.578v-1.822h-0.956v1.244c-0.578-0.267-1.2-0.4-1.844-0.4-2.511 0-4.533 2.044-4.533 4.533 0 2.511 2.044 4.533 4.533 4.533 1.689 0 3.222-0.933 4-2.422h0.867v0.911h0.956v-0.911h2.289l0.533 0.911h1.089l-0.867-1.511v-8.844h3.022zM9.133 13.489l2.333-6.889h4.711l-2.333 6.889h-4.711zM15.511 21.733c0 1.978-1.622 3.6-3.6 3.6 0 0 0 0 0 0l-0.111 0.022c-0.778-0.022-1.533-0.311-2.156-0.8-0.844-0.689-1.333-1.711-1.333-2.8 0-1.978 1.622-3.6 3.6-3.6s3.6 1.578 3.6 3.578z"></path>
</symbol>
</defs>
</svg>
