<svg id="Layer_1" xmlns="http://www.w3.org/2000/svg" viewBox="0 0 28 28"><style>.st0{fill:#27aae1}.st1{fill:#00aeef}</style><path class="st0" d="M22 9c-.6.3-1.2.4-1.9.5.7-.4 1.2-1.1 1.4-1.8-.6.4-1.3.6-2.1.8-.6-.6-1.5-1-2.4-1-1.8 0-3.3 1.5-3.3 3.3 0 .3 0 .5.1.8-2.7-.1-5.1-1.4-6.8-3.4-.3.5-.4 1-.4 1.7 0 1.1.6 2.1 1.5 2.7-.5 0-1-.2-1.5-.4 0 1.6 1.1 2.9 2.6 3.2-.3.1-.6.1-.9.1-.2 0-.4 0-.6-.1.4 1.3 1.6 2.3 3.1 2.3-1.1.9-2.5 1.4-4.1 1.4h-.8c1.5.9 3.2 1.5 5 1.5 6 0 9.3-5 9.3-9.3v-.4c.8-.6 1.4-1.2 1.8-1.9z"/><path class="st1" d="M14 .5C21.4.5 27.5 6.6 27.5 14S21.4 27.5 14 27.5.5 21.4.5 14 6.6.5 14 .5m0-.5C6.3 0 0 6.3 0 14s6.3 14 14 14 14-6.3 14-14S21.7 0 14 0z"/></svg>