<svg id="Layer_1" xmlns="http://www.w3.org/2000/svg" viewBox="0 0 108 22.5"><style>.st0{fill:#fff}</style><title>uber</title><g id="Boostrap3-grid-system-layouts"><g id="Artboard-8-Copy"><path id="logo" class="st0" d="M17 .5V13c0 2.1-.5 3.6-1.5 4.5-1.3 1-3 1.5-4.7 1.4-1.7.1-3.4-.4-4.7-1.4-1-.9-1.5-2.4-1.5-4.5V0h-4C.3 0 0 .1 0 .4V13.2c0 3.4 1 5.9 3 7.3 2.3 1.5 5.1 2.3 7.8 2.1 2.8.2 5.5-.5 7.8-2.1 2-1.4 3-3.9 3-7.3V0h-4.1c-.2 0-.5.2-.5.4v.1zm60.2 3.1c.1 0 .3 0 .4-.1.1-.1.2-.2.2-.3l1.2-3c.1-.1 0-.2-.2-.2H62.1c-.6 0-1.1.1-1.7.4-.4.3-.5.7-.5 1.2v19.3c0 .4.1.7.4 1 .4.2.8.4 1.3.3h15.6c.1 0 .3 0 .4-.1.1-.1.2-.2.2-.3l1.2-3c.1-.2 0-.3-.2-.3H64.6v-3.9c-.1-.6.2-1.1.6-1.5.6-.4 1.4-.5 2.1-.5h6.2c.1 0 .3 0 .4-.1.1-.1.2-.2.2-.3l1.2-2.8c.1-.2 0-.3-.2-.3H64.6V3.6h12.6zm-29.5 6.9c.9-.4 1.6-1.1 2-2 .4-.9.6-1.9.6-2.9-.1-2.4-.9-3.9-2.5-4.7-1.8-.8-3.7-1.1-5.6-1h-9.5c-.6 0-1.2.1-1.7.4-.4.3-.5.7-.5 1.2v19.3c0 .4.1.7.4 1 .4.2.8.4 1.3.3h11.6c1.9.1 3.8-.4 5.4-1.4 1.4-1.1 2.2-2.9 2.1-4.7 0-1.2-.3-2.4-.9-3.5-.5-1-1.5-1.7-2.7-2zm-12.5-7h7.4c.9-.1 1.8.2 2.5.7.5.6.7 1.4.7 2.2.1.8-.1 1.6-.6 2.2-.7.6-1.6.8-2.5.7h-7.4l-.1-5.8zm8.2 15.1h-8.2v-4.1c-.1-.6.2-1.1.6-1.5.7-.4 1.4-.5 2.2-.5h5.4c.9-.1 1.9.2 2.7.8.5.6.8 1.5.7 2.3.1.8-.2 1.7-.7 2.3-.8.6-1.8.9-2.7.7zm64.6 3.1l-5-8.5c1.2-.3 2.3-.9 3.2-1.9.9-1.3 1.4-2.9 1.3-4.5 0-2.6-.8-4.4-2.4-5.4-2-1.1-4.3-1.6-6.5-1.4h-9.5c-.6 0-1.1.1-1.7.4-.3.3-.4.7-.4 1.2v20.1c0 .4.2.5.6.5h4v-6.4c-.1-.6.2-1.1.6-1.5.6-.4 1.4-.6 2.1-.5h4.1l4.5 8.1c.1.1.1.2.2.3.1.1.3.1.4.1h4.2c.1 0 .2 0 .2-.1.1-.2.1-.3.1-.5zm-8.7-11.5h-7.8V3.6h7.7c1-.1 2 .2 2.8.8.5.7.8 1.6.7 2.5.1.9-.1 1.8-.7 2.5-.7.7-1.7 1-2.7.8z"/></g></g></svg>