<svg id="Layer_1" xmlns="http://www.w3.org/2000/svg" viewBox="0 0 28 28"><style>.st0{fill:#27aae1}.st1{fill:#00aeef}</style><path class="st1" d="M12.4 16.1v-4.5l4.3 2.3-4.3 2.2zm9.5-5.3s-.2-1.1-.6-1.6c-.6-.6-1.3-.6-1.6-.7-2.2-.2-5.6-.2-5.6-.2s-3.4 0-5.6.2c-.3 0-1 0-1.6.7-.5.5-.6 1.6-.6 1.6S6 12.1 6 13.4v1.2c0 1.3.2 2.6.2 2.6s.2 1.1.6 1.6c.6.6 1.4.6 1.8.7 1.3.1 5.4.2 5.4.2s3.4 0 5.6-.2c.3 0 1 0 1.6-.7.5-.5.6-1.6.6-1.6s.2-1.3.2-2.6v-1.2c0-1.3-.1-2.6-.1-2.6"/><path class="st1" d="M14 .5C21.4.5 27.5 6.6 27.5 14S21.4 27.5 14 27.5.5 21.4.5 14 6.6.5 14 .5m0-.5C6.3 0 0 6.3 0 14s6.3 14 14 14 14-6.3 14-14S21.7 0 14 0z"/></svg>